<?xml version="1.0" encoding="UTF-8" standalone="no"?>
<!DOCTYPE svg PUBLIC "-//W3C//DTD SVG 1.1//EN"
 "http://www.w3.org/Graphics/SVG/1.1/DTD/svg11.dtd">
<!-- Generated by graphviz version 2.38.0 (20140413.2041)
 -->
<!-- Title: G Pages: 1 -->
<svg width="1331pt" height="412pt"
 viewBox="0.00 0.00 1330.60 411.98" xmlns="http://www.w3.org/2000/svg" xmlns:xlink="http://www.w3.org/1999/xlink">
<g id="graph0" class="graph" transform="scale(1 1) rotate(0) translate(7.992 403.992)">
<title>G</title>
<polygon fill="#ffffff" stroke="none" points="-7.992,7.992 -7.992,-403.992 1322.61,-403.992 1322.61,7.992 -7.992,7.992"/>
<!-- methods/server/dispatchAction -->
<g id="node1" class="node"><title>methods/server/dispatchAction</title>
<ellipse fill="#E8ECF5" stroke="#111111" cx="139.607" cy="-306" rx="139.714" ry="18"/>
<text text-anchor="middle" x="139.607" y="-302.849" font-family="Arial" font-size="14.00" fill="#111111">methods/server/dispatchAction</text>
</g>
<!-- server/streams/dispatchedActions -->
<g id="node2" class="node"><title>server/streams/dispatchedActions</title>
<ellipse fill="none" stroke="#000000" cx="472.607" cy="-234" rx="152.335" ry="18"/>
<text text-anchor="middle" x="472.607" y="-230.849" font-family="Arial" font-size="14.00" fill="#000000">server/streams/dispatchedActions</text>
</g>
<!-- methods/server/dispatchAction&#45;&gt;server/streams/dispatchedActions -->
<g id="edge1" class="edge"><title>methods/server/dispatchAction&#45;&gt;server/streams/dispatchedActions</title>
<path fill="none" stroke="#757575" d="M209.415,-290.326C262.579,-279.15 335.871,-263.743 391.614,-252.026"/>
<polygon fill="#757575" stroke="#757575" points="392.39,-255.439 401.456,-249.957 390.95,-248.589 392.39,-255.439"/>
</g>
<!-- server/listeners/dispatchActionsToStore -->
<g id="node3" class="node"><title>server/listeners/dispatchActionsToStore</title>
<ellipse fill="none" stroke="#111111" cx="472.607" cy="-306" rx="175.975" ry="18"/>
<text text-anchor="middle" x="472.607" y="-302.849" font-family="Arial" font-size="14.00" fill="#111111">server/listeners/dispatchActionsToStore</text>
</g>
<!-- server/listeners/dispatchActionsToStore&#45;&gt;server/streams/dispatchedActions -->
<g id="edge2" class="edge"><title>server/listeners/dispatchActionsToStore&#45;&gt;server/streams/dispatchedActions</title>
<path fill="none" stroke="#757575" d="M472.607,-287.697C472.607,-279.983 472.607,-270.712 472.607,-262.112"/>
<polygon fill="#757575" stroke="#757575" points="476.107,-262.104 472.607,-252.104 469.107,-262.104 476.107,-262.104"/>
</g>
<!-- store -->
<g id="node4" class="node"><title>store</title>
<ellipse fill="none" stroke="#111111" cx="832.607" cy="-234" rx="31.9343" ry="18"/>
<text text-anchor="middle" x="832.607" y="-230.849" font-family="Arial" font-size="14.00" fill="#111111">store</text>
</g>
<!-- server/listeners/dispatchActionsToStore&#45;&gt;store -->
<g id="edge3" class="edge"><title>server/listeners/dispatchActionsToStore&#45;&gt;store</title>
<path fill="none" stroke="#757575" d="M582.342,-291.879C643.404,-283.25 720.42,-270.158 787.607,-252 791.016,-251.079 794.526,-249.998 798.011,-248.836"/>
<polygon fill="#757575" stroke="#757575" points="799.41,-252.053 807.662,-245.409 797.068,-245.457 799.41,-252.053"/>
</g>
<!-- store/reducers/root -->
<g id="node10" class="node"><title>store/reducers/root</title>
<ellipse fill="none" stroke="#111111" cx="832.607" cy="-162" rx="89.6971" ry="18"/>
<text text-anchor="middle" x="832.607" y="-158.849" font-family="Arial" font-size="14.00" fill="#111111">store/reducers/root</text>
</g>
<!-- store&#45;&gt;store/reducers/root -->
<g id="edge17" class="edge"><title>store&#45;&gt;store/reducers/root</title>
<path fill="none" stroke="#757575" d="M832.607,-215.697C832.607,-207.983 832.607,-198.712 832.607,-190.112"/>
<polygon fill="#757575" stroke="#757575" points="836.107,-190.104 832.607,-180.104 829.107,-190.104 836.107,-190.104"/>
</g>
<!-- server/main -->
<g id="node5" class="node"><title>server/main</title>
<ellipse fill="none" stroke="#111111" cx="652.607" cy="-378" rx="59.9775" ry="18"/>
<text text-anchor="middle" x="652.607" y="-374.849" font-family="Arial" font-size="14.00" fill="#111111">server/main</text>
</g>
<!-- server/main&#45;&gt;methods/server/dispatchAction -->
<g id="edge4" class="edge"><title>server/main&#45;&gt;methods/server/dispatchAction</title>
<path fill="none" stroke="#757575" d="M599.159,-369.707C514.796,-358.195 349.317,-335.615 241.664,-320.926"/>
<polygon fill="#757575" stroke="#757575" points="242.136,-317.458 231.755,-319.574 241.19,-324.394 242.136,-317.458"/>
</g>
<!-- server/main&#45;&gt;server/listeners/dispatchActionsToStore -->
<g id="edge5" class="edge"><title>server/main&#45;&gt;server/listeners/dispatchActionsToStore</title>
<path fill="none" stroke="#757575" d="M617.474,-363.337C591.07,-353.069 554.479,-338.839 524.678,-327.25"/>
<polygon fill="#757575" stroke="#757575" points="525.851,-323.951 515.263,-323.588 523.314,-330.475 525.851,-323.951"/>
</g>
<!-- server/publications/processedActions -->
<g id="node6" class="node"><title>server/publications/processedActions</title>
<ellipse fill="#ee6666" stroke="#111111" cx="832.607" cy="-306" rx="166.139" ry="18"/>
<text text-anchor="middle" x="832.607" y="-302.849" font-family="Arial" font-size="14.00" fill="#111111">server/publications/processedActions</text>
</g>
<!-- server/main&#45;&gt;server/publications/processedActions -->
<g id="edge6" class="edge"><title>server/main&#45;&gt;server/publications/processedActions</title>
<path fill="none" stroke="#757575" d="M687.74,-363.337C714.236,-353.033 750.991,-338.74 780.848,-327.128"/>
<polygon fill="#757575" stroke="#757575" points="782.226,-330.348 790.278,-323.461 779.689,-323.824 782.226,-330.348"/>
</g>
<!-- server/streams/storeStateStream -->
<g id="node7" class="node"><title>server/streams/storeStateStream</title>
<ellipse fill="none" stroke="#111111" cx="1165.61" cy="-306" rx="149.022" ry="18"/>
<text text-anchor="middle" x="1165.61" y="-302.849" font-family="Arial" font-size="14.00" fill="#111111">server/streams/storeStateStream</text>
</g>
<!-- server/main&#45;&gt;server/streams/storeStateStream -->
<g id="edge7" class="edge"><title>server/main&#45;&gt;server/streams/storeStateStream</title>
<path fill="none" stroke="#757575" d="M706.055,-369.707C789.671,-358.297 952.974,-336.014 1060.68,-321.318"/>
<polygon fill="#757575" stroke="#757575" points="1061.16,-324.784 1070.6,-319.964 1060.22,-317.848 1061.16,-324.784"/>
</g>
<!-- server/publications/processedActions&#45;&gt;server/streams/dispatchedActions -->
<g id="edge8" class="edge"><title>server/publications/processedActions&#45;&gt;server/streams/dispatchedActions</title>
<path fill="none" stroke="#757575" d="M755.378,-289.983C697.351,-278.7 617.895,-263.25 557.982,-251.601"/>
<polygon fill="#757575" stroke="#757575" points="558.649,-248.165 548.165,-249.692 557.313,-255.036 558.649,-248.165"/>
</g>
<!-- server/publications/processedActions&#45;&gt;store -->
<g id="edge9" class="edge"><title>server/publications/processedActions&#45;&gt;store</title>
<path fill="none" stroke="#757575" d="M832.607,-287.697C832.607,-279.983 832.607,-270.712 832.607,-262.112"/>
<polygon fill="#757575" stroke="#757575" points="836.107,-262.104 832.607,-252.104 829.107,-262.104 836.107,-262.104"/>
</g>
<!-- server/streams/storeStateStream&#45;&gt;store -->
<g id="edge10" class="edge"><title>server/streams/storeStateStream&#45;&gt;store</title>
<path fill="none" stroke="#757575" d="M1094.58,-290.069C1026.57,-275.773 926.458,-254.729 871.784,-243.235"/>
<polygon fill="#757575" stroke="#757575" points="872.306,-239.769 861.8,-241.137 870.866,-246.619 872.306,-239.769"/>
</g>
<!-- store/actions -->
<g id="node8" class="node"><title>store/actions</title>
<ellipse fill="none" stroke="#111111" cx="714.607" cy="-234" rx="64.3793" ry="18"/>
<text text-anchor="middle" x="714.607" y="-230.849" font-family="Arial" font-size="14.00" fill="#111111">store/actions</text>
</g>
<!-- store/reducers/game -->
<g id="node9" class="node"><title>store/reducers/game</title>
<ellipse fill="none" stroke="#111111" cx="634.607" cy="-90" rx="97.3647" ry="18"/>
<text text-anchor="middle" x="634.607" y="-86.8493" font-family="Arial" font-size="14.00" fill="#111111">store/reducers/game</text>
</g>
<!-- store/actions&#45;&gt;store/reducers/game -->
<g id="edge11" class="edge"><title>store/actions&#45;&gt;store/reducers/game</title>
<path fill="none" stroke="#757575" d="M705.116,-216.153C691.297,-191.625 665.519,-145.869 649.254,-116.999"/>
<polygon fill="#757575" stroke="#757575" points="652.293,-115.262 644.335,-108.268 646.194,-118.698 652.293,-115.262"/>
</g>
<!-- store/actions&#45;&gt;store/reducers/root -->
<g id="edge12" class="edge"><title>store/actions&#45;&gt;store/reducers/root</title>
<path fill="none" stroke="#757575" d="M740.795,-217.465C757.1,-207.792 778.307,-195.212 796.231,-184.579"/>
<polygon fill="#757575" stroke="#757575" points="798.447,-187.334 805.262,-179.222 794.876,-181.313 798.447,-187.334"/>
</g>
<!-- store/reducers/round -->
<g id="node11" class="node"><title>store/reducers/round</title>
<ellipse fill="none" stroke="#000000" cx="847.607" cy="-90" rx="97.923" ry="18"/>
<text text-anchor="middle" x="847.607" y="-86.8493" font-family="Arial" font-size="14.00" fill="#000000">store/reducers/round</text>
</g>
<!-- store/actions&#45;&gt;store/reducers/round -->
<g id="edge13" class="edge"><title>store/actions&#45;&gt;store/reducers/round</title>
<path fill="none" stroke="#757575" d="M713.936,-215.69C714.086,-196.22 717.161,-164.633 733.607,-144 746.292,-128.085 764.861,-116.733 783.345,-108.73"/>
<polygon fill="#757575" stroke="#757575" points="784.719,-111.95 792.677,-104.955 782.094,-105.46 784.719,-111.95"/>
</g>
<!-- store/reducers/createStatefulImmutableReducer -->
<g id="node12" class="node"><title>store/reducers/createStatefulImmutableReducer</title>
<ellipse fill="none" stroke="#000000" cx="634.607" cy="-18" rx="211.215" ry="18"/>
<text text-anchor="middle" x="634.607" y="-14.8493" font-family="Arial" font-size="14.00" fill="#000000">store/reducers/createStatefulImmutableReducer</text>
</g>
<!-- store/reducers/game&#45;&gt;store/reducers/createStatefulImmutableReducer -->
<g id="edge14" class="edge"><title>store/reducers/game&#45;&gt;store/reducers/createStatefulImmutableReducer</title>
<path fill="none" stroke="#757575" d="M634.607,-71.6966C634.607,-63.9827 634.607,-54.7125 634.607,-46.1124"/>
<polygon fill="#757575" stroke="#757575" points="638.107,-46.1043 634.607,-36.1043 631.107,-46.1044 638.107,-46.1043"/>
</g>
<!-- store/reducers/root&#45;&gt;store/reducers/game -->
<g id="edge15" class="edge"><title>store/reducers/root&#45;&gt;store/reducers/game</title>
<path fill="none" stroke="#757575" d="M790.131,-145.983C760.061,-135.353 719.529,-121.023 687.382,-109.658"/>
<polygon fill="#757575" stroke="#757575" points="688.291,-106.267 677.696,-106.233 685.957,-112.867 688.291,-106.267"/>
</g>
<!-- store/reducers/root&#45;&gt;store/reducers/round -->
<g id="edge16" class="edge"><title>store/reducers/root&#45;&gt;store/reducers/round</title>
<path fill="none" stroke="#757575" d="M836.315,-143.697C837.968,-135.983 839.954,-126.712 841.797,-118.112"/>
<polygon fill="#757575" stroke="#757575" points="845.269,-118.616 843.942,-108.104 838.424,-117.149 845.269,-118.616"/>
</g>
</g>
</svg>
