<?xml version="1.0" encoding="UTF-8" standalone="no"?>
<!DOCTYPE svg PUBLIC "-//W3C//DTD SVG 1.1//EN"
 "http://www.w3.org/Graphics/SVG/1.1/DTD/svg11.dtd">
<!-- Generated by graphviz version 2.38.0 (20140413.2041)
 -->
<!-- Title: G Pages: 1 -->
<svg width="1468pt" height="556pt"
 viewBox="0.00 0.00 1468.47 555.98" xmlns="http://www.w3.org/2000/svg" xmlns:xlink="http://www.w3.org/1999/xlink">
<g id="graph0" class="graph" transform="scale(1 1) rotate(0) translate(7.992 547.992)">
<title>G</title>
<polygon fill="#ffffff" stroke="none" points="-7.992,7.992 -7.992,-547.992 1460.48,-547.992 1460.48,7.992 -7.992,7.992"/>
<!-- client/listeners/dispatchClientActions -->
<g id="node1" class="node"><title>client/listeners/dispatchClientActions</title>
<ellipse fill="none" stroke="#111111" cx="716.127" cy="-306" rx="163.345" ry="18"/>
<text text-anchor="middle" x="716.127" y="-302.849" font-family="Arial" font-size="14.00" fill="#111111">client/listeners/dispatchClientActions</text>
</g>
<!-- client/methods/dispatchAction -->
<g id="node2" class="node"><title>client/methods/dispatchAction</title>
<ellipse fill="none" stroke="#000000" cx="696.127" cy="-234" rx="135.349" ry="18"/>
<text text-anchor="middle" x="696.127" y="-230.849" font-family="Arial" font-size="14.00" fill="#000000">client/methods/dispatchAction</text>
</g>
<!-- client/listeners/dispatchClientActions&#45;&gt;client/methods/dispatchAction -->
<g id="edge1" class="edge"><title>client/listeners/dispatchClientActions&#45;&gt;client/methods/dispatchAction</title>
<path fill="none" stroke="#757575" d="M711.184,-287.697C708.955,-279.898 706.273,-270.509 703.793,-261.829"/>
<polygon fill="#757575" stroke="#757575" points="707.127,-260.758 701.014,-252.104 700.396,-262.681 707.127,-260.758"/>
</g>
<!-- client/streams/clientActionsStream -->
<g id="node3" class="node"><title>client/streams/clientActionsStream</title>
<ellipse fill="none" stroke="#000000" cx="1004.13" cy="-234" rx="154.552" ry="18"/>
<text text-anchor="middle" x="1004.13" y="-230.849" font-family="Arial" font-size="14.00" fill="#000000">client/streams/clientActionsStream</text>
</g>
<!-- client/listeners/dispatchClientActions&#45;&gt;client/streams/clientActionsStream -->
<g id="edge2" class="edge"><title>client/listeners/dispatchClientActions&#45;&gt;client/streams/clientActionsStream</title>
<path fill="none" stroke="#757575" d="M780.402,-289.378C824.883,-278.566 884.185,-264.153 930.558,-252.882"/>
<polygon fill="#757575" stroke="#757575" points="931.655,-256.217 940.546,-250.454 930.002,-249.415 931.655,-256.217"/>
</g>
<!-- store -->
<g id="node4" class="node"><title>store</title>
<ellipse fill="none" stroke="#111111" cx="511.127" cy="-234" rx="31.9343" ry="18"/>
<text text-anchor="middle" x="511.127" y="-230.849" font-family="Arial" font-size="14.00" fill="#111111">store</text>
</g>
<!-- client/listeners/dispatchClientActions&#45;&gt;store -->
<g id="edge3" class="edge"><title>client/listeners/dispatchClientActions&#45;&gt;store</title>
<path fill="none" stroke="#757575" d="M662.577,-288.889C630.351,-278.898 588.63,-265.441 552.127,-252 549.87,-251.169 547.553,-250.287 545.226,-249.381"/>
<polygon fill="#757575" stroke="#757575" points="546.301,-246.041 535.717,-245.572 543.699,-252.539 546.301,-246.041"/>
</g>
<!-- store/reducers/root -->
<g id="node15" class="node"><title>store/reducers/root</title>
<ellipse fill="none" stroke="#111111" cx="1043.13" cy="-162" rx="89.6971" ry="18"/>
<text text-anchor="middle" x="1043.13" y="-158.849" font-family="Arial" font-size="14.00" fill="#111111">store/reducers/root</text>
</g>
<!-- store&#45;&gt;store/reducers/root -->
<g id="edge25" class="edge"><title>store&#45;&gt;store/reducers/root</title>
<path fill="none" stroke="#757575" d="M535.017,-221.757C540.535,-219.538 546.454,-217.451 552.127,-216 685.239,-181.97 844.093,-169.776 944.305,-165.415"/>
<polygon fill="#757575" stroke="#757575" points="944.574,-168.907 954.419,-164.993 944.282,-161.913 944.574,-168.907"/>
</g>
<!-- store/epics/round -->
<g id="node17" class="node"><title>store/epics/round</title>
<ellipse fill="none" stroke="#111111" cx="661.127" cy="-162" rx="83.0967" ry="18"/>
<text text-anchor="middle" x="661.127" y="-158.849" font-family="Arial" font-size="14.00" fill="#111111">store/epics/round</text>
</g>
<!-- store&#45;&gt;store/epics/round -->
<g id="edge24" class="edge"><title>store&#45;&gt;store/epics/round</title>
<path fill="none" stroke="#757575" d="M534.895,-221.908C557.286,-211.459 591.346,-195.565 618.446,-182.918"/>
<polygon fill="#757575" stroke="#757575" points="620.128,-185.995 627.71,-178.595 617.168,-179.652 620.128,-185.995"/>
</g>
<!-- client/listeners/dispatchServerActions -->
<g id="node5" class="node"><title>client/listeners/dispatchServerActions</title>
<ellipse fill="none" stroke="#111111" cx="487.127" cy="-450" rx="166.67" ry="18"/>
<text text-anchor="middle" x="487.127" y="-446.849" font-family="Arial" font-size="14.00" fill="#111111">client/listeners/dispatchServerActions</text>
</g>
<!-- client/listeners/dispatchServerActions&#45;&gt;store -->
<g id="edge5" class="edge"><title>client/listeners/dispatchServerActions&#45;&gt;store</title>
<path fill="none" stroke="#757575" d="M489.051,-431.849C493.202,-394.832 503.032,-307.181 508.056,-262.386"/>
<polygon fill="#757575" stroke="#757575" points="511.558,-262.56 509.195,-252.232 504.602,-261.78 511.558,-262.56"/>
</g>
<!-- client/streams/serverActionsStream -->
<g id="node6" class="node"><title>client/streams/serverActionsStream</title>
<ellipse fill="none" stroke="#000000" cx="225.127" cy="-378" rx="158.916" ry="18"/>
<text text-anchor="middle" x="225.127" y="-374.849" font-family="Arial" font-size="14.00" fill="#000000">client/streams/serverActionsStream</text>
</g>
<!-- client/listeners/dispatchServerActions&#45;&gt;client/streams/serverActionsStream -->
<g id="edge4" class="edge"><title>client/listeners/dispatchServerActions&#45;&gt;client/streams/serverActionsStream</title>
<path fill="none" stroke="#757575" d="M427.676,-433.116C387.98,-422.51 335.641,-408.527 294.112,-397.431"/>
<polygon fill="#757575" stroke="#757575" points="294.909,-394.021 284.344,-394.821 293.102,-400.784 294.909,-394.021"/>
</g>
<!-- client/main -->
<g id="node7" class="node"><title>client/main</title>
<ellipse fill="none" stroke="#111111" cx="441.127" cy="-522" rx="55.6138" ry="18"/>
<text text-anchor="middle" x="441.127" y="-518.849" font-family="Arial" font-size="14.00" fill="#111111">client/main</text>
</g>
<!-- client/router -->
<g id="node8" class="node"><title>client/router</title>
<ellipse fill="none" stroke="#111111" cx="732.127" cy="-450" rx="59.9959" ry="18"/>
<text text-anchor="middle" x="732.127" y="-446.849" font-family="Arial" font-size="14.00" fill="#111111">client/router</text>
</g>
<!-- client/main&#45;&gt;client/router -->
<g id="edge6" class="edge"><title>client/main&#45;&gt;client/router</title>
<path fill="none" stroke="#757575" d="M484.957,-510.635C529.753,-500.018 601.322,-482.991 663.127,-468 667.755,-466.878 672.555,-465.707 677.371,-464.529"/>
<polygon fill="#757575" stroke="#757575" points="678.349,-467.893 687.228,-462.112 676.682,-461.094 678.349,-467.893"/>
</g>
<!-- client/subscribeProcessedActions -->
<g id="node9" class="node"><title>client/subscribeProcessedActions</title>
<ellipse fill="#E8ECF5" stroke="#111111" cx="151.127" cy="-450" rx="151.255" ry="18"/>
<text text-anchor="middle" x="151.127" y="-446.849" font-family="Arial" font-size="14.00" fill="#111111">client/subscribeProcessedActions</text>
</g>
<!-- client/main&#45;&gt;client/subscribeProcessedActions -->
<g id="edge7" class="edge"><title>client/main&#45;&gt;client/subscribeProcessedActions</title>
<path fill="none" stroke="#757575" d="M397.711,-510.52C352.045,-499.497 279.364,-481.954 224.717,-468.763"/>
<polygon fill="#757575" stroke="#757575" points="225.276,-465.298 214.734,-466.353 223.634,-472.102 225.276,-465.298"/>
</g>
<!-- client/router&#45;&gt;store -->
<g id="edge9" class="edge"><title>client/router&#45;&gt;store</title>
<path fill="none" stroke="#757575" d="M698.927,-434.868C657.272,-415.561 586.211,-377.168 544.127,-324 529.716,-305.793 521.172,-280.665 516.402,-261.752"/>
<polygon fill="#757575" stroke="#757575" points="519.8,-260.915 514.127,-251.967 512.982,-262.5 519.8,-260.915"/>
</g>
<!-- components/TriviaApp -->
<g id="node10" class="node"><title>components/TriviaApp</title>
<ellipse fill="none" stroke="#111111" cx="1004.13" cy="-378" rx="104.333" ry="18"/>
<text text-anchor="middle" x="1004.13" y="-374.849" font-family="Arial" font-size="14.00" fill="#111111">components/TriviaApp</text>
</g>
<!-- client/router&#45;&gt;components/TriviaApp -->
<g id="edge8" class="edge"><title>client/router&#45;&gt;components/TriviaApp</title>
<path fill="none" stroke="#757575" d="M776.131,-437.675C820.11,-426.357 888.251,-408.821 938.594,-395.865"/>
<polygon fill="#757575" stroke="#757575" points="939.6,-399.22 948.412,-393.338 937.856,-392.441 939.6,-399.22"/>
</g>
<!-- client/subscribeProcessedActions&#45;&gt;client/streams/serverActionsStream -->
<g id="edge10" class="edge"><title>client/subscribeProcessedActions&#45;&gt;client/streams/serverActionsStream</title>
<path fill="none" stroke="#757575" d="M169.041,-432.055C178.244,-423.349 189.617,-412.591 199.71,-403.043"/>
<polygon fill="#757575" stroke="#757575" points="202.263,-405.446 207.123,-396.032 197.453,-400.361 202.263,-405.446"/>
</g>
<!-- components/Game -->
<g id="node11" class="node"><title>components/Game</title>
<ellipse fill="none" stroke="#111111" cx="1205.13" cy="-306" rx="90.2552" ry="18"/>
<text text-anchor="middle" x="1205.13" y="-302.849" font-family="Arial" font-size="14.00" fill="#111111">components/Game</text>
</g>
<!-- components/TriviaApp&#45;&gt;components/Game -->
<g id="edge15" class="edge"><title>components/TriviaApp&#45;&gt;components/Game</title>
<path fill="none" stroke="#757575" d="M1048.24,-361.638C1078.92,-350.952 1119.98,-336.654 1152.39,-325.365"/>
<polygon fill="#757575" stroke="#757575" points="1153.86,-328.56 1162.16,-321.965 1151.56,-321.949 1153.86,-328.56"/>
</g>
<!-- components/Round -->
<g id="node13" class="node"><title>components/Round</title>
<ellipse fill="none" stroke="#111111" cx="1004.13" cy="-306" rx="92.4694" ry="18"/>
<text text-anchor="middle" x="1004.13" y="-302.849" font-family="Arial" font-size="14.00" fill="#111111">components/Round</text>
</g>
<!-- components/TriviaApp&#45;&gt;components/Round -->
<g id="edge16" class="edge"><title>components/TriviaApp&#45;&gt;components/Round</title>
<path fill="none" stroke="#757575" d="M1004.13,-359.697C1004.13,-351.983 1004.13,-342.712 1004.13,-334.112"/>
<polygon fill="#757575" stroke="#757575" points="1007.63,-334.104 1004.13,-324.104 1000.63,-334.104 1007.63,-334.104"/>
</g>
<!-- components/Game&#45;&gt;client/streams/clientActionsStream -->
<g id="edge11" class="edge"><title>components/Game&#45;&gt;client/streams/clientActionsStream</title>
<path fill="none" stroke="#757575" d="M1162.01,-289.983C1132.32,-279.644 1092.58,-265.806 1060.4,-254.599"/>
<polygon fill="#757575" stroke="#757575" points="1061.27,-251.196 1050.68,-251.212 1058.97,-257.806 1061.27,-251.196"/>
</g>
<!-- store/actions -->
<g id="node12" class="node"><title>store/actions</title>
<ellipse fill="none" stroke="#111111" cx="1241.13" cy="-234" rx="64.3793" ry="18"/>
<text text-anchor="middle" x="1241.13" y="-230.849" font-family="Arial" font-size="14.00" fill="#111111">store/actions</text>
</g>
<!-- components/Game&#45;&gt;store/actions -->
<g id="edge12" class="edge"><title>components/Game&#45;&gt;store/actions</title>
<path fill="none" stroke="#757575" d="M1213.84,-288.055C1217.98,-280.007 1223.02,-270.205 1227.64,-261.226"/>
<polygon fill="#757575" stroke="#757575" points="1230.78,-262.769 1232.24,-252.275 1224.56,-259.567 1230.78,-262.769"/>
</g>
<!-- store/reducers/game -->
<g id="node14" class="node"><title>store/reducers/game</title>
<ellipse fill="none" stroke="#111111" cx="1241.13" cy="-90" rx="97.3647" ry="18"/>
<text text-anchor="middle" x="1241.13" y="-86.8493" font-family="Arial" font-size="14.00" fill="#111111">store/reducers/game</text>
</g>
<!-- store/actions&#45;&gt;store/reducers/game -->
<g id="edge17" class="edge"><title>store/actions&#45;&gt;store/reducers/game</title>
<path fill="none" stroke="#757575" d="M1241.13,-215.871C1241.13,-191.67 1241.13,-147.211 1241.13,-118.393"/>
<polygon fill="#757575" stroke="#757575" points="1244.63,-118.189 1241.13,-108.189 1237.63,-118.189 1244.63,-118.189"/>
</g>
<!-- store/actions&#45;&gt;store/reducers/root -->
<g id="edge18" class="edge"><title>store/actions&#45;&gt;store/reducers/root</title>
<path fill="none" stroke="#757575" d="M1202.95,-219.503C1172.27,-208.655 1128.86,-193.308 1095.02,-181.345"/>
<polygon fill="#757575" stroke="#757575" points="1095.89,-177.943 1085.3,-177.909 1093.56,-184.543 1095.89,-177.943"/>
</g>
<!-- store/reducers/round -->
<g id="node16" class="node"><title>store/reducers/round</title>
<ellipse fill="none" stroke="#000000" cx="1028.13" cy="-90" rx="97.923" ry="18"/>
<text text-anchor="middle" x="1028.13" y="-86.8493" font-family="Arial" font-size="14.00" fill="#000000">store/reducers/round</text>
</g>
<!-- store/actions&#45;&gt;store/reducers/round -->
<g id="edge19" class="edge"><title>store/actions&#45;&gt;store/reducers/round</title>
<path fill="none" stroke="#757575" d="M1225.56,-216.266C1207.04,-197.041 1174.53,-165.399 1142.13,-144 1122.23,-130.856 1098.55,-119.277 1077.94,-110.322"/>
<polygon fill="#757575" stroke="#757575" points="1079.28,-107.09 1068.71,-106.396 1076.54,-113.531 1079.28,-107.09"/>
</g>
<!-- components/Round&#45;&gt;client/streams/clientActionsStream -->
<g id="edge13" class="edge"><title>components/Round&#45;&gt;client/streams/clientActionsStream</title>
<path fill="none" stroke="#757575" d="M1004.13,-287.697C1004.13,-279.983 1004.13,-270.712 1004.13,-262.112"/>
<polygon fill="#757575" stroke="#757575" points="1007.63,-262.104 1004.13,-252.104 1000.63,-262.104 1007.63,-262.104"/>
</g>
<!-- components/Round&#45;&gt;store/actions -->
<g id="edge14" class="edge"><title>components/Round&#45;&gt;store/actions</title>
<path fill="none" stroke="#757575" d="M1052.66,-290.666C1092.32,-278.952 1148.27,-262.426 1188.9,-250.426"/>
<polygon fill="#757575" stroke="#757575" points="1190.02,-253.745 1198.62,-247.555 1188.04,-247.031 1190.02,-253.745"/>
</g>
<!-- store/reducers/createStatefulImmutableReducer -->
<g id="node18" class="node"><title>store/reducers/createStatefulImmutableReducer</title>
<ellipse fill="none" stroke="#000000" cx="1241.13" cy="-18" rx="211.215" ry="18"/>
<text text-anchor="middle" x="1241.13" y="-14.8493" font-family="Arial" font-size="14.00" fill="#000000">store/reducers/createStatefulImmutableReducer</text>
</g>
<!-- store/reducers/game&#45;&gt;store/reducers/createStatefulImmutableReducer -->
<g id="edge21" class="edge"><title>store/reducers/game&#45;&gt;store/reducers/createStatefulImmutableReducer</title>
<path fill="none" stroke="#757575" d="M1241.13,-71.6966C1241.13,-63.9827 1241.13,-54.7125 1241.13,-46.1124"/>
<polygon fill="#757575" stroke="#757575" points="1244.63,-46.1043 1241.13,-36.1043 1237.63,-46.1044 1244.63,-46.1043"/>
</g>
<!-- store/reducers/root&#45;&gt;store/reducers/game -->
<g id="edge22" class="edge"><title>store/reducers/root&#45;&gt;store/reducers/game</title>
<path fill="none" stroke="#757575" d="M1085.6,-145.983C1115.67,-135.353 1156.2,-121.023 1188.35,-109.658"/>
<polygon fill="#757575" stroke="#757575" points="1189.78,-112.867 1198.04,-106.233 1187.44,-106.267 1189.78,-112.867"/>
</g>
<!-- store/reducers/root&#45;&gt;store/reducers/round -->
<g id="edge23" class="edge"><title>store/reducers/root&#45;&gt;store/reducers/round</title>
<path fill="none" stroke="#757575" d="M1039.42,-143.697C1037.77,-135.983 1035.78,-126.712 1033.94,-118.112"/>
<polygon fill="#757575" stroke="#757575" points="1037.31,-117.149 1031.79,-108.104 1030.47,-118.616 1037.31,-117.149"/>
</g>
<!-- store/epics/round&#45;&gt;store/reducers/round -->
<g id="edge20" class="edge"><title>store/epics/round&#45;&gt;store/reducers/round</title>
<path fill="none" stroke="#757575" d="M721.319,-149.519C784.699,-137.431 884.606,-118.375 953.083,-105.314"/>
<polygon fill="#757575" stroke="#757575" points="953.783,-108.743 962.95,-103.432 952.472,-101.867 953.783,-108.743"/>
</g>
</g>
</svg>
