<?xml version="1.0" encoding="UTF-8" standalone="no"?>
<!DOCTYPE svg PUBLIC "-//W3C//DTD SVG 1.1//EN"
 "http://www.w3.org/Graphics/SVG/1.1/DTD/svg11.dtd">
<!-- Generated by graphviz version 2.38.0 (20140413.2041)
 -->
<!-- Title: G Pages: 1 -->
<svg width="1621pt" height="412pt"
 viewBox="0.00 0.00 1620.95 411.98" xmlns="http://www.w3.org/2000/svg" xmlns:xlink="http://www.w3.org/1999/xlink">
<g id="graph0" class="graph" transform="scale(1 1) rotate(0) translate(7.992 403.992)">
<title>G</title>
<polygon fill="#ffffff" stroke="none" points="-7.992,7.992 -7.992,-403.992 1612.96,-403.992 1612.96,7.992 -7.992,7.992"/>
<!-- methods/server/dispatchAction -->
<g id="node1" class="node"><title>methods/server/dispatchAction</title>
<ellipse fill="none" stroke="#111111" cx="139.607" cy="-306" rx="139.714" ry="18"/>
<text text-anchor="middle" x="139.607" y="-302.849" font-family="Arial" font-size="14.00" fill="#111111">methods/server/dispatchAction</text>
</g>
<!-- server/streams/dispatchedActions -->
<g id="node2" class="node"><title>server/streams/dispatchedActions</title>
<ellipse fill="none" stroke="#000000" cx="305.607" cy="-234" rx="152.335" ry="18"/>
<text text-anchor="middle" x="305.607" y="-230.849" font-family="Arial" font-size="14.00" fill="#000000">server/streams/dispatchedActions</text>
</g>
<!-- methods/server/dispatchAction&#45;&gt;server/streams/dispatchedActions -->
<g id="edge1" class="edge"><title>methods/server/dispatchAction&#45;&gt;server/streams/dispatchedActions</title>
<path fill="none" stroke="#757575" d="M178.526,-288.588C202.064,-278.663 232.265,-265.927 257.318,-255.363"/>
<polygon fill="#757575" stroke="#757575" points="258.789,-258.541 266.644,-251.43 256.07,-252.091 258.789,-258.541"/>
</g>
<!-- server/listeners/dispatchActionsToStore -->
<g id="node3" class="node"><title>server/listeners/dispatchActionsToStore</title>
<ellipse fill="none" stroke="#111111" cx="472.607" cy="-306" rx="175.975" ry="18"/>
<text text-anchor="middle" x="472.607" y="-302.849" font-family="Arial" font-size="14.00" fill="#111111">server/listeners/dispatchActionsToStore</text>
</g>
<!-- server/listeners/dispatchActionsToStore&#45;&gt;server/streams/dispatchedActions -->
<g id="edge2" class="edge"><title>server/listeners/dispatchActionsToStore&#45;&gt;server/streams/dispatchedActions</title>
<path fill="none" stroke="#757575" d="M433.03,-288.411C409.425,-278.516 379.272,-265.878 354.225,-255.379"/>
<polygon fill="#757575" stroke="#757575" points="355.475,-252.108 344.899,-251.47 352.769,-258.564 355.475,-252.108"/>
</g>
<!-- store -->
<g id="node4" class="node"><title>store</title>
<ellipse fill="none" stroke="#111111" cx="904.607" cy="-234" rx="31.9343" ry="18"/>
<text text-anchor="middle" x="904.607" y="-230.849" font-family="Arial" font-size="14.00" fill="#111111">store</text>
</g>
<!-- server/listeners/dispatchActionsToStore&#45;&gt;store -->
<g id="edge3" class="edge"><title>server/listeners/dispatchActionsToStore&#45;&gt;store</title>
<path fill="none" stroke="#757575" d="M562.117,-290.496C654.971,-275.45 795.975,-252.602 864.462,-241.505"/>
<polygon fill="#757575" stroke="#757575" points="865.108,-244.946 874.42,-239.891 863.989,-238.036 865.108,-244.946"/>
</g>
<!-- server/streams/expandedActions -->
<g id="node8" class="node"><title>server/streams/expandedActions</title>
<ellipse fill="none" stroke="#000000" cx="981.607" cy="-162" rx="147.97" ry="18"/>
<text text-anchor="middle" x="981.607" y="-158.849" font-family="Arial" font-size="14.00" fill="#000000">server/streams/expandedActions</text>
</g>
<!-- store&#45;&gt;server/streams/expandedActions -->
<g id="edge20" class="edge"><title>store&#45;&gt;server/streams/expandedActions</title>
<path fill="none" stroke="#757575" d="M920.937,-218.155C930.908,-209.09 943.889,-197.289 955.284,-186.93"/>
<polygon fill="#757575" stroke="#757575" points="957.818,-189.357 962.863,-180.04 953.109,-184.177 957.818,-189.357"/>
</g>
<!-- store/reducers/root -->
<g id="node11" class="node"><title>store/reducers/root</title>
<ellipse fill="none" stroke="#111111" cx="1237.61" cy="-162" rx="89.6971" ry="18"/>
<text text-anchor="middle" x="1237.61" y="-158.849" font-family="Arial" font-size="14.00" fill="#111111">store/reducers/root</text>
</g>
<!-- store&#45;&gt;store/reducers/root -->
<g id="edge19" class="edge"><title>store&#45;&gt;store/reducers/root</title>
<path fill="none" stroke="#757575" d="M933.866,-226.849C985.858,-215.92 1095.66,-192.838 1168.02,-177.629"/>
<polygon fill="#757575" stroke="#757575" points="1168.9,-181.019 1177.97,-175.537 1167.46,-174.169 1168.9,-181.019"/>
</g>
<!-- store/epics/round -->
<g id="node13" class="node"><title>store/epics/round</title>
<ellipse fill="none" stroke="#111111" cx="732.607" cy="-162" rx="83.0967" ry="18"/>
<text text-anchor="middle" x="732.607" y="-158.849" font-family="Arial" font-size="14.00" fill="#111111">store/epics/round</text>
</g>
<!-- store&#45;&gt;store/epics/round -->
<g id="edge18" class="edge"><title>store&#45;&gt;store/epics/round</title>
<path fill="none" stroke="#757575" d="M879.597,-222.821C853.393,-212.157 811.626,-195.159 779.3,-182.003"/>
<polygon fill="#757575" stroke="#757575" points="780.608,-178.757 770.027,-178.229 777.97,-185.24 780.608,-178.757"/>
</g>
<!-- server/main -->
<g id="node5" class="node"><title>server/main</title>
<ellipse fill="none" stroke="#111111" cx="643.607" cy="-378" rx="59.9775" ry="18"/>
<text text-anchor="middle" x="643.607" y="-374.849" font-family="Arial" font-size="14.00" fill="#111111">server/main</text>
</g>
<!-- server/main&#45;&gt;methods/server/dispatchAction -->
<g id="edge4" class="edge"><title>server/main&#45;&gt;methods/server/dispatchAction</title>
<path fill="none" stroke="#757575" d="M590.147,-369.575C507.194,-358.054 346.074,-335.676 240.694,-321.04"/>
<polygon fill="#757575" stroke="#757575" points="241.061,-317.557 230.674,-319.648 240.098,-324.491 241.061,-317.557"/>
</g>
<!-- server/main&#45;&gt;server/listeners/dispatchActionsToStore -->
<g id="edge5" class="edge"><title>server/main&#45;&gt;server/listeners/dispatchActionsToStore</title>
<path fill="none" stroke="#757575" d="M609.413,-363.003C584.565,-352.831 550.543,-338.904 522.644,-327.483"/>
<polygon fill="#757575" stroke="#757575" points="523.637,-324.108 513.056,-323.558 520.985,-330.586 523.637,-324.108"/>
</g>
<!-- server/publications/processedActions -->
<g id="node6" class="node"><title>server/publications/processedActions</title>
<ellipse fill="none" stroke="#111111" cx="1148.61" cy="-306" rx="166.139" ry="18"/>
<text text-anchor="middle" x="1148.61" y="-302.849" font-family="Arial" font-size="14.00" fill="#111111">server/publications/processedActions</text>
</g>
<!-- server/main&#45;&gt;server/publications/processedActions -->
<g id="edge6" class="edge"><title>server/main&#45;&gt;server/publications/processedActions</title>
<path fill="none" stroke="#757575" d="M697.173,-369.575C778.569,-358.292 935.077,-336.598 1040.69,-321.959"/>
<polygon fill="#757575" stroke="#757575" points="1041.32,-325.405 1050.75,-320.565 1040.36,-318.471 1041.32,-325.405"/>
</g>
<!-- server/streams/storeStateStream -->
<g id="node7" class="node"><title>server/streams/storeStateStream</title>
<ellipse fill="none" stroke="#111111" cx="815.607" cy="-306" rx="149.022" ry="18"/>
<text text-anchor="middle" x="815.607" y="-302.849" font-family="Arial" font-size="14.00" fill="#111111">server/streams/storeStateStream</text>
</g>
<!-- server/main&#45;&gt;server/streams/storeStateStream -->
<g id="edge7" class="edge"><title>server/main&#45;&gt;server/streams/storeStateStream</title>
<path fill="none" stroke="#757575" d="M678,-363.003C703.191,-352.751 737.755,-338.684 765.94,-327.213"/>
<polygon fill="#757575" stroke="#757575" points="767.288,-330.443 775.231,-323.432 764.65,-323.96 767.288,-330.443"/>
</g>
<!-- server/publications/processedActions&#45;&gt;store -->
<g id="edge9" class="edge"><title>server/publications/processedActions&#45;&gt;store</title>
<path fill="none" stroke="#757575" d="M1092.93,-289.028C1046.77,-275.786 982.412,-257.321 942.149,-245.77"/>
<polygon fill="#757575" stroke="#757575" points="943.035,-242.383 932.457,-242.99 941.104,-249.112 943.035,-242.383"/>
</g>
<!-- server/publications/processedActions&#45;&gt;server/streams/expandedActions -->
<g id="edge8" class="edge"><title>server/publications/processedActions&#45;&gt;server/streams/expandedActions</title>
<path fill="none" stroke="#757575" d="M1128.46,-287.871C1098.67,-262.536 1042.76,-214.998 1009.18,-186.448"/>
<polygon fill="#757575" stroke="#757575" points="1011.45,-183.78 1001.56,-179.968 1006.91,-189.112 1011.45,-183.78"/>
</g>
<!-- server/streams/storeStateStream&#45;&gt;store -->
<g id="edge10" class="edge"><title>server/streams/storeStateStream&#45;&gt;store</title>
<path fill="none" stroke="#757575" d="M837.151,-288.055C849.643,-278.23 865.457,-265.792 878.634,-255.428"/>
<polygon fill="#757575" stroke="#757575" points="881.154,-257.899 886.85,-248.966 876.826,-252.397 881.154,-257.899"/>
</g>
<!-- store/actions -->
<g id="node9" class="node"><title>store/actions</title>
<ellipse fill="none" stroke="#111111" cx="1355.61" cy="-234" rx="64.3793" ry="18"/>
<text text-anchor="middle" x="1355.61" y="-230.849" font-family="Arial" font-size="14.00" fill="#111111">store/actions</text>
</g>
<!-- store/reducers/game -->
<g id="node10" class="node"><title>store/reducers/game</title>
<ellipse fill="none" stroke="#111111" cx="1393.61" cy="-90" rx="97.3647" ry="18"/>
<text text-anchor="middle" x="1393.61" y="-86.8493" font-family="Arial" font-size="14.00" fill="#111111">store/reducers/game</text>
</g>
<!-- store/actions&#45;&gt;store/reducers/game -->
<g id="edge11" class="edge"><title>store/actions&#45;&gt;store/reducers/game</title>
<path fill="none" stroke="#757575" d="M1360.19,-215.871C1366.7,-191.564 1378.67,-146.819 1386.38,-118.013"/>
<polygon fill="#757575" stroke="#757575" points="1389.8,-118.754 1389.01,-108.189 1383.04,-116.945 1389.8,-118.754"/>
</g>
<!-- store/actions&#45;&gt;store/reducers/root -->
<g id="edge12" class="edge"><title>store/actions&#45;&gt;store/reducers/root</title>
<path fill="none" stroke="#757575" d="M1329.42,-217.465C1313.11,-207.792 1291.91,-195.212 1273.98,-184.579"/>
<polygon fill="#757575" stroke="#757575" points="1275.34,-181.313 1264.95,-179.222 1271.77,-187.334 1275.34,-181.313"/>
</g>
<!-- store/reducers/round -->
<g id="node12" class="node"><title>store/reducers/round</title>
<ellipse fill="none" stroke="#000000" cx="1180.61" cy="-90" rx="97.923" ry="18"/>
<text text-anchor="middle" x="1180.61" y="-86.8493" font-family="Arial" font-size="14.00" fill="#000000">store/reducers/round</text>
</g>
<!-- store/actions&#45;&gt;store/reducers/round -->
<g id="edge13" class="edge"><title>store/actions&#45;&gt;store/reducers/round</title>
<path fill="none" stroke="#757575" d="M1356.67,-215.712C1356.92,-195.966 1354.24,-163.836 1336.61,-144 1318.83,-124.003 1293.21,-111.544 1267.86,-103.783"/>
<polygon fill="#757575" stroke="#757575" points="1268.75,-100.398 1258.17,-101.033 1266.83,-107.131 1268.75,-100.398"/>
</g>
<!-- store/reducers/createStatefulImmutableReducer -->
<g id="node14" class="node"><title>store/reducers/createStatefulImmutableReducer</title>
<ellipse fill="none" stroke="#000000" cx="1393.61" cy="-18" rx="211.215" ry="18"/>
<text text-anchor="middle" x="1393.61" y="-14.8493" font-family="Arial" font-size="14.00" fill="#000000">store/reducers/createStatefulImmutableReducer</text>
</g>
<!-- store/reducers/game&#45;&gt;store/reducers/createStatefulImmutableReducer -->
<g id="edge15" class="edge"><title>store/reducers/game&#45;&gt;store/reducers/createStatefulImmutableReducer</title>
<path fill="none" stroke="#757575" d="M1393.61,-71.6966C1393.61,-63.9827 1393.61,-54.7125 1393.61,-46.1124"/>
<polygon fill="#757575" stroke="#757575" points="1397.11,-46.1043 1393.61,-36.1043 1390.11,-46.1044 1397.11,-46.1043"/>
</g>
<!-- store/reducers/root&#45;&gt;store/reducers/game -->
<g id="edge16" class="edge"><title>store/reducers/root&#45;&gt;store/reducers/game</title>
<path fill="none" stroke="#757575" d="M1272.62,-145.291C1295.14,-135.184 1324.62,-121.957 1348.84,-111.09"/>
<polygon fill="#757575" stroke="#757575" points="1350.48,-114.186 1358.17,-106.899 1347.62,-107.8 1350.48,-114.186"/>
</g>
<!-- store/reducers/root&#45;&gt;store/reducers/round -->
<g id="edge17" class="edge"><title>store/reducers/root&#45;&gt;store/reducers/round</title>
<path fill="none" stroke="#757575" d="M1223.81,-144.055C1216.98,-135.668 1208.6,-125.376 1201.04,-116.096"/>
<polygon fill="#757575" stroke="#757575" points="1203.7,-113.82 1194.67,-108.275 1198.27,-118.24 1203.7,-113.82"/>
</g>
<!-- store/epics/round&#45;&gt;store/reducers/round -->
<g id="edge14" class="edge"><title>store/epics/round&#45;&gt;store/reducers/round</title>
<path fill="none" stroke="#757575" d="M792.929,-149.542C803.476,-147.628 814.353,-145.71 824.607,-144 916.88,-128.611 1022.98,-113.095 1095.18,-102.864"/>
<polygon fill="#757575" stroke="#757575" points="1095.72,-106.322 1105.13,-101.456 1094.74,-99.3909 1095.72,-106.322"/>
</g>
</g>
</svg>
