<?xml version="1.0" encoding="UTF-8" standalone="no"?>
<!DOCTYPE svg PUBLIC "-//W3C//DTD SVG 1.1//EN"
 "http://www.w3.org/Graphics/SVG/1.1/DTD/svg11.dtd">
<!-- Generated by graphviz version 2.38.0 (20140413.2041)
 -->
<!-- Title: G Pages: 1 -->
<svg width="1467pt" height="556pt"
 viewBox="0.00 0.00 1467.47 555.98" xmlns="http://www.w3.org/2000/svg" xmlns:xlink="http://www.w3.org/1999/xlink">
<g id="graph0" class="graph" transform="scale(1 1) rotate(0) translate(7.992 547.992)">
<title>G</title>
<polygon fill="#ffffff" stroke="none" points="-7.992,7.992 -7.992,-547.992 1459.48,-547.992 1459.48,7.992 -7.992,7.992"/>
<!-- client/listeners/dispatchClientActions -->
<g id="node1" class="node"><title>client/listeners/dispatchClientActions</title>
<ellipse fill="none" stroke="#111111" cx="735.357" cy="-306" rx="163.345" ry="18"/>
<text text-anchor="middle" x="735.357" y="-302.849" font-family="Arial" font-size="14.00" fill="#111111">client/listeners/dispatchClientActions</text>
</g>
<!-- client/streams/clientActionsStream -->
<g id="node2" class="node"><title>client/streams/clientActionsStream</title>
<ellipse fill="none" stroke="#000000" cx="448.357" cy="-234" rx="154.552" ry="18"/>
<text text-anchor="middle" x="448.357" y="-230.849" font-family="Arial" font-size="14.00" fill="#000000">client/streams/clientActionsStream</text>
</g>
<!-- client/listeners/dispatchClientActions&#45;&gt;client/streams/clientActionsStream -->
<g id="edge1" class="edge"><title>client/listeners/dispatchClientActions&#45;&gt;client/streams/clientActionsStream</title>
<path fill="none" stroke="#757575" d="M671.306,-289.378C626.979,-278.566 567.884,-264.153 521.672,-252.882"/>
<polygon fill="#757575" stroke="#757575" points="522.263,-249.423 511.718,-250.454 520.604,-256.224 522.263,-249.423"/>
</g>
<!-- methods/client/dispatchAction -->
<g id="node3" class="node"><title>methods/client/dispatchAction</title>
<ellipse fill="none" stroke="#000000" cx="756.357" cy="-234" rx="135.349" ry="18"/>
<text text-anchor="middle" x="756.357" y="-230.849" font-family="Arial" font-size="14.00" fill="#000000">methods/client/dispatchAction</text>
</g>
<!-- client/listeners/dispatchClientActions&#45;&gt;methods/client/dispatchAction -->
<g id="edge2" class="edge"><title>client/listeners/dispatchClientActions&#45;&gt;methods/client/dispatchAction</title>
<path fill="none" stroke="#757575" d="M740.548,-287.697C742.888,-279.898 745.705,-270.509 748.309,-261.829"/>
<polygon fill="#757575" stroke="#757575" points="751.705,-262.688 751.226,-252.104 745,-260.677 751.705,-262.688"/>
</g>
<!-- store -->
<g id="node4" class="node"><title>store</title>
<ellipse fill="none" stroke="#111111" cx="941.357" cy="-234" rx="31.9343" ry="18"/>
<text text-anchor="middle" x="941.357" y="-230.849" font-family="Arial" font-size="14.00" fill="#111111">store</text>
</g>
<!-- client/listeners/dispatchClientActions&#45;&gt;store -->
<g id="edge3" class="edge"><title>client/listeners/dispatchClientActions&#45;&gt;store</title>
<path fill="none" stroke="#757575" d="M789.241,-288.92C821.666,-278.939 863.641,-265.483 900.357,-252 902.616,-251.171 904.933,-250.291 907.261,-249.385"/>
<polygon fill="#757575" stroke="#757575" points="908.787,-252.544 916.771,-245.579 906.186,-246.046 908.787,-252.544"/>
</g>
<!-- store/reducers/root -->
<g id="node15" class="node"><title>store/reducers/root</title>
<ellipse fill="none" stroke="#111111" cx="409.357" cy="-162" rx="89.6971" ry="18"/>
<text text-anchor="middle" x="409.357" y="-158.849" font-family="Arial" font-size="14.00" fill="#111111">store/reducers/root</text>
</g>
<!-- store&#45;&gt;store/reducers/root -->
<g id="edge25" class="edge"><title>store&#45;&gt;store/reducers/root</title>
<path fill="none" stroke="#757575" d="M917.468,-221.757C911.95,-219.538 906.031,-217.451 900.357,-216 827.339,-197.333 623.044,-179.309 502.217,-169.849"/>
<polygon fill="#757575" stroke="#757575" points="502.471,-166.358 492.23,-169.071 501.928,-173.337 502.471,-166.358"/>
</g>
<!-- store/epics/round -->
<g id="node17" class="node"><title>store/epics/round</title>
<ellipse fill="none" stroke="#111111" cx="770.357" cy="-162" rx="83.0967" ry="18"/>
<text text-anchor="middle" x="770.357" y="-158.849" font-family="Arial" font-size="14.00" fill="#111111">store/epics/round</text>
</g>
<!-- store&#45;&gt;store/epics/round -->
<g id="edge24" class="edge"><title>store&#45;&gt;store/epics/round</title>
<path fill="none" stroke="#757575" d="M916.215,-222.548C910.977,-220.378 905.489,-218.11 900.357,-216 872.795,-204.668 841.906,-192.07 817.156,-182.001"/>
<polygon fill="#757575" stroke="#757575" points="818.228,-178.659 807.646,-178.134 815.591,-185.143 818.228,-178.659"/>
</g>
<!-- client/listeners/dispatchServerActions -->
<g id="node5" class="node"><title>client/listeners/dispatchServerActions</title>
<ellipse fill="none" stroke="#111111" cx="964.357" cy="-450" rx="166.67" ry="18"/>
<text text-anchor="middle" x="964.357" y="-446.849" font-family="Arial" font-size="14.00" fill="#111111">client/listeners/dispatchServerActions</text>
</g>
<!-- client/listeners/dispatchServerActions&#45;&gt;store -->
<g id="edge5" class="edge"><title>client/listeners/dispatchServerActions&#45;&gt;store</title>
<path fill="none" stroke="#757575" d="M962.514,-431.849C958.536,-394.832 949.115,-307.181 944.301,-262.386"/>
<polygon fill="#757575" stroke="#757575" points="947.758,-261.801 943.209,-252.232 940.798,-262.549 947.758,-261.801"/>
</g>
<!-- client/streams/serverActionsStream -->
<g id="node6" class="node"><title>client/streams/serverActionsStream</title>
<ellipse fill="none" stroke="#000000" cx="1225.36" cy="-378" rx="158.916" ry="18"/>
<text text-anchor="middle" x="1225.36" y="-374.849" font-family="Arial" font-size="14.00" fill="#000000">client/streams/serverActionsStream</text>
</g>
<!-- client/listeners/dispatchServerActions&#45;&gt;client/streams/serverActionsStream -->
<g id="edge4" class="edge"><title>client/listeners/dispatchServerActions&#45;&gt;client/streams/serverActionsStream</title>
<path fill="none" stroke="#757575" d="M1023.58,-433.116C1063.13,-422.51 1115.27,-408.527 1156.64,-397.431"/>
<polygon fill="#757575" stroke="#757575" points="1157.61,-400.792 1166.37,-394.821 1155.8,-394.031 1157.61,-400.792"/>
</g>
<!-- client/main -->
<g id="node7" class="node"><title>client/main</title>
<ellipse fill="none" stroke="#111111" cx="1009.36" cy="-522" rx="55.6138" ry="18"/>
<text text-anchor="middle" x="1009.36" y="-518.849" font-family="Arial" font-size="14.00" fill="#111111">client/main</text>
</g>
<!-- client/router -->
<g id="node8" class="node"><title>client/router</title>
<ellipse fill="none" stroke="#111111" cx="719.357" cy="-450" rx="59.9959" ry="18"/>
<text text-anchor="middle" x="719.357" y="-446.849" font-family="Arial" font-size="14.00" fill="#111111">client/router</text>
</g>
<!-- client/main&#45;&gt;client/router -->
<g id="edge6" class="edge"><title>client/main&#45;&gt;client/router</title>
<path fill="none" stroke="#757575" d="M965.728,-510.621C921.137,-499.993 849.892,-482.959 788.357,-468 783.731,-466.875 778.931,-465.703 774.115,-464.524"/>
<polygon fill="#757575" stroke="#757575" points="774.804,-461.089 764.258,-462.105 773.136,-467.888 774.804,-461.089"/>
</g>
<!-- client/subscribeProcessedActions -->
<g id="node9" class="node"><title>client/subscribeProcessedActions</title>
<ellipse fill="none" stroke="#111111" cx="1300.36" cy="-450" rx="151.255" ry="18"/>
<text text-anchor="middle" x="1300.36" y="-446.849" font-family="Arial" font-size="14.00" fill="#111111">client/subscribeProcessedActions</text>
</g>
<!-- client/main&#45;&gt;client/subscribeProcessedActions -->
<g id="edge7" class="edge"><title>client/main&#45;&gt;client/subscribeProcessedActions</title>
<path fill="none" stroke="#757575" d="M1052.61,-510.596C1098.37,-499.589 1171.41,-482.019 1226.35,-468.803"/>
<polygon fill="#757575" stroke="#757575" points="1227.48,-472.13 1236.39,-466.388 1225.85,-465.324 1227.48,-472.13"/>
</g>
<!-- client/router&#45;&gt;store -->
<g id="edge9" class="edge"><title>client/router&#45;&gt;store</title>
<path fill="none" stroke="#757575" d="M752.476,-434.802C794.044,-415.426 865.013,-376.96 907.357,-324 921.912,-305.797 930.745,-280.669 935.745,-261.754"/>
<polygon fill="#757575" stroke="#757575" points="939.163,-262.514 938.141,-251.969 932.363,-260.85 939.163,-262.514"/>
</g>
<!-- components/TriviaApp -->
<g id="node10" class="node"><title>components/TriviaApp</title>
<ellipse fill="none" stroke="#111111" cx="448.357" cy="-378" rx="104.333" ry="18"/>
<text text-anchor="middle" x="448.357" y="-374.849" font-family="Arial" font-size="14.00" fill="#111111">components/TriviaApp</text>
</g>
<!-- client/router&#45;&gt;components/TriviaApp -->
<g id="edge8" class="edge"><title>client/router&#45;&gt;components/TriviaApp</title>
<path fill="none" stroke="#757575" d="M675.515,-437.675C631.698,-426.357 563.808,-408.821 513.65,-395.865"/>
<polygon fill="#757575" stroke="#757575" points="514.425,-392.451 503.868,-393.338 512.674,-399.228 514.425,-392.451"/>
</g>
<!-- client/subscribeProcessedActions&#45;&gt;client/streams/serverActionsStream -->
<g id="edge10" class="edge"><title>client/subscribeProcessedActions&#45;&gt;client/streams/serverActionsStream</title>
<path fill="none" stroke="#757575" d="M1282.2,-432.055C1272.87,-423.349 1261.35,-412.591 1251.12,-403.043"/>
<polygon fill="#757575" stroke="#757575" points="1253.3,-400.296 1243.61,-396.032 1248.53,-405.414 1253.3,-400.296"/>
</g>
<!-- components/Game -->
<g id="node11" class="node"><title>components/Game</title>
<ellipse fill="none" stroke="#111111" cx="448.357" cy="-306" rx="90.2552" ry="18"/>
<text text-anchor="middle" x="448.357" y="-302.849" font-family="Arial" font-size="14.00" fill="#111111">components/Game</text>
</g>
<!-- components/TriviaApp&#45;&gt;components/Game -->
<g id="edge15" class="edge"><title>components/TriviaApp&#45;&gt;components/Game</title>
<path fill="none" stroke="#757575" d="M448.357,-359.697C448.357,-351.983 448.357,-342.712 448.357,-334.112"/>
<polygon fill="#757575" stroke="#757575" points="451.857,-334.104 448.357,-324.104 444.857,-334.104 451.857,-334.104"/>
</g>
<!-- components/Round -->
<g id="node13" class="node"><title>components/Round</title>
<ellipse fill="none" stroke="#111111" cx="247.357" cy="-306" rx="92.4694" ry="18"/>
<text text-anchor="middle" x="247.357" y="-302.849" font-family="Arial" font-size="14.00" fill="#111111">components/Round</text>
</g>
<!-- components/TriviaApp&#45;&gt;components/Round -->
<g id="edge16" class="edge"><title>components/TriviaApp&#45;&gt;components/Round</title>
<path fill="none" stroke="#757575" d="M404.247,-361.638C373.562,-350.952 332.507,-336.654 300.091,-325.365"/>
<polygon fill="#757575" stroke="#757575" points="300.924,-321.949 290.329,-321.965 298.622,-328.56 300.924,-321.949"/>
</g>
<!-- components/Game&#45;&gt;client/streams/clientActionsStream -->
<g id="edge11" class="edge"><title>components/Game&#45;&gt;client/streams/clientActionsStream</title>
<path fill="none" stroke="#757575" d="M448.357,-287.697C448.357,-279.983 448.357,-270.712 448.357,-262.112"/>
<polygon fill="#757575" stroke="#757575" points="451.857,-262.104 448.357,-252.104 444.857,-262.104 451.857,-262.104"/>
</g>
<!-- store/actions -->
<g id="node12" class="node"><title>store/actions</title>
<ellipse fill="none" stroke="#111111" cx="211.357" cy="-234" rx="64.3793" ry="18"/>
<text text-anchor="middle" x="211.357" y="-230.849" font-family="Arial" font-size="14.00" fill="#111111">store/actions</text>
</g>
<!-- components/Game&#45;&gt;store/actions -->
<g id="edge12" class="edge"><title>components/Game&#45;&gt;store/actions</title>
<path fill="none" stroke="#757575" d="M400.111,-290.75C360.476,-279.043 304.429,-262.489 263.712,-250.463"/>
<polygon fill="#757575" stroke="#757575" points="264.552,-247.062 253.97,-247.586 262.569,-253.775 264.552,-247.062"/>
</g>
<!-- store/reducers/game -->
<g id="node14" class="node"><title>store/reducers/game</title>
<ellipse fill="none" stroke="#111111" cx="211.357" cy="-90" rx="97.3647" ry="18"/>
<text text-anchor="middle" x="211.357" y="-86.8493" font-family="Arial" font-size="14.00" fill="#111111">store/reducers/game</text>
</g>
<!-- store/actions&#45;&gt;store/reducers/game -->
<g id="edge17" class="edge"><title>store/actions&#45;&gt;store/reducers/game</title>
<path fill="none" stroke="#757575" d="M211.357,-215.871C211.357,-191.67 211.357,-147.211 211.357,-118.393"/>
<polygon fill="#757575" stroke="#757575" points="214.857,-118.189 211.357,-108.189 207.857,-118.189 214.857,-118.189"/>
</g>
<!-- store/actions&#45;&gt;store/reducers/root -->
<g id="edge18" class="edge"><title>store/actions&#45;&gt;store/reducers/root</title>
<path fill="none" stroke="#757575" d="M249.534,-219.503C280.218,-208.655 323.629,-193.308 357.466,-181.345"/>
<polygon fill="#757575" stroke="#757575" points="358.923,-184.543 367.185,-177.909 356.59,-177.943 358.923,-184.543"/>
</g>
<!-- store/reducers/round -->
<g id="node16" class="node"><title>store/reducers/round</title>
<ellipse fill="none" stroke="#000000" cx="424.357" cy="-90" rx="97.923" ry="18"/>
<text text-anchor="middle" x="424.357" y="-86.8493" font-family="Arial" font-size="14.00" fill="#000000">store/reducers/round</text>
</g>
<!-- store/actions&#45;&gt;store/reducers/round -->
<g id="edge19" class="edge"><title>store/actions&#45;&gt;store/reducers/round</title>
<path fill="none" stroke="#757575" d="M226.924,-216.266C245.448,-197.041 277.959,-165.399 310.357,-144 330.257,-130.856 353.937,-119.277 374.546,-110.322"/>
<polygon fill="#757575" stroke="#757575" points="375.942,-113.531 383.774,-106.396 373.202,-107.09 375.942,-113.531"/>
</g>
<!-- components/Round&#45;&gt;client/streams/clientActionsStream -->
<g id="edge13" class="edge"><title>components/Round&#45;&gt;client/streams/clientActionsStream</title>
<path fill="none" stroke="#757575" d="M290.477,-289.983C320.166,-279.644 359.901,-265.806 392.081,-254.599"/>
<polygon fill="#757575" stroke="#757575" points="393.513,-257.806 401.806,-251.212 391.211,-251.196 393.513,-257.806"/>
</g>
<!-- components/Round&#45;&gt;store/actions -->
<g id="edge14" class="edge"><title>components/Round&#45;&gt;store/actions</title>
<path fill="none" stroke="#757575" d="M238.643,-288.055C234.504,-280.007 229.463,-270.205 224.845,-261.226"/>
<polygon fill="#757575" stroke="#757575" points="227.928,-259.567 220.242,-252.275 221.703,-262.769 227.928,-259.567"/>
</g>
<!-- store/reducers/createStatefulImmutableReducer -->
<g id="node18" class="node"><title>store/reducers/createStatefulImmutableReducer</title>
<ellipse fill="none" stroke="#000000" cx="211.357" cy="-18" rx="211.215" ry="18"/>
<text text-anchor="middle" x="211.357" y="-14.8493" font-family="Arial" font-size="14.00" fill="#000000">store/reducers/createStatefulImmutableReducer</text>
</g>
<!-- store/reducers/game&#45;&gt;store/reducers/createStatefulImmutableReducer -->
<g id="edge21" class="edge"><title>store/reducers/game&#45;&gt;store/reducers/createStatefulImmutableReducer</title>
<path fill="none" stroke="#757575" d="M211.357,-71.6966C211.357,-63.9827 211.357,-54.7125 211.357,-46.1124"/>
<polygon fill="#757575" stroke="#757575" points="214.857,-46.1043 211.357,-36.1043 207.857,-46.1044 214.857,-46.1043"/>
</g>
<!-- store/reducers/root&#45;&gt;store/reducers/game -->
<g id="edge22" class="edge"><title>store/reducers/root&#45;&gt;store/reducers/game</title>
<path fill="none" stroke="#757575" d="M366.881,-145.983C336.812,-135.353 296.28,-121.023 264.133,-109.658"/>
<polygon fill="#757575" stroke="#757575" points="265.041,-106.267 254.446,-106.233 262.708,-112.867 265.041,-106.267"/>
</g>
<!-- store/reducers/root&#45;&gt;store/reducers/round -->
<g id="edge23" class="edge"><title>store/reducers/root&#45;&gt;store/reducers/round</title>
<path fill="none" stroke="#757575" d="M413.065,-143.697C414.718,-135.983 416.705,-126.712 418.548,-118.112"/>
<polygon fill="#757575" stroke="#757575" points="422.019,-118.616 420.692,-108.104 415.174,-117.149 422.019,-118.616"/>
</g>
<!-- store/epics/round&#45;&gt;store/reducers/round -->
<g id="edge20" class="edge"><title>store/epics/round&#45;&gt;store/reducers/round</title>
<path fill="none" stroke="#757575" d="M711.663,-149.125C652.55,-137.166 561.209,-118.687 497.435,-105.784"/>
<polygon fill="#757575" stroke="#757575" points="497.941,-102.316 487.445,-103.763 496.552,-109.177 497.941,-102.316"/>
</g>
</g>
</svg>
