<?xml version="1.0" encoding="UTF-8" standalone="no"?>
<!DOCTYPE svg PUBLIC "-//W3C//DTD SVG 1.1//EN"
 "http://www.w3.org/Graphics/SVG/1.1/DTD/svg11.dtd">
<!-- Generated by graphviz version 2.38.0 (20140413.2041)
 -->
<!-- Title: G Pages: 1 -->
<svg width="1862pt" height="412pt"
 viewBox="0.00 0.00 1861.62 411.98" xmlns="http://www.w3.org/2000/svg" xmlns:xlink="http://www.w3.org/1999/xlink">
<g id="graph0" class="graph" transform="scale(1 1) rotate(0) translate(7.992 403.992)">
<title>G</title>
<polygon fill="#ffffff" stroke="none" points="-7.992,7.992 -7.992,-403.992 1853.63,-403.992 1853.63,7.992 -7.992,7.992"/>
<!-- collections -->
<g id="node1" class="node"><title>collections</title>
<ellipse fill="none" stroke="#000000" cx="94.1822" cy="-234" rx="54.5254" ry="18"/>
<text text-anchor="middle" x="94.1822" y="-230.849" font-family="Arial" font-size="14.00" fill="#000000">collections</text>
</g>
<!-- methods/server/dispatchAction -->
<g id="node2" class="node"><title>methods/server/dispatchAction</title>
<ellipse fill="none" stroke="#000000" cx="668.182" cy="-306" rx="139.714" ry="18"/>
<text text-anchor="middle" x="668.182" y="-302.849" font-family="Arial" font-size="14.00" fill="#000000">methods/server/dispatchAction</text>
</g>
<!-- server/listeners/dispatchConsequencesOfActions -->
<g id="node3" class="node"><title>server/listeners/dispatchConsequencesOfActions</title>
<ellipse fill="none" stroke="#111111" cx="699.182" cy="-234" rx="216.147" ry="18"/>
<text text-anchor="middle" x="699.182" y="-230.849" font-family="Arial" font-size="14.00" fill="#111111">server/listeners/dispatchConsequencesOfActions</text>
</g>
<!-- server/streams/consequencesOfActions -->
<g id="node4" class="node"><title>server/streams/consequencesOfActions</title>
<ellipse fill="none" stroke="#111111" cx="1018.18" cy="-162" rx="177.113" ry="18"/>
<text text-anchor="middle" x="1018.18" y="-158.849" font-family="Arial" font-size="14.00" fill="#111111">server/streams/consequencesOfActions</text>
</g>
<!-- server/listeners/dispatchConsequencesOfActions&#45;&gt;server/streams/consequencesOfActions -->
<g id="edge1" class="edge"><title>server/listeners/dispatchConsequencesOfActions&#45;&gt;server/streams/consequencesOfActions</title>
<path fill="none" stroke="#757575" d="M771.967,-217.028C821.272,-206.209 886.459,-191.905 937.373,-180.732"/>
<polygon fill="#757575" stroke="#757575" points="938.339,-184.104 947.356,-178.542 936.839,-177.266 938.339,-184.104"/>
</g>
<!-- server/mappers/actionToConsequences -->
<g id="node11" class="node"><title>server/mappers/actionToConsequences</title>
<ellipse fill="none" stroke="#000000" cx="844.182" cy="-90" rx="176.601" ry="18"/>
<text text-anchor="middle" x="844.182" y="-86.8493" font-family="Arial" font-size="14.00" fill="#000000">server/mappers/actionToConsequences</text>
</g>
<!-- server/streams/consequencesOfActions&#45;&gt;server/mappers/actionToConsequences -->
<g id="edge15" class="edge"><title>server/streams/consequencesOfActions&#45;&gt;server/mappers/actionToConsequences</title>
<path fill="none" stroke="#757575" d="M976.947,-144.411C952.333,-134.509 920.887,-121.858 894.778,-111.355"/>
<polygon fill="#757575" stroke="#757575" points="896.007,-108.076 885.423,-107.591 893.394,-114.571 896.007,-108.076"/>
</g>
<!-- server/streams/incomingClientActions -->
<g id="node14" class="node"><title>server/streams/incomingClientActions</title>
<ellipse fill="none" stroke="#000000" cx="1207.18" cy="-90" rx="168.28" ry="18"/>
<text text-anchor="middle" x="1207.18" y="-86.8493" font-family="Arial" font-size="14.00" fill="#000000">server/streams/incomingClientActions</text>
</g>
<!-- server/streams/consequencesOfActions&#45;&gt;server/streams/incomingClientActions -->
<g id="edge16" class="edge"><title>server/streams/consequencesOfActions&#45;&gt;server/streams/incomingClientActions</title>
<path fill="none" stroke="#757575" d="M1062.97,-144.411C1090.04,-134.386 1124.72,-121.543 1153.28,-110.964"/>
<polygon fill="#757575" stroke="#757575" points="1154.55,-114.225 1162.71,-107.47 1152.12,-107.661 1154.55,-114.225"/>
</g>
<!-- server/listeners/writeActionsToMongo -->
<g id="node5" class="node"><title>server/listeners/writeActionsToMongo</title>
<ellipse fill="none" stroke="#111111" cx="316.182" cy="-306" rx="166.651" ry="18"/>
<text text-anchor="middle" x="316.182" y="-302.849" font-family="Arial" font-size="14.00" fill="#111111">server/listeners/writeActionsToMongo</text>
</g>
<!-- server/listeners/writeActionsToMongo&#45;&gt;collections -->
<g id="edge2" class="edge"><title>server/listeners/writeActionsToMongo&#45;&gt;collections</title>
<path fill="none" stroke="#757575" d="M264.972,-288.853C227.985,-277.19 178.375,-261.547 142.155,-250.127"/>
<polygon fill="#757575" stroke="#757575" points="142.905,-246.693 132.316,-247.024 140.8,-253.369 142.905,-246.693"/>
</g>
<!-- server/streams/storeStateStream -->
<g id="node6" class="node"><title>server/streams/storeStateStream</title>
<ellipse fill="none" stroke="#111111" cx="316.182" cy="-234" rx="149.022" ry="18"/>
<text text-anchor="middle" x="316.182" y="-230.849" font-family="Arial" font-size="14.00" fill="#111111">server/streams/storeStateStream</text>
</g>
<!-- server/listeners/writeActionsToMongo&#45;&gt;server/streams/storeStateStream -->
<g id="edge3" class="edge"><title>server/listeners/writeActionsToMongo&#45;&gt;server/streams/storeStateStream</title>
<path fill="none" stroke="#757575" d="M316.182,-287.697C316.182,-279.983 316.182,-270.712 316.182,-262.112"/>
<polygon fill="#757575" stroke="#757575" points="319.682,-262.104 316.182,-252.104 312.682,-262.104 319.682,-262.104"/>
</g>
<!-- store -->
<g id="node15" class="node"><title>store</title>
<ellipse fill="none" stroke="#111111" cx="316.182" cy="-162" rx="31.9343" ry="18"/>
<text text-anchor="middle" x="316.182" y="-158.849" font-family="Arial" font-size="14.00" fill="#111111">store</text>
</g>
<!-- server/streams/storeStateStream&#45;&gt;store -->
<g id="edge17" class="edge"><title>server/streams/storeStateStream&#45;&gt;store</title>
<path fill="none" stroke="#757575" d="M316.182,-215.697C316.182,-207.983 316.182,-198.712 316.182,-190.112"/>
<polygon fill="#757575" stroke="#757575" points="319.682,-190.104 316.182,-180.104 312.682,-190.104 319.682,-190.104"/>
</g>
<!-- server/main -->
<g id="node7" class="node"><title>server/main</title>
<ellipse fill="none" stroke="#111111" cx="836.182" cy="-378" rx="59.9775" ry="18"/>
<text text-anchor="middle" x="836.182" y="-374.849" font-family="Arial" font-size="14.00" fill="#111111">server/main</text>
</g>
<!-- server/main&#45;&gt;collections -->
<g id="edge4" class="edge"><title>server/main&#45;&gt;collections</title>
<path fill="none" stroke="#757575" d="M776.635,-375.758C617.817,-371.987 192.628,-358.728 140.182,-324 118.844,-309.87 106.838,-282.581 100.486,-261.928"/>
<polygon fill="#757575" stroke="#757575" points="103.806,-260.805 97.7332,-252.124 97.067,-262.697 103.806,-260.805"/>
</g>
<!-- server/main&#45;&gt;methods/server/dispatchAction -->
<g id="edge5" class="edge"><title>server/main&#45;&gt;methods/server/dispatchAction</title>
<path fill="none" stroke="#757575" d="M802.589,-363.003C778.005,-352.76 744.282,-338.708 716.765,-327.243"/>
<polygon fill="#757575" stroke="#757575" points="717.893,-323.921 707.316,-323.306 715.201,-330.383 717.893,-323.921"/>
</g>
<!-- server/main&#45;&gt;server/listeners/dispatchConsequencesOfActions -->
<g id="edge6" class="edge"><title>server/main&#45;&gt;server/listeners/dispatchConsequencesOfActions</title>
<path fill="none" stroke="#757575" d="M836.903,-360C836.832,-340.525 833.862,-308.648 817.182,-288 805.573,-273.628 789.239,-263.02 772.417,-255.241"/>
<polygon fill="#757575" stroke="#757575" points="773.616,-251.947 763.048,-251.204 770.846,-258.376 773.616,-251.947"/>
</g>
<!-- server/main&#45;&gt;server/listeners/writeActionsToMongo -->
<g id="edge7" class="edge"><title>server/main&#45;&gt;server/listeners/writeActionsToMongo</title>
<path fill="none" stroke="#757575" d="M782.492,-369.772C698.823,-358.509 535.602,-336.537 426.208,-321.811"/>
<polygon fill="#757575" stroke="#757575" points="426.501,-318.319 416.124,-320.454 425.567,-325.257 426.501,-318.319"/>
</g>
<!-- server/publications/game -->
<g id="node8" class="node"><title>server/publications/game</title>
<ellipse fill="none" stroke="#111111" cx="1351.18" cy="-306" rx="115.533" ry="18"/>
<text text-anchor="middle" x="1351.18" y="-302.849" font-family="Arial" font-size="14.00" fill="#111111">server/publications/game</text>
</g>
<!-- server/main&#45;&gt;server/publications/game -->
<g id="edge8" class="edge"><title>server/main&#45;&gt;server/publications/game</title>
<path fill="none" stroke="#757575" d="M889.804,-369.715C964.986,-359.5 1106,-340.339 1226.18,-324 1236.21,-322.636 1246.7,-321.211 1257.15,-319.79"/>
<polygon fill="#757575" stroke="#757575" points="1257.7,-323.247 1267.13,-318.432 1256.75,-316.311 1257.7,-323.247"/>
</g>
<!-- server/publications/serverActions -->
<g id="node9" class="node"><title>server/publications/serverActions</title>
<ellipse fill="none" stroke="#111111" cx="1068.18" cy="-306" rx="149.05" ry="18"/>
<text text-anchor="middle" x="1068.18" y="-302.849" font-family="Arial" font-size="14.00" fill="#111111">server/publications/serverActions</text>
</g>
<!-- server/main&#45;&gt;server/publications/serverActions -->
<g id="edge9" class="edge"><title>server/main&#45;&gt;server/publications/serverActions</title>
<path fill="none" stroke="#757575" d="M876.859,-364.727C912.471,-353.982 964.768,-338.202 1005.69,-325.856"/>
<polygon fill="#757575" stroke="#757575" points="1006.73,-329.196 1015.3,-322.957 1004.71,-322.494 1006.73,-329.196"/>
</g>
<!-- server/startup/populateStoreFromMongo -->
<g id="node10" class="node"><title>server/startup/populateStoreFromMongo</title>
<ellipse fill="none" stroke="#000000" cx="1665.18" cy="-306" rx="180.416" ry="18"/>
<text text-anchor="middle" x="1665.18" y="-302.849" font-family="Arial" font-size="14.00" fill="#000000">server/startup/populateStoreFromMongo</text>
</g>
<!-- server/main&#45;&gt;server/startup/populateStoreFromMongo -->
<g id="edge10" class="edge"><title>server/main&#45;&gt;server/startup/populateStoreFromMongo</title>
<path fill="none" stroke="#757575" d="M893.563,-372.385C1005.59,-363.346 1261.25,-342.566 1476.18,-324 1492.58,-322.584 1509.77,-321.073 1526.82,-319.559"/>
<polygon fill="#757575" stroke="#757575" points="1527.19,-323.04 1536.84,-318.667 1526.57,-316.068 1527.19,-323.04"/>
</g>
<!-- server/publications/createPublication -->
<g id="node12" class="node"><title>server/publications/createPublication</title>
<ellipse fill="none" stroke="#000000" cx="1441.18" cy="-234" rx="164.462" ry="18"/>
<text text-anchor="middle" x="1441.18" y="-230.849" font-family="Arial" font-size="14.00" fill="#000000">server/publications/createPublication</text>
</g>
<!-- server/publications/game&#45;&gt;server/publications/createPublication -->
<g id="edge11" class="edge"><title>server/publications/game&#45;&gt;server/publications/createPublication</title>
<path fill="none" stroke="#757575" d="M1372.97,-288.055C1384.49,-279.093 1398.81,-267.957 1411.35,-258.204"/>
<polygon fill="#757575" stroke="#757575" points="1413.54,-260.934 1419.28,-252.032 1409.24,-255.408 1413.54,-260.934"/>
</g>
<!-- server/publications/serverActions&#45;&gt;server/publications/createPublication -->
<g id="edge12" class="edge"><title>server/publications/serverActions&#45;&gt;server/publications/createPublication</title>
<path fill="none" stroke="#757575" d="M1145.47,-290.496C1205.63,-279.206 1289.19,-263.524 1352.15,-251.709"/>
<polygon fill="#757575" stroke="#757575" points="1352.88,-255.132 1362.07,-249.847 1351.59,-248.252 1352.88,-255.132"/>
</g>
<!-- server/streams/clientUpdatesStream -->
<g id="node13" class="node"><title>server/streams/clientUpdatesStream</title>
<ellipse fill="none" stroke="#111111" cx="1096.18" cy="-234" rx="163.308" ry="18"/>
<text text-anchor="middle" x="1096.18" y="-230.849" font-family="Arial" font-size="14.00" fill="#111111">server/streams/clientUpdatesStream</text>
</g>
<!-- server/publications/serverActions&#45;&gt;server/streams/clientUpdatesStream -->
<g id="edge13" class="edge"><title>server/publications/serverActions&#45;&gt;server/streams/clientUpdatesStream</title>
<path fill="none" stroke="#757575" d="M1075.1,-287.697C1078.26,-279.813 1082.06,-270.304 1085.56,-261.546"/>
<polygon fill="#757575" stroke="#757575" points="1088.88,-262.689 1089.34,-252.104 1082.38,-260.089 1088.88,-262.689"/>
</g>
<!-- server/streams/clientUpdatesStream&#45;&gt;server/streams/consequencesOfActions -->
<g id="edge14" class="edge"><title>server/streams/clientUpdatesStream&#45;&gt;server/streams/consequencesOfActions</title>
<path fill="none" stroke="#757575" d="M1077.3,-216.055C1067.5,-207.264 1055.38,-196.38 1044.66,-186.763"/>
<polygon fill="#757575" stroke="#757575" points="1046.94,-184.106 1037.16,-180.032 1042.27,-189.316 1046.94,-184.106"/>
</g>
<!-- store/reducers/root -->
<g id="node21" class="node"><title>store/reducers/root</title>
<ellipse fill="none" stroke="#111111" cx="316.182" cy="-90" rx="89.6971" ry="18"/>
<text text-anchor="middle" x="316.182" y="-86.8493" font-family="Arial" font-size="14.00" fill="#111111">store/reducers/root</text>
</g>
<!-- store&#45;&gt;store/reducers/root -->
<g id="edge26" class="edge"><title>store&#45;&gt;store/reducers/root</title>
<path fill="none" stroke="#757575" d="M316.182,-143.697C316.182,-135.983 316.182,-126.712 316.182,-118.112"/>
<polygon fill="#757575" stroke="#757575" points="319.682,-118.104 316.182,-108.104 312.682,-118.104 319.682,-118.104"/>
</g>
<!-- store/actions -->
<g id="node16" class="node"><title>store/actions</title>
<ellipse fill="none" stroke="#111111" cx="507.182" cy="-90" rx="64.3793" ry="18"/>
<text text-anchor="middle" x="507.182" y="-86.8493" font-family="Arial" font-size="14.00" fill="#111111">store/actions</text>
</g>
<!-- store/reducers/advanceQuestion -->
<g id="node17" class="node"><title>store/reducers/advanceQuestion</title>
<ellipse fill="none" stroke="#000000" cx="780.182" cy="-18" rx="146.9" ry="18"/>
<text text-anchor="middle" x="780.182" y="-14.8493" font-family="Arial" font-size="14.00" fill="#000000">store/reducers/advanceQuestion</text>
</g>
<!-- store/actions&#45;&gt;store/reducers/advanceQuestion -->
<g id="edge18" class="edge"><title>store/actions&#45;&gt;store/reducers/advanceQuestion</title>
<path fill="none" stroke="#757575" d="M552.876,-77.2836C595.762,-66.2872 660.534,-49.6789 709.979,-37.0009"/>
<polygon fill="#757575" stroke="#757575" points="711.15,-40.3138 719.968,-34.4396 709.412,-33.5331 711.15,-40.3138"/>
</g>
<!-- store/reducers/game -->
<g id="node18" class="node"><title>store/reducers/game</title>
<ellipse fill="none" stroke="#000000" cx="97.1822" cy="-18" rx="97.3647" ry="18"/>
<text text-anchor="middle" x="97.1822" y="-14.8493" font-family="Arial" font-size="14.00" fill="#000000">store/reducers/game</text>
</g>
<!-- store/actions&#45;&gt;store/reducers/game -->
<g id="edge19" class="edge"><title>store/actions&#45;&gt;store/reducers/game</title>
<path fill="none" stroke="#757575" d="M455.151,-79.2207C442.109,-76.8148 428.14,-74.2769 415.182,-72 334.6,-57.8409 242.359,-42.5708 178.048,-32.0753"/>
<polygon fill="#757575" stroke="#757575" points="178.405,-28.5874 167.972,-30.4327 177.279,-35.4962 178.405,-28.5874"/>
</g>
<!-- store/reducers/reset -->
<g id="node19" class="node"><title>store/reducers/reset</title>
<ellipse fill="none" stroke="#000000" cx="307.182" cy="-18" rx="94.6194" ry="18"/>
<text text-anchor="middle" x="307.182" y="-14.8493" font-family="Arial" font-size="14.00" fill="#000000">store/reducers/reset</text>
</g>
<!-- store/actions&#45;&gt;store/reducers/reset -->
<g id="edge20" class="edge"><title>store/actions&#45;&gt;store/reducers/reset</title>
<path fill="none" stroke="#757575" d="M468.62,-75.5033C437.833,-64.7278 394.361,-49.5125 360.283,-37.5852"/>
<polygon fill="#757575" stroke="#757575" points="361.082,-34.1567 350.487,-34.1566 358.769,-40.7637 361.082,-34.1567"/>
</g>
<!-- store/reducers/round -->
<g id="node20" class="node"><title>store/reducers/round</title>
<ellipse fill="none" stroke="#000000" cx="517.182" cy="-18" rx="97.923" ry="18"/>
<text text-anchor="middle" x="517.182" y="-14.8493" font-family="Arial" font-size="14.00" fill="#000000">store/reducers/round</text>
</g>
<!-- store/actions&#45;&gt;store/reducers/round -->
<g id="edge21" class="edge"><title>store/actions&#45;&gt;store/reducers/round</title>
<path fill="none" stroke="#757575" d="M509.654,-71.6966C510.756,-63.9827 512.08,-54.7125 513.309,-46.1124"/>
<polygon fill="#757575" stroke="#757575" points="516.789,-46.4988 514.739,-36.1043 509.86,-45.5088 516.789,-46.4988"/>
</g>
<!-- store/reducers/root&#45;&gt;store/reducers/advanceQuestion -->
<g id="edge22" class="edge"><title>store/reducers/root&#45;&gt;store/reducers/advanceQuestion</title>
<path fill="none" stroke="#757575" d="M385.648,-78.5203C464.154,-66.6766 592.562,-47.3048 681.46,-33.8934"/>
<polygon fill="#757575" stroke="#757575" points="682.191,-37.3228 691.557,-32.3701 681.147,-30.4011 682.191,-37.3228"/>
</g>
<!-- store/reducers/root&#45;&gt;store/reducers/game -->
<g id="edge23" class="edge"><title>store/reducers/root&#45;&gt;store/reducers/game</title>
<path fill="none" stroke="#757575" d="M270.539,-74.4109C236.622,-63.5699 190.142,-48.713 153.847,-37.112"/>
<polygon fill="#757575" stroke="#757575" points="154.49,-33.6431 143.899,-33.9322 152.358,-40.3107 154.49,-33.6431"/>
</g>
<!-- store/reducers/root&#45;&gt;store/reducers/reset -->
<g id="edge24" class="edge"><title>store/reducers/root&#45;&gt;store/reducers/reset</title>
<path fill="none" stroke="#757575" d="M313.957,-71.6966C312.966,-63.9827 311.774,-54.7125 310.668,-46.1124"/>
<polygon fill="#757575" stroke="#757575" points="314.128,-45.5763 309.381,-36.1043 307.185,-46.469 314.128,-45.5763"/>
</g>
<!-- store/reducers/root&#45;&gt;store/reducers/round -->
<g id="edge25" class="edge"><title>store/reducers/root&#45;&gt;store/reducers/round</title>
<path fill="none" stroke="#757575" d="M359.302,-73.9832C389.827,-63.3526 430.973,-49.0231 463.607,-37.658"/>
<polygon fill="#757575" stroke="#757575" points="465.148,-40.8277 473.44,-34.2335 462.846,-34.2171 465.148,-40.8277"/>
</g>
</g>
</svg>
