<?xml version="1.0" encoding="UTF-8" standalone="no"?>
<!DOCTYPE svg PUBLIC "-//W3C//DTD SVG 1.1//EN"
 "http://www.w3.org/Graphics/SVG/1.1/DTD/svg11.dtd">
<!-- Generated by graphviz version 2.38.0 (20140413.2041)
 -->
<!-- Title: G Pages: 1 -->
<svg width="1625pt" height="340pt"
 viewBox="0.00 0.00 1625.27 339.98" xmlns="http://www.w3.org/2000/svg" xmlns:xlink="http://www.w3.org/1999/xlink">
<g id="graph0" class="graph" transform="scale(1 1) rotate(0) translate(7.992 331.992)">
<title>G</title>
<polygon fill="#ffffff" stroke="none" points="-7.992,7.992 -7.992,-331.992 1617.28,-331.992 1617.28,7.992 -7.992,7.992"/>
<!-- collections -->
<g id="node1" class="node"><title>collections</title>
<ellipse fill="none" stroke="#000000" cx="55.8255" cy="-234" rx="54.5254" ry="18"/>
<text text-anchor="middle" x="55.8255" y="-230.849" font-family="Arial" font-size="14.00" fill="#000000">collections</text>
</g>
<!-- methods/server/dispatchAction -->
<g id="node2" class="node"><title>methods/server/dispatchAction</title>
<ellipse fill="#E8ECF5" stroke="#111111" cx="1221.83" cy="-162" rx="139.714" ry="18"/>
<text text-anchor="middle" x="1221.83" y="-158.849" font-family="Arial" font-size="14.00" fill="#111111">methods/server/dispatchAction</text>
</g>
<!-- server/streams/incomingClientActions -->
<g id="node3" class="node"><title>server/streams/incomingClientActions</title>
<ellipse fill="none" stroke="#000000" cx="1161.83" cy="-90" rx="168.28" ry="18"/>
<text text-anchor="middle" x="1161.83" y="-86.8493" font-family="Arial" font-size="14.00" fill="#000000">server/streams/incomingClientActions</text>
</g>
<!-- methods/server/dispatchAction&#45;&gt;server/streams/incomingClientActions -->
<g id="edge1" class="edge"><title>methods/server/dispatchAction&#45;&gt;server/streams/incomingClientActions</title>
<path fill="none" stroke="#757575" d="M1207.3,-144.055C1200.11,-135.668 1191.29,-125.376 1183.34,-116.096"/>
<polygon fill="#757575" stroke="#757575" points="1185.8,-113.59 1176.63,-108.275 1180.48,-118.146 1185.8,-113.59"/>
</g>
<!-- server/listeners/dispatchConsequencesOfActions -->
<g id="node4" class="node"><title>server/listeners/dispatchConsequencesOfActions</title>
<ellipse fill="none" stroke="#111111" cx="660.826" cy="-234" rx="216.147" ry="18"/>
<text text-anchor="middle" x="660.826" y="-230.849" font-family="Arial" font-size="14.00" fill="#111111">server/listeners/dispatchConsequencesOfActions</text>
</g>
<!-- server/streams/consequencesOfActions -->
<g id="node5" class="node"><title>server/streams/consequencesOfActions</title>
<ellipse fill="none" stroke="#111111" cx="886.826" cy="-162" rx="177.113" ry="18"/>
<text text-anchor="middle" x="886.826" y="-158.849" font-family="Arial" font-size="14.00" fill="#111111">server/streams/consequencesOfActions</text>
</g>
<!-- server/listeners/dispatchConsequencesOfActions&#45;&gt;server/streams/consequencesOfActions -->
<g id="edge2" class="edge"><title>server/listeners/dispatchConsequencesOfActions&#45;&gt;server/streams/consequencesOfActions</title>
<path fill="none" stroke="#757575" d="M714.098,-216.5C747.259,-206.229 790.05,-192.975 824.745,-182.229"/>
<polygon fill="#757575" stroke="#757575" points="825.784,-185.571 834.301,-179.269 823.713,-178.884 825.784,-185.571"/>
</g>
<!-- store -->
<g id="node6" class="node"><title>store</title>
<ellipse fill="none" stroke="#111111" cx="659.826" cy="-162" rx="31.9343" ry="18"/>
<text text-anchor="middle" x="659.826" y="-158.849" font-family="Arial" font-size="14.00" fill="#111111">store</text>
</g>
<!-- server/listeners/dispatchConsequencesOfActions&#45;&gt;store -->
<g id="edge3" class="edge"><title>server/listeners/dispatchConsequencesOfActions&#45;&gt;store</title>
<path fill="none" stroke="#757575" d="M660.578,-215.697C660.468,-207.983 660.336,-198.712 660.213,-190.112"/>
<polygon fill="#757575" stroke="#757575" points="663.712,-190.053 660.07,-180.104 656.713,-190.153 663.712,-190.053"/>
</g>
<!-- server/streams/consequencesOfActions&#45;&gt;server/streams/incomingClientActions -->
<g id="edge11" class="edge"><title>server/streams/consequencesOfActions&#45;&gt;server/streams/incomingClientActions</title>
<path fill="none" stroke="#757575" d="M949.227,-145.116C991.068,-134.465 1046.29,-120.408 1089.97,-109.291"/>
<polygon fill="#757575" stroke="#757575" points="1090.84,-112.68 1099.67,-106.821 1089.12,-105.896 1090.84,-112.68"/>
</g>
<!-- store/reducers/root -->
<g id="node15" class="node"><title>store/reducers/root</title>
<ellipse fill="none" stroke="#111111" cx="659.826" cy="-90" rx="89.6971" ry="18"/>
<text text-anchor="middle" x="659.826" y="-86.8493" font-family="Arial" font-size="14.00" fill="#111111">store/reducers/root</text>
</g>
<!-- store&#45;&gt;store/reducers/root -->
<g id="edge16" class="edge"><title>store&#45;&gt;store/reducers/root</title>
<path fill="none" stroke="#757575" d="M659.826,-143.697C659.826,-135.983 659.826,-126.712 659.826,-118.112"/>
<polygon fill="#757575" stroke="#757575" points="663.326,-118.104 659.826,-108.104 656.326,-118.104 663.326,-118.104"/>
</g>
<!-- server/listeners/writeActionsToMongo -->
<g id="node7" class="node"><title>server/listeners/writeActionsToMongo</title>
<ellipse fill="#ee6666" stroke="#111111" cx="166.826" cy="-306" rx="166.651" ry="18"/>
<text text-anchor="middle" x="166.826" y="-302.849" font-family="Arial" font-size="14.00" fill="#111111">server/listeners/writeActionsToMongo</text>
</g>
<!-- server/listeners/writeActionsToMongo&#45;&gt;collections -->
<g id="edge4" class="edge"><title>server/listeners/writeActionsToMongo&#45;&gt;collections</title>
<path fill="none" stroke="#757575" d="M139.956,-288.055C124.581,-278.359 105.169,-266.118 88.8677,-255.837"/>
<polygon fill="#757575" stroke="#757575" points="90.5019,-252.73 80.1764,-250.356 86.7679,-258.651 90.5019,-252.73"/>
</g>
<!-- server/streams/storeStateStream -->
<g id="node8" class="node"><title>server/streams/storeStateStream</title>
<ellipse fill="none" stroke="#111111" cx="277.826" cy="-234" rx="149.022" ry="18"/>
<text text-anchor="middle" x="277.826" y="-230.849" font-family="Arial" font-size="14.00" fill="#111111">server/streams/storeStateStream</text>
</g>
<!-- server/listeners/writeActionsToMongo&#45;&gt;server/streams/storeStateStream -->
<g id="edge5" class="edge"><title>server/listeners/writeActionsToMongo&#45;&gt;server/streams/storeStateStream</title>
<path fill="none" stroke="#757575" d="M193.696,-288.055C208.421,-278.769 226.848,-267.148 242.701,-257.151"/>
<polygon fill="#757575" stroke="#757575" points="244.611,-260.084 251.203,-251.789 240.877,-254.163 244.611,-260.084"/>
</g>
<!-- server/streams/storeStateStream&#45;&gt;store -->
<g id="edge12" class="edge"><title>server/streams/storeStateStream&#45;&gt;store</title>
<path fill="none" stroke="#757575" d="M356.051,-218.666C436.112,-203.995 557.359,-181.777 619.697,-170.353"/>
<polygon fill="#757575" stroke="#757575" points="620.7,-173.728 629.905,-168.483 619.438,-166.843 620.7,-173.728"/>
</g>
<!-- server/main -->
<g id="node9" class="node"><title>server/main</title>
<ellipse fill="none" stroke="#111111" cx="1220.83" cy="-306" rx="59.9775" ry="18"/>
<text text-anchor="middle" x="1220.83" y="-302.849" font-family="Arial" font-size="14.00" fill="#111111">server/main</text>
</g>
<!-- server/main&#45;&gt;methods/server/dispatchAction -->
<g id="edge6" class="edge"><title>server/main&#45;&gt;methods/server/dispatchAction</title>
<path fill="none" stroke="#757575" d="M1220.95,-287.871C1221.12,-263.67 1221.43,-219.211 1221.63,-190.393"/>
<polygon fill="#757575" stroke="#757575" points="1225.13,-190.214 1221.7,-180.189 1218.13,-190.164 1225.13,-190.214"/>
</g>
<!-- server/publications/serverActions -->
<g id="node10" class="node"><title>server/publications/serverActions</title>
<ellipse fill="none" stroke="#111111" cx="1043.83" cy="-234" rx="149.05" ry="18"/>
<text text-anchor="middle" x="1043.83" y="-230.849" font-family="Arial" font-size="14.00" fill="#111111">server/publications/serverActions</text>
</g>
<!-- server/main&#45;&gt;server/publications/serverActions -->
<g id="edge7" class="edge"><title>server/main&#45;&gt;server/publications/serverActions</title>
<path fill="none" stroke="#757575" d="M1185.86,-291.17C1159.88,-280.896 1124.04,-266.724 1094.87,-255.186"/>
<polygon fill="#757575" stroke="#757575" points="1095.84,-251.807 1085.25,-251.384 1093.26,-258.316 1095.84,-251.807"/>
</g>
<!-- server/startup/populateStoreFromMongo -->
<g id="node11" class="node"><title>server/startup/populateStoreFromMongo</title>
<ellipse fill="none" stroke="#000000" cx="1428.83" cy="-234" rx="180.416" ry="18"/>
<text text-anchor="middle" x="1428.83" y="-230.849" font-family="Arial" font-size="14.00" fill="#000000">server/startup/populateStoreFromMongo</text>
</g>
<!-- server/main&#45;&gt;server/startup/populateStoreFromMongo -->
<g id="edge8" class="edge"><title>server/main&#45;&gt;server/startup/populateStoreFromMongo</title>
<path fill="none" stroke="#757575" d="M1259.46,-291.998C1290.6,-281.517 1334.9,-266.611 1370.38,-254.671"/>
<polygon fill="#757575" stroke="#757575" points="1371.77,-257.895 1380.13,-251.388 1369.54,-251.26 1371.77,-257.895"/>
</g>
<!-- server/publications/serverActions&#45;&gt;server/streams/consequencesOfActions -->
<g id="edge9" class="edge"><title>server/publications/serverActions&#45;&gt;server/streams/consequencesOfActions</title>
<path fill="none" stroke="#757575" d="M1006.62,-216.411C984.782,-206.675 956.985,-194.281 933.666,-183.884"/>
<polygon fill="#757575" stroke="#757575" points="934.868,-180.588 924.309,-179.713 932.017,-186.981 934.868,-180.588"/>
</g>
<!-- server/publications/serverActions&#45;&gt;store -->
<g id="edge10" class="edge"><title>server/publications/serverActions&#45;&gt;store</title>
<path fill="none" stroke="#757575" d="M945.138,-220.425C860.551,-209.155 745.502,-192.518 700.826,-180 698.358,-179.309 695.841,-178.51 693.327,-177.644"/>
<polygon fill="#757575" stroke="#757575" points="694.359,-174.293 683.767,-174.051 691.896,-180.846 694.359,-174.293"/>
</g>
<!-- store/actions -->
<g id="node12" class="node"><title>store/actions</title>
<ellipse fill="none" stroke="#111111" cx="850.826" cy="-90" rx="64.3793" ry="18"/>
<text text-anchor="middle" x="850.826" y="-86.8493" font-family="Arial" font-size="14.00" fill="#111111">store/actions</text>
</g>
<!-- store/reducers/game -->
<g id="node13" class="node"><title>store/reducers/game</title>
<ellipse fill="none" stroke="#000000" cx="659.826" cy="-18" rx="97.3647" ry="18"/>
<text text-anchor="middle" x="659.826" y="-14.8493" font-family="Arial" font-size="14.00" fill="#000000">store/reducers/game</text>
</g>
<!-- store/actions&#45;&gt;store/reducers/game -->
<g id="edge13" class="edge"><title>store/actions&#45;&gt;store/reducers/game</title>
<path fill="none" stroke="#757575" d="M813.545,-75.3371C784.423,-64.6641 743.621,-49.7104 711.372,-37.8912"/>
<polygon fill="#757575" stroke="#757575" points="712.254,-34.487 701.66,-34.332 709.845,-41.0595 712.254,-34.487"/>
</g>
<!-- store/reducers/reset -->
<g id="node14" class="node"><title>store/reducers/reset</title>
<ellipse fill="none" stroke="#000000" cx="869.826" cy="-18" rx="94.6194" ry="18"/>
<text text-anchor="middle" x="869.826" y="-14.8493" font-family="Arial" font-size="14.00" fill="#000000">store/reducers/reset</text>
</g>
<!-- store/actions&#45;&gt;store/reducers/reset -->
<g id="edge14" class="edge"><title>store/actions&#45;&gt;store/reducers/reset</title>
<path fill="none" stroke="#757575" d="M855.522,-71.6966C857.639,-63.8979 860.188,-54.5085 862.543,-45.8292"/>
<polygon fill="#757575" stroke="#757575" points="865.941,-46.672 865.183,-36.1043 859.186,-44.8383 865.941,-46.672"/>
</g>
<!-- store/reducers/root&#45;&gt;store/reducers/game -->
<g id="edge15" class="edge"><title>store/reducers/root&#45;&gt;store/reducers/game</title>
<path fill="none" stroke="#757575" d="M659.826,-71.6966C659.826,-63.9827 659.826,-54.7125 659.826,-46.1124"/>
<polygon fill="#757575" stroke="#757575" points="663.326,-46.1043 659.826,-36.1043 656.326,-46.1044 663.326,-46.1043"/>
</g>
</g>
</svg>
