<?xml version="1.0" encoding="UTF-8" standalone="no"?>
<!DOCTYPE svg PUBLIC "-//W3C//DTD SVG 1.1//EN"
 "http://www.w3.org/Graphics/SVG/1.1/DTD/svg11.dtd">
<!-- Generated by graphviz version 2.38.0 (20140413.2041)
 -->
<!-- Title: G Pages: 1 -->
<svg width="1066pt" height="556pt"
 viewBox="0.00 0.00 1065.54 555.98" xmlns="http://www.w3.org/2000/svg" xmlns:xlink="http://www.w3.org/1999/xlink">
<g id="graph0" class="graph" transform="scale(1 1) rotate(0) translate(7.992 547.992)">
<title>G</title>
<polygon fill="#ffffff" stroke="none" points="-7.992,7.992 -7.992,-547.992 1057.54,-547.992 1057.54,7.992 -7.992,7.992"/>
<!-- client/listeners/dispatchServerActions -->
<g id="node1" class="node"><title>client/listeners/dispatchServerActions</title>
<ellipse fill="none" stroke="#111111" cx="562.425" cy="-450" rx="166.67" ry="18"/>
<text text-anchor="middle" x="562.425" y="-446.849" font-family="Arial" font-size="14.00" fill="#111111">client/listeners/dispatchServerActions</text>
</g>
<!-- client/streams/serverActionsStream -->
<g id="node2" class="node"><title>client/streams/serverActionsStream</title>
<ellipse fill="none" stroke="#000000" cx="811.425" cy="-378" rx="158.916" ry="18"/>
<text text-anchor="middle" x="811.425" y="-374.849" font-family="Arial" font-size="14.00" fill="#000000">client/streams/serverActionsStream</text>
</g>
<!-- client/listeners/dispatchServerActions&#45;&gt;client/streams/serverActionsStream -->
<g id="edge1" class="edge"><title>client/listeners/dispatchServerActions&#45;&gt;client/streams/serverActionsStream</title>
<path fill="none" stroke="#757575" d="M619.238,-433.028C656.685,-422.501 705.87,-408.674 745.107,-397.643"/>
<polygon fill="#757575" stroke="#757575" points="746.176,-400.979 754.855,-394.903 744.281,-394.24 746.176,-400.979"/>
</g>
<!-- store -->
<g id="node3" class="node"><title>store</title>
<ellipse fill="none" stroke="#111111" cx="516.425" cy="-378" rx="31.9343" ry="18"/>
<text text-anchor="middle" x="516.425" y="-374.849" font-family="Arial" font-size="14.00" fill="#111111">store</text>
</g>
<!-- client/listeners/dispatchServerActions&#45;&gt;store -->
<g id="edge2" class="edge"><title>client/listeners/dispatchServerActions&#45;&gt;store</title>
<path fill="none" stroke="#757575" d="M551.054,-431.697C545.489,-423.229 538.692,-412.885 532.598,-403.612"/>
<polygon fill="#757575" stroke="#757575" points="535.451,-401.579 527.034,-395.145 529.601,-405.424 535.451,-401.579"/>
</g>
<!-- store/reducers/root -->
<g id="node13" class="node"><title>store/reducers/root</title>
<ellipse fill="none" stroke="#111111" cx="471.425" cy="-162" rx="89.6971" ry="18"/>
<text text-anchor="middle" x="471.425" y="-158.849" font-family="Arial" font-size="14.00" fill="#111111">store/reducers/root</text>
</g>
<!-- store&#45;&gt;store/reducers/root -->
<g id="edge22" class="edge"><title>store&#45;&gt;store/reducers/root</title>
<path fill="none" stroke="#757575" d="M512.818,-359.849C505.018,-322.753 486.525,-234.81 477.124,-190.103"/>
<polygon fill="#757575" stroke="#757575" points="480.531,-189.298 475.048,-180.232 473.681,-190.739 480.531,-189.298"/>
</g>
<!-- store/epics/round -->
<g id="node15" class="node"><title>store/epics/round</title>
<ellipse fill="none" stroke="#111111" cx="662.425" cy="-162" rx="83.0967" ry="18"/>
<text text-anchor="middle" x="662.425" y="-158.849" font-family="Arial" font-size="14.00" fill="#111111">store/epics/round</text>
</g>
<!-- store&#45;&gt;store/epics/round -->
<g id="edge21" class="edge"><title>store&#45;&gt;store/epics/round</title>
<path fill="none" stroke="#757575" d="M527.398,-360.915C552.587,-323.994 614.715,-232.93 645.112,-188.375"/>
<polygon fill="#757575" stroke="#757575" points="648.176,-190.095 650.921,-179.862 642.394,-186.15 648.176,-190.095"/>
</g>
<!-- client/main -->
<g id="node4" class="node"><title>client/main</title>
<ellipse fill="none" stroke="#111111" cx="607.425" cy="-522" rx="55.6138" ry="18"/>
<text text-anchor="middle" x="607.425" y="-518.849" font-family="Arial" font-size="14.00" fill="#111111">client/main</text>
</g>
<!-- client/router -->
<g id="node5" class="node"><title>client/router</title>
<ellipse fill="none" stroke="#111111" cx="317.425" cy="-450" rx="59.9959" ry="18"/>
<text text-anchor="middle" x="317.425" y="-446.849" font-family="Arial" font-size="14.00" fill="#111111">client/router</text>
</g>
<!-- client/main&#45;&gt;client/router -->
<g id="edge3" class="edge"><title>client/main&#45;&gt;client/router</title>
<path fill="none" stroke="#757575" d="M563.795,-510.621C519.204,-499.993 447.959,-482.959 386.425,-468 381.798,-466.875 376.998,-465.703 372.182,-464.524"/>
<polygon fill="#757575" stroke="#757575" points="372.872,-461.089 362.326,-462.105 371.203,-467.888 372.872,-461.089"/>
</g>
<!-- client/subscribeProcessedActions -->
<g id="node6" class="node"><title>client/subscribeProcessedActions</title>
<ellipse fill="none" stroke="#111111" cx="898.425" cy="-450" rx="151.255" ry="18"/>
<text text-anchor="middle" x="898.425" y="-446.849" font-family="Arial" font-size="14.00" fill="#111111">client/subscribeProcessedActions</text>
</g>
<!-- client/main&#45;&gt;client/subscribeProcessedActions -->
<g id="edge4" class="edge"><title>client/main&#45;&gt;client/subscribeProcessedActions</title>
<path fill="none" stroke="#757575" d="M650.676,-510.596C696.434,-499.589 769.475,-482.019 824.417,-468.803"/>
<polygon fill="#757575" stroke="#757575" points="825.55,-472.13 834.454,-466.388 823.913,-465.324 825.55,-472.13"/>
</g>
<!-- client/router&#45;&gt;store -->
<g id="edge6" class="edge"><title>client/router&#45;&gt;store</title>
<path fill="none" stroke="#757575" d="M354.855,-435.834C390.978,-423.127 445.272,-404.028 480.78,-391.538"/>
<polygon fill="#757575" stroke="#757575" points="481.995,-394.821 490.267,-388.201 479.672,-388.218 481.995,-394.821"/>
</g>
<!-- components/TriviaApp -->
<g id="node7" class="node"><title>components/TriviaApp</title>
<ellipse fill="none" stroke="#111111" cx="317.425" cy="-378" rx="104.333" ry="18"/>
<text text-anchor="middle" x="317.425" y="-374.849" font-family="Arial" font-size="14.00" fill="#111111">components/TriviaApp</text>
</g>
<!-- client/router&#45;&gt;components/TriviaApp -->
<g id="edge5" class="edge"><title>client/router&#45;&gt;components/TriviaApp</title>
<path fill="none" stroke="#757575" d="M317.425,-431.697C317.425,-423.983 317.425,-414.712 317.425,-406.112"/>
<polygon fill="#757575" stroke="#757575" points="320.925,-406.104 317.425,-396.104 313.925,-406.104 320.925,-406.104"/>
</g>
<!-- client/subscribeProcessedActions&#45;&gt;client/streams/serverActionsStream -->
<g id="edge7" class="edge"><title>client/subscribeProcessedActions&#45;&gt;client/streams/serverActionsStream</title>
<path fill="none" stroke="#757575" d="M877.364,-432.055C866.332,-423.179 852.648,-412.169 840.611,-402.483"/>
<polygon fill="#757575" stroke="#757575" points="842.578,-399.574 832.592,-396.032 838.19,-405.027 842.578,-399.574"/>
</g>
<!-- components/Game -->
<g id="node8" class="node"><title>components/Game</title>
<ellipse fill="none" stroke="#111111" cx="344.425" cy="-306" rx="90.2552" ry="18"/>
<text text-anchor="middle" x="344.425" y="-302.849" font-family="Arial" font-size="14.00" fill="#111111">components/Game</text>
</g>
<!-- components/TriviaApp&#45;&gt;components/Game -->
<g id="edge12" class="edge"><title>components/TriviaApp&#45;&gt;components/Game</title>
<path fill="none" stroke="#757575" d="M324.099,-359.697C327.14,-351.813 330.807,-342.304 334.185,-333.546"/>
<polygon fill="#757575" stroke="#757575" points="337.494,-334.694 337.827,-324.104 330.963,-332.175 337.494,-334.694"/>
</g>
<!-- components/Round -->
<g id="node11" class="node"><title>components/Round</title>
<ellipse fill="none" stroke="#111111" cx="143.425" cy="-306" rx="92.4694" ry="18"/>
<text text-anchor="middle" x="143.425" y="-302.849" font-family="Arial" font-size="14.00" fill="#111111">components/Round</text>
</g>
<!-- components/TriviaApp&#45;&gt;components/Round -->
<g id="edge13" class="edge"><title>components/TriviaApp&#45;&gt;components/Round</title>
<path fill="none" stroke="#757575" d="M278.376,-361.291C252.562,-350.906 218.559,-337.226 191.143,-326.197"/>
<polygon fill="#757575" stroke="#757575" points="192.328,-322.901 181.744,-322.416 189.715,-329.395 192.328,-322.901"/>
</g>
<!-- methods/client/dispatchAction -->
<g id="node9" class="node"><title>methods/client/dispatchAction</title>
<ellipse fill="none" stroke="#000000" cx="135.425" cy="-234" rx="135.349" ry="18"/>
<text text-anchor="middle" x="135.425" y="-230.849" font-family="Arial" font-size="14.00" fill="#000000">methods/client/dispatchAction</text>
</g>
<!-- components/Game&#45;&gt;methods/client/dispatchAction -->
<g id="edge8" class="edge"><title>components/Game&#45;&gt;methods/client/dispatchAction</title>
<path fill="none" stroke="#757575" d="M300.356,-290.24C269.073,-279.763 226.78,-265.598 192.854,-254.235"/>
<polygon fill="#757575" stroke="#757575" points="193.665,-250.815 183.071,-250.958 191.442,-257.453 193.665,-250.815"/>
</g>
<!-- store/actions -->
<g id="node10" class="node"><title>store/actions</title>
<ellipse fill="none" stroke="#111111" cx="353.425" cy="-234" rx="64.3793" ry="18"/>
<text text-anchor="middle" x="353.425" y="-230.849" font-family="Arial" font-size="14.00" fill="#111111">store/actions</text>
</g>
<!-- components/Game&#45;&gt;store/actions -->
<g id="edge9" class="edge"><title>components/Game&#45;&gt;store/actions</title>
<path fill="none" stroke="#757575" d="M346.649,-287.697C347.641,-279.983 348.833,-270.712 349.939,-262.112"/>
<polygon fill="#757575" stroke="#757575" points="353.422,-262.469 351.225,-252.104 346.479,-261.576 353.422,-262.469"/>
</g>
<!-- store/reducers/game -->
<g id="node12" class="node"><title>store/reducers/game</title>
<ellipse fill="none" stroke="#111111" cx="315.425" cy="-90" rx="97.3647" ry="18"/>
<text text-anchor="middle" x="315.425" y="-86.8493" font-family="Arial" font-size="14.00" fill="#111111">store/reducers/game</text>
</g>
<!-- store/actions&#45;&gt;store/reducers/game -->
<g id="edge14" class="edge"><title>store/actions&#45;&gt;store/reducers/game</title>
<path fill="none" stroke="#757575" d="M348.841,-215.871C342.336,-191.564 330.362,-146.819 322.654,-118.013"/>
<polygon fill="#757575" stroke="#757575" points="325.991,-116.945 320.025,-108.189 319.229,-118.754 325.991,-116.945"/>
</g>
<!-- store/actions&#45;&gt;store/reducers/root -->
<g id="edge15" class="edge"><title>store/actions&#45;&gt;store/reducers/root</title>
<path fill="none" stroke="#757575" d="M379.613,-217.465C395.918,-207.792 417.125,-195.212 435.049,-184.579"/>
<polygon fill="#757575" stroke="#757575" points="437.265,-187.334 444.08,-179.222 433.693,-181.313 437.265,-187.334"/>
</g>
<!-- store/reducers/round -->
<g id="node14" class="node"><title>store/reducers/round</title>
<ellipse fill="none" stroke="#000000" cx="528.425" cy="-90" rx="97.923" ry="18"/>
<text text-anchor="middle" x="528.425" y="-86.8493" font-family="Arial" font-size="14.00" fill="#000000">store/reducers/round</text>
</g>
<!-- store/actions&#45;&gt;store/reducers/round -->
<g id="edge16" class="edge"><title>store/actions&#45;&gt;store/reducers/round</title>
<path fill="none" stroke="#757575" d="M352.364,-215.712C352.116,-195.966 354.787,-163.836 372.425,-144 390.205,-124.003 415.822,-111.544 441.174,-103.783"/>
<polygon fill="#757575" stroke="#757575" points="442.197,-107.131 450.861,-101.033 440.285,-100.398 442.197,-107.131"/>
</g>
<!-- components/Round&#45;&gt;methods/client/dispatchAction -->
<g id="edge10" class="edge"><title>components/Round&#45;&gt;methods/client/dispatchAction</title>
<path fill="none" stroke="#757575" d="M141.447,-287.697C140.565,-279.983 139.506,-270.712 138.523,-262.112"/>
<polygon fill="#757575" stroke="#757575" points="141.992,-261.642 137.379,-252.104 135.038,-262.437 141.992,-261.642"/>
</g>
<!-- components/Round&#45;&gt;store/actions -->
<g id="edge11" class="edge"><title>components/Round&#45;&gt;store/actions</title>
<path fill="none" stroke="#757575" d="M187.96,-290.155C221.966,-278.82 268.807,-263.206 303.974,-251.484"/>
<polygon fill="#757575" stroke="#757575" points="305.182,-254.77 313.562,-248.287 302.969,-248.129 305.182,-254.77"/>
</g>
<!-- store/reducers/createStatefulImmutableReducer -->
<g id="node16" class="node"><title>store/reducers/createStatefulImmutableReducer</title>
<ellipse fill="none" stroke="#000000" cx="315.425" cy="-18" rx="211.215" ry="18"/>
<text text-anchor="middle" x="315.425" y="-14.8493" font-family="Arial" font-size="14.00" fill="#000000">store/reducers/createStatefulImmutableReducer</text>
</g>
<!-- store/reducers/game&#45;&gt;store/reducers/createStatefulImmutableReducer -->
<g id="edge18" class="edge"><title>store/reducers/game&#45;&gt;store/reducers/createStatefulImmutableReducer</title>
<path fill="none" stroke="#757575" d="M315.425,-71.6966C315.425,-63.9827 315.425,-54.7125 315.425,-46.1124"/>
<polygon fill="#757575" stroke="#757575" points="318.925,-46.1043 315.425,-36.1043 311.925,-46.1044 318.925,-46.1043"/>
</g>
<!-- store/reducers/root&#45;&gt;store/reducers/game -->
<g id="edge19" class="edge"><title>store/reducers/root&#45;&gt;store/reducers/game</title>
<path fill="none" stroke="#757575" d="M436.415,-145.291C413.893,-135.184 384.415,-121.957 360.196,-111.09"/>
<polygon fill="#757575" stroke="#757575" points="361.413,-107.8 350.857,-106.899 358.548,-114.186 361.413,-107.8"/>
</g>
<!-- store/reducers/root&#45;&gt;store/reducers/round -->
<g id="edge20" class="edge"><title>store/reducers/root&#45;&gt;store/reducers/round</title>
<path fill="none" stroke="#757575" d="M485.223,-144.055C492.052,-135.668 500.433,-125.376 507.989,-116.096"/>
<polygon fill="#757575" stroke="#757575" points="510.757,-118.24 514.358,-108.275 505.329,-113.82 510.757,-118.24"/>
</g>
<!-- store/epics/round&#45;&gt;store/reducers/round -->
<g id="edge17" class="edge"><title>store/epics/round&#45;&gt;store/reducers/round</title>
<path fill="none" stroke="#757575" d="M632.018,-145.116C613.268,-135.321 589.004,-122.646 568.672,-112.025"/>
<polygon fill="#757575" stroke="#757575" points="570.125,-108.835 559.641,-107.307 566.884,-115.039 570.125,-108.835"/>
</g>
</g>
</svg>
