<?xml version="1.0" encoding="UTF-8" standalone="no"?>
<!DOCTYPE svg PUBLIC "-//W3C//DTD SVG 1.1//EN"
 "http://www.w3.org/Graphics/SVG/1.1/DTD/svg11.dtd">
<!-- Generated by graphviz version 2.38.0 (20140413.2041)
 -->
<!-- Title: G Pages: 1 -->
<svg width="1624pt" height="340pt"
 viewBox="0.00 0.00 1624.45 339.98" xmlns="http://www.w3.org/2000/svg" xmlns:xlink="http://www.w3.org/1999/xlink">
<g id="graph0" class="graph" transform="scale(1 1) rotate(0) translate(7.992 331.992)">
<title>G</title>
<polygon fill="#ffffff" stroke="none" points="-7.992,7.992 -7.992,-331.992 1616.46,-331.992 1616.46,7.992 -7.992,7.992"/>
<!-- collections -->
<g id="node1" class="node"><title>collections</title>
<ellipse fill="none" stroke="#000000" cx="821.011" cy="-234" rx="54.5254" ry="18"/>
<text text-anchor="middle" x="821.011" y="-230.849" font-family="Arial" font-size="14.00" fill="#000000">collections</text>
</g>
<!-- methods/server/dispatchAction -->
<g id="node2" class="node"><title>methods/server/dispatchAction</title>
<ellipse fill="none" stroke="#111111" cx="1204.01" cy="-162" rx="139.714" ry="18"/>
<text text-anchor="middle" x="1204.01" y="-158.849" font-family="Arial" font-size="14.00" fill="#111111">methods/server/dispatchAction</text>
</g>
<!-- server/streams/incomingClientActions -->
<g id="node3" class="node"><title>server/streams/incomingClientActions</title>
<ellipse fill="none" stroke="#000000" cx="1160.01" cy="-90" rx="168.28" ry="18"/>
<text text-anchor="middle" x="1160.01" y="-86.8493" font-family="Arial" font-size="14.00" fill="#000000">server/streams/incomingClientActions</text>
</g>
<!-- methods/server/dispatchAction&#45;&gt;server/streams/incomingClientActions -->
<g id="edge1" class="edge"><title>methods/server/dispatchAction&#45;&gt;server/streams/incomingClientActions</title>
<path fill="none" stroke="#757575" d="M1193.13,-143.697C1188.02,-135.559 1181.82,-125.689 1176.17,-116.701"/>
<polygon fill="#757575" stroke="#757575" points="1179.05,-114.708 1170.76,-108.104 1173.12,-118.433 1179.05,-114.708"/>
</g>
<!-- server/listeners/dispatchConsequencesOfActions -->
<g id="node4" class="node"><title>server/listeners/dispatchConsequencesOfActions</title>
<ellipse fill="none" stroke="#111111" cx="532.011" cy="-234" rx="216.147" ry="18"/>
<text text-anchor="middle" x="532.011" y="-230.849" font-family="Arial" font-size="14.00" fill="#111111">server/listeners/dispatchConsequencesOfActions</text>
</g>
<!-- server/streams/consequencesOfActions -->
<g id="node5" class="node"><title>server/streams/consequencesOfActions</title>
<ellipse fill="none" stroke="#111111" cx="853.011" cy="-162" rx="177.113" ry="18"/>
<text text-anchor="middle" x="853.011" y="-158.849" font-family="Arial" font-size="14.00" fill="#111111">server/streams/consequencesOfActions</text>
</g>
<!-- server/listeners/dispatchConsequencesOfActions&#45;&gt;server/streams/consequencesOfActions -->
<g id="edge2" class="edge"><title>server/listeners/dispatchConsequencesOfActions&#45;&gt;server/streams/consequencesOfActions</title>
<path fill="none" stroke="#757575" d="M605.252,-217.028C654.866,-206.209 720.462,-191.905 771.695,-180.732"/>
<polygon fill="#757575" stroke="#757575" points="772.716,-184.092 781.741,-178.542 771.225,-177.253 772.716,-184.092"/>
</g>
<!-- store -->
<g id="node6" class="node"><title>store</title>
<ellipse fill="none" stroke="#111111" cx="595.011" cy="-162" rx="31.9343" ry="18"/>
<text text-anchor="middle" x="595.011" y="-158.849" font-family="Arial" font-size="14.00" fill="#111111">store</text>
</g>
<!-- server/listeners/dispatchConsequencesOfActions&#45;&gt;store -->
<g id="edge3" class="edge"><title>server/listeners/dispatchConsequencesOfActions&#45;&gt;store</title>
<path fill="none" stroke="#757575" d="M547.584,-215.697C555.555,-206.84 565.372,-195.932 574.003,-186.343"/>
<polygon fill="#757575" stroke="#757575" points="576.819,-188.446 580.907,-178.671 571.616,-183.763 576.819,-188.446"/>
</g>
<!-- server/streams/consequencesOfActions&#45;&gt;server/streams/incomingClientActions -->
<g id="edge11" class="edge"><title>server/streams/consequencesOfActions&#45;&gt;server/streams/incomingClientActions</title>
<path fill="none" stroke="#757575" d="M921.526,-145.378C969.058,-134.54 1032.47,-120.082 1081.95,-108.799"/>
<polygon fill="#757575" stroke="#757575" points="1083,-112.15 1091.97,-106.514 1081.44,-105.325 1083,-112.15"/>
</g>
<!-- store/actions -->
<g id="node12" class="node"><title>store/actions</title>
<ellipse fill="none" stroke="#111111" cx="847.011" cy="-90" rx="64.3793" ry="18"/>
<text text-anchor="middle" x="847.011" y="-86.8493" font-family="Arial" font-size="14.00" fill="#111111">store/actions</text>
</g>
<!-- server/streams/consequencesOfActions&#45;&gt;store/actions -->
<g id="edge12" class="edge"><title>server/streams/consequencesOfActions&#45;&gt;store/actions</title>
<path fill="none" stroke="#757575" d="M851.528,-143.697C850.867,-135.983 850.072,-126.712 849.335,-118.112"/>
<polygon fill="#757575" stroke="#757575" points="852.818,-117.769 848.477,-108.104 845.844,-118.367 852.818,-117.769"/>
</g>
<!-- store/reducers/root -->
<g id="node15" class="node"><title>store/reducers/root</title>
<ellipse fill="none" stroke="#111111" cx="619.011" cy="-90" rx="89.6971" ry="18"/>
<text text-anchor="middle" x="619.011" y="-86.8493" font-family="Arial" font-size="14.00" fill="#111111">store/reducers/root</text>
</g>
<!-- store&#45;&gt;store/reducers/root -->
<g id="edge17" class="edge"><title>store&#45;&gt;store/reducers/root</title>
<path fill="none" stroke="#757575" d="M600.821,-144.055C603.522,-136.176 606.8,-126.617 609.824,-117.794"/>
<polygon fill="#757575" stroke="#757575" points="613.156,-118.87 613.088,-108.275 606.534,-116.6 613.156,-118.87"/>
</g>
<!-- server/listeners/writeActionsToMongo -->
<g id="node7" class="node"><title>server/listeners/writeActionsToMongo</title>
<ellipse fill="none" stroke="#111111" cx="485.011" cy="-306" rx="166.651" ry="18"/>
<text text-anchor="middle" x="485.011" y="-302.849" font-family="Arial" font-size="14.00" fill="#111111">server/listeners/writeActionsToMongo</text>
</g>
<!-- server/listeners/writeActionsToMongo&#45;&gt;collections -->
<g id="edge4" class="edge"><title>server/listeners/writeActionsToMongo&#45;&gt;collections</title>
<path fill="none" stroke="#757575" d="M568.045,-290.317C622.069,-280.396 693.949,-266.502 757.011,-252 761.416,-250.987 765.977,-249.884 770.542,-248.743"/>
<polygon fill="#757575" stroke="#757575" points="771.662,-252.07 780.485,-246.204 769.93,-245.287 771.662,-252.07"/>
</g>
<!-- server/streams/storeStateStream -->
<g id="node8" class="node"><title>server/streams/storeStateStream</title>
<ellipse fill="none" stroke="#111111" cx="149.011" cy="-234" rx="149.022" ry="18"/>
<text text-anchor="middle" x="149.011" y="-230.849" font-family="Arial" font-size="14.00" fill="#111111">server/streams/storeStateStream</text>
</g>
<!-- server/listeners/writeActionsToMongo&#45;&gt;server/streams/storeStateStream -->
<g id="edge5" class="edge"><title>server/listeners/writeActionsToMongo&#45;&gt;server/streams/storeStateStream</title>
<path fill="none" stroke="#757575" d="M411.69,-289.725C358.155,-278.572 285.577,-263.451 230.276,-251.93"/>
<polygon fill="#757575" stroke="#757575" points="230.663,-248.436 220.159,-249.823 229.235,-255.289 230.663,-248.436"/>
</g>
<!-- server/streams/storeStateStream&#45;&gt;store -->
<g id="edge13" class="edge"><title>server/streams/storeStateStream&#45;&gt;store</title>
<path fill="none" stroke="#757575" d="M236.063,-219.337C332.349,-204.225 483.315,-180.531 554.845,-169.304"/>
<polygon fill="#757575" stroke="#757575" points="555.47,-172.749 564.807,-167.741 554.385,-165.834 555.47,-172.749"/>
</g>
<!-- server/main -->
<g id="node9" class="node"><title>server/main</title>
<ellipse fill="none" stroke="#111111" cx="1220.01" cy="-306" rx="59.9775" ry="18"/>
<text text-anchor="middle" x="1220.01" y="-302.849" font-family="Arial" font-size="14.00" fill="#111111">server/main</text>
</g>
<!-- server/main&#45;&gt;methods/server/dispatchAction -->
<g id="edge6" class="edge"><title>server/main&#45;&gt;methods/server/dispatchAction</title>
<path fill="none" stroke="#757575" d="M1218.08,-287.871C1215.35,-263.67 1210.34,-219.211 1207.1,-190.393"/>
<polygon fill="#757575" stroke="#757575" points="1210.55,-189.734 1205.95,-180.189 1203.59,-190.518 1210.55,-189.734"/>
</g>
<!-- server/publications/serverActions -->
<g id="node10" class="node"><title>server/publications/serverActions</title>
<ellipse fill="none" stroke="#111111" cx="1043.01" cy="-234" rx="149.05" ry="18"/>
<text text-anchor="middle" x="1043.01" y="-230.849" font-family="Arial" font-size="14.00" fill="#111111">server/publications/serverActions</text>
</g>
<!-- server/main&#45;&gt;server/publications/serverActions -->
<g id="edge7" class="edge"><title>server/main&#45;&gt;server/publications/serverActions</title>
<path fill="none" stroke="#757575" d="M1185.04,-291.17C1159.06,-280.896 1123.23,-266.724 1094.05,-255.186"/>
<polygon fill="#757575" stroke="#757575" points="1095.02,-251.807 1084.44,-251.384 1092.45,-258.316 1095.02,-251.807"/>
</g>
<!-- server/startup/populateStoreFromMongo -->
<g id="node11" class="node"><title>server/startup/populateStoreFromMongo</title>
<ellipse fill="none" stroke="#000000" cx="1428.01" cy="-234" rx="180.416" ry="18"/>
<text text-anchor="middle" x="1428.01" y="-230.849" font-family="Arial" font-size="14.00" fill="#000000">server/startup/populateStoreFromMongo</text>
</g>
<!-- server/main&#45;&gt;server/startup/populateStoreFromMongo -->
<g id="edge8" class="edge"><title>server/main&#45;&gt;server/startup/populateStoreFromMongo</title>
<path fill="none" stroke="#757575" d="M1258.65,-291.998C1289.79,-281.517 1334.08,-266.611 1369.56,-254.671"/>
<polygon fill="#757575" stroke="#757575" points="1370.95,-257.895 1379.32,-251.388 1368.72,-251.26 1370.95,-257.895"/>
</g>
<!-- server/publications/serverActions&#45;&gt;server/streams/consequencesOfActions -->
<g id="edge9" class="edge"><title>server/publications/serverActions&#45;&gt;server/streams/consequencesOfActions</title>
<path fill="none" stroke="#757575" d="M998.944,-216.765C971.662,-206.713 936.423,-193.731 907.408,-183.041"/>
<polygon fill="#757575" stroke="#757575" points="908.421,-179.684 897.828,-179.511 906.001,-186.253 908.421,-179.684"/>
</g>
<!-- server/publications/serverActions&#45;&gt;store -->
<g id="edge10" class="edge"><title>server/publications/serverActions&#45;&gt;store</title>
<path fill="none" stroke="#757575" d="M939.66,-221.027C863.889,-211.619 758.684,-197.246 667.011,-180 656.011,-177.931 644.156,-175.3 633.304,-172.73"/>
<polygon fill="#757575" stroke="#757575" points="633.808,-169.252 623.266,-170.305 632.165,-176.056 633.808,-169.252"/>
</g>
<!-- store/reducers/game -->
<g id="node13" class="node"><title>store/reducers/game</title>
<ellipse fill="none" stroke="#000000" cx="631.011" cy="-18" rx="97.3647" ry="18"/>
<text text-anchor="middle" x="631.011" y="-14.8493" font-family="Arial" font-size="14.00" fill="#000000">store/reducers/game</text>
</g>
<!-- store/actions&#45;&gt;store/reducers/game -->
<g id="edge14" class="edge"><title>store/actions&#45;&gt;store/reducers/game</title>
<path fill="none" stroke="#757575" d="M806.636,-75.9157C772.897,-64.9817 724.425,-49.2731 686.948,-37.1276"/>
<polygon fill="#757575" stroke="#757575" points="687.774,-33.7163 677.182,-33.9629 685.616,-40.3754 687.774,-33.7163"/>
</g>
<!-- store/reducers/reset -->
<g id="node14" class="node"><title>store/reducers/reset</title>
<ellipse fill="none" stroke="#000000" cx="847.011" cy="-18" rx="94.6194" ry="18"/>
<text text-anchor="middle" x="847.011" y="-14.8493" font-family="Arial" font-size="14.00" fill="#000000">store/reducers/reset</text>
</g>
<!-- store/actions&#45;&gt;store/reducers/reset -->
<g id="edge15" class="edge"><title>store/actions&#45;&gt;store/reducers/reset</title>
<path fill="none" stroke="#757575" d="M847.011,-71.6966C847.011,-63.9827 847.011,-54.7125 847.011,-46.1124"/>
<polygon fill="#757575" stroke="#757575" points="850.511,-46.1043 847.011,-36.1043 843.511,-46.1044 850.511,-46.1043"/>
</g>
<!-- store/reducers/root&#45;&gt;store/reducers/game -->
<g id="edge16" class="edge"><title>store/reducers/root&#45;&gt;store/reducers/game</title>
<path fill="none" stroke="#757575" d="M621.977,-71.6966C623.3,-63.9827 624.889,-54.7125 626.363,-46.1124"/>
<polygon fill="#757575" stroke="#757575" points="629.839,-46.552 628.079,-36.1043 622.939,-45.3692 629.839,-46.552"/>
</g>
</g>
</svg>
