<?xml version="1.0" encoding="UTF-8" standalone="no"?>
<!DOCTYPE svg PUBLIC "-//W3C//DTD SVG 1.1//EN"
 "http://www.w3.org/Graphics/SVG/1.1/DTD/svg11.dtd">
<!-- Generated by graphviz version 2.38.0 (20140413.2041)
 -->
<!-- Title: G Pages: 1 -->
<svg width="1002pt" height="484pt"
 viewBox="0.00 0.00 1001.60 483.98" xmlns="http://www.w3.org/2000/svg" xmlns:xlink="http://www.w3.org/1999/xlink">
<g id="graph0" class="graph" transform="scale(1 1) rotate(0) translate(7.992 475.992)">
<title>G</title>
<polygon fill="#ffffff" stroke="none" points="-7.992,7.992 -7.992,-475.992 993.604,-475.992 993.604,7.992 -7.992,7.992"/>
<!-- client/listeners/dispatchServerActions -->
<g id="node1" class="node"><title>client/listeners/dispatchServerActions</title>
<ellipse fill="none" stroke="#111111" cx="498.485" cy="-378" rx="166.67" ry="18"/>
<text text-anchor="middle" x="498.485" y="-374.849" font-family="Arial" font-size="14.00" fill="#111111">client/listeners/dispatchServerActions</text>
</g>
<!-- client/streams/serverActionsStream -->
<g id="node2" class="node"><title>client/streams/serverActionsStream</title>
<ellipse fill="none" stroke="#000000" cx="757.485" cy="-306" rx="158.916" ry="18"/>
<text text-anchor="middle" x="757.485" y="-302.849" font-family="Arial" font-size="14.00" fill="#000000">client/streams/serverActionsStream</text>
</g>
<!-- client/listeners/dispatchServerActions&#45;&gt;client/streams/serverActionsStream -->
<g id="edge1" class="edge"><title>client/listeners/dispatchServerActions&#45;&gt;client/streams/serverActionsStream</title>
<path fill="none" stroke="#757575" d="M557.256,-361.116C596.497,-350.51 648.237,-336.527 689.29,-325.431"/>
<polygon fill="#757575" stroke="#757575" points="690.206,-328.809 698.946,-322.821 688.379,-322.052 690.206,-328.809"/>
</g>
<!-- store -->
<g id="node3" class="node"><title>store</title>
<ellipse fill="none" stroke="#111111" cx="464.485" cy="-306" rx="31.9343" ry="18"/>
<text text-anchor="middle" x="464.485" y="-302.849" font-family="Arial" font-size="14.00" fill="#111111">store</text>
</g>
<!-- client/listeners/dispatchServerActions&#45;&gt;store -->
<g id="edge2" class="edge"><title>client/listeners/dispatchServerActions&#45;&gt;store</title>
<path fill="none" stroke="#757575" d="M490.08,-359.697C486.152,-351.609 481.393,-341.812 477.05,-332.869"/>
<polygon fill="#757575" stroke="#757575" points="480.076,-331.088 472.558,-323.622 473.779,-334.147 480.076,-331.088"/>
</g>
<!-- store/reducers/root -->
<g id="node13" class="node"><title>store/reducers/root</title>
<ellipse fill="none" stroke="#111111" cx="201.485" cy="-90" rx="89.6971" ry="18"/>
<text text-anchor="middle" x="201.485" y="-86.8493" font-family="Arial" font-size="14.00" fill="#111111">store/reducers/root</text>
</g>
<!-- store&#45;&gt;store/reducers/root -->
<g id="edge17" class="edge"><title>store&#45;&gt;store/reducers/root</title>
<path fill="none" stroke="#757575" d="M468.186,-288.107C474.215,-255.671 482.094,-184.321 445.485,-144 424.783,-121.199 351.893,-107.381 291.125,-99.5989"/>
<polygon fill="#757575" stroke="#757575" points="291.455,-96.1131 281.101,-98.3548 290.593,-103.06 291.455,-96.1131"/>
</g>
<!-- client/main -->
<g id="node4" class="node"><title>client/main</title>
<ellipse fill="none" stroke="#111111" cx="543.485" cy="-450" rx="55.6138" ry="18"/>
<text text-anchor="middle" x="543.485" y="-446.849" font-family="Arial" font-size="14.00" fill="#111111">client/main</text>
</g>
<!-- client/routes -->
<g id="node5" class="node"><title>client/routes</title>
<ellipse fill="none" stroke="#111111" cx="252.485" cy="-378" rx="61.643" ry="18"/>
<text text-anchor="middle" x="252.485" y="-374.849" font-family="Arial" font-size="14.00" fill="#111111">client/routes</text>
</g>
<!-- client/main&#45;&gt;client/routes -->
<g id="edge3" class="edge"><title>client/main&#45;&gt;client/routes</title>
<path fill="none" stroke="#757575" d="M499.866,-438.578C455.282,-427.917 384.044,-410.857 322.485,-396 317.865,-394.885 313.074,-393.727 308.266,-392.562"/>
<polygon fill="#757575" stroke="#757575" points="308.961,-389.129 298.418,-390.175 307.312,-395.932 308.961,-389.129"/>
</g>
<!-- client/subscribeProcessedActions -->
<g id="node6" class="node"><title>client/subscribeProcessedActions</title>
<ellipse fill="#E8ECF5" stroke="#111111" cx="834.485" cy="-378" rx="151.255" ry="18"/>
<text text-anchor="middle" x="834.485" y="-374.849" font-family="Arial" font-size="14.00" fill="#111111">client/subscribeProcessedActions</text>
</g>
<!-- client/main&#45;&gt;client/subscribeProcessedActions -->
<g id="edge4" class="edge"><title>client/main&#45;&gt;client/subscribeProcessedActions</title>
<path fill="none" stroke="#757575" d="M586.736,-438.596C632.495,-427.589 705.535,-410.019 760.477,-396.803"/>
<polygon fill="#757575" stroke="#757575" points="761.61,-400.13 770.515,-394.388 759.973,-393.324 761.61,-400.13"/>
</g>
<!-- client/routes&#45;&gt;store -->
<g id="edge6" class="edge"><title>client/routes&#45;&gt;store</title>
<path fill="none" stroke="#757575" d="M291.863,-363.998C330.885,-351.113 390.164,-331.54 428.106,-319.012"/>
<polygon fill="#757575" stroke="#757575" points="429.338,-322.291 437.736,-315.832 427.143,-315.644 429.338,-322.291"/>
</g>
<!-- components/TriviaApp -->
<g id="node7" class="node"><title>components/TriviaApp</title>
<ellipse fill="none" stroke="#111111" cx="252.485" cy="-306" rx="104.333" ry="18"/>
<text text-anchor="middle" x="252.485" y="-302.849" font-family="Arial" font-size="14.00" fill="#111111">components/TriviaApp</text>
</g>
<!-- client/routes&#45;&gt;components/TriviaApp -->
<g id="edge5" class="edge"><title>client/routes&#45;&gt;components/TriviaApp</title>
<path fill="none" stroke="#757575" d="M252.485,-359.697C252.485,-351.983 252.485,-342.712 252.485,-334.112"/>
<polygon fill="#757575" stroke="#757575" points="255.985,-334.104 252.485,-324.104 248.985,-334.104 255.985,-334.104"/>
</g>
<!-- client/subscribeProcessedActions&#45;&gt;client/streams/serverActionsStream -->
<g id="edge7" class="edge"><title>client/subscribeProcessedActions&#45;&gt;client/streams/serverActionsStream</title>
<path fill="none" stroke="#757575" d="M815.845,-360.055C806.175,-351.264 794.203,-340.38 783.624,-330.763"/>
<polygon fill="#757575" stroke="#757575" points="785.973,-328.169 776.219,-324.032 781.265,-333.348 785.973,-328.169"/>
</g>
<!-- components/Game -->
<g id="node8" class="node"><title>components/Game</title>
<ellipse fill="none" stroke="#111111" cx="293.485" cy="-234" rx="90.2552" ry="18"/>
<text text-anchor="middle" x="293.485" y="-230.849" font-family="Arial" font-size="14.00" fill="#111111">components/Game</text>
</g>
<!-- components/TriviaApp&#45;&gt;components/Game -->
<g id="edge12" class="edge"><title>components/TriviaApp&#45;&gt;components/Game</title>
<path fill="none" stroke="#757575" d="M262.41,-288.055C267.173,-279.922 272.986,-269.998 278.29,-260.943"/>
<polygon fill="#757575" stroke="#757575" points="281.332,-262.673 283.366,-252.275 275.292,-259.135 281.332,-262.673"/>
</g>
<!-- components/Round -->
<g id="node11" class="node"><title>components/Round</title>
<ellipse fill="none" stroke="#111111" cx="92.4847" cy="-234" rx="92.4694" ry="18"/>
<text text-anchor="middle" x="92.4847" y="-230.849" font-family="Arial" font-size="14.00" fill="#111111">components/Round</text>
</g>
<!-- components/TriviaApp&#45;&gt;components/Round -->
<g id="edge13" class="edge"><title>components/TriviaApp&#45;&gt;components/Round</title>
<path fill="none" stroke="#757575" d="M216.178,-289.116C192.878,-278.922 162.444,-265.607 137.595,-254.736"/>
<polygon fill="#757575" stroke="#757575" points="138.936,-251.502 128.372,-250.701 136.13,-257.915 138.936,-251.502"/>
</g>
<!-- methods/client/dispatchAction -->
<g id="node9" class="node"><title>methods/client/dispatchAction</title>
<ellipse fill="#ee6666" stroke="#000000" cx="301.485" cy="-162" rx="135.349" ry="18"/>
<text text-anchor="middle" x="301.485" y="-158.849" font-family="Arial" font-size="14.00" fill="#000000">methods/client/dispatchAction</text>
</g>
<!-- components/Game&#45;&gt;methods/client/dispatchAction -->
<g id="edge8" class="edge"><title>components/Game&#45;&gt;methods/client/dispatchAction</title>
<path fill="none" stroke="#757575" d="M295.462,-215.697C296.344,-207.983 297.403,-198.712 298.386,-190.112"/>
<polygon fill="#757575" stroke="#757575" points="301.872,-190.437 299.53,-180.104 294.917,-189.642 301.872,-190.437"/>
</g>
<!-- store/actions -->
<g id="node10" class="node"><title>store/actions</title>
<ellipse fill="none" stroke="#111111" cx="83.4847" cy="-162" rx="64.3793" ry="18"/>
<text text-anchor="middle" x="83.4847" y="-158.849" font-family="Arial" font-size="14.00" fill="#111111">store/actions</text>
</g>
<!-- components/Game&#45;&gt;store/actions -->
<g id="edge9" class="edge"><title>components/Game&#45;&gt;store/actions</title>
<path fill="none" stroke="#757575" d="M249.206,-218.24C215.108,-206.874 167.993,-191.169 132.713,-179.409"/>
<polygon fill="#757575" stroke="#757575" points="133.691,-176.046 123.097,-176.204 131.477,-182.687 133.691,-176.046"/>
</g>
<!-- store/reducers/game -->
<g id="node12" class="node"><title>store/reducers/game</title>
<ellipse fill="none" stroke="#000000" cx="142.485" cy="-18" rx="97.3647" ry="18"/>
<text text-anchor="middle" x="142.485" y="-14.8493" font-family="Arial" font-size="14.00" fill="#000000">store/reducers/game</text>
</g>
<!-- store/actions&#45;&gt;store/reducers/game -->
<g id="edge14" class="edge"><title>store/actions&#45;&gt;store/reducers/game</title>
<path fill="none" stroke="#757575" d="M84.9119,-143.91C86.9502,-125.466 91.7203,-95.5695 102.485,-72 107.01,-62.0907 113.645,-52.2753 120.216,-43.8346"/>
<polygon fill="#757575" stroke="#757575" points="123.079,-45.8622 126.684,-35.8997 117.653,-41.4392 123.079,-45.8622"/>
</g>
<!-- store/actions&#45;&gt;store/reducers/root -->
<g id="edge15" class="edge"><title>store/actions&#45;&gt;store/reducers/root</title>
<path fill="none" stroke="#757575" d="M109.673,-145.465C125.978,-135.792 147.185,-123.212 165.109,-112.579"/>
<polygon fill="#757575" stroke="#757575" points="167.325,-115.334 174.14,-107.222 163.753,-109.313 167.325,-115.334"/>
</g>
<!-- components/Round&#45;&gt;methods/client/dispatchAction -->
<g id="edge10" class="edge"><title>components/Round&#45;&gt;methods/client/dispatchAction</title>
<path fill="none" stroke="#757575" d="M136.808,-218.155C168.108,-207.672 210.334,-193.529 244.19,-182.19"/>
<polygon fill="#757575" stroke="#757575" points="245.582,-185.414 253.953,-178.92 243.359,-178.777 245.582,-185.414"/>
</g>
<!-- components/Round&#45;&gt;store/actions -->
<g id="edge11" class="edge"><title>components/Round&#45;&gt;store/actions</title>
<path fill="none" stroke="#757575" d="M90.26,-215.697C89.2682,-207.983 88.0763,-198.712 86.9706,-190.112"/>
<polygon fill="#757575" stroke="#757575" points="90.4306,-189.576 85.6838,-180.104 83.4877,-190.469 90.4306,-189.576"/>
</g>
<!-- store/reducers/root&#45;&gt;store/reducers/game -->
<g id="edge16" class="edge"><title>store/reducers/root&#45;&gt;store/reducers/game</title>
<path fill="none" stroke="#757575" d="M187.202,-72.055C180.133,-63.6679 171.459,-53.376 163.637,-44.0963"/>
<polygon fill="#757575" stroke="#757575" points="166.166,-41.6659 157.045,-36.2753 160.814,-46.1773 166.166,-41.6659"/>
</g>
</g>
</svg>
