<?xml version="1.0" encoding="UTF-8" standalone="no"?>
<!DOCTYPE svg PUBLIC "-//W3C//DTD SVG 1.1//EN"
 "http://www.w3.org/Graphics/SVG/1.1/DTD/svg11.dtd">
<!-- Generated by graphviz version 2.38.0 (20140413.2041)
 -->
<!-- Title: G Pages: 1 -->
<svg width="882pt" height="412pt"
 viewBox="0.00 0.00 881.64 411.98" xmlns="http://www.w3.org/2000/svg" xmlns:xlink="http://www.w3.org/1999/xlink">
<g id="graph0" class="graph" transform="scale(1 1) rotate(0) translate(7.992 403.992)">
<title>G</title>
<polygon fill="#ffffff" stroke="none" points="-7.992,7.992 -7.992,-403.992 873.647,-403.992 873.647,7.992 -7.992,7.992"/>
<!-- server/listeners/dispatchActionsToStore -->
<g id="node1" class="node"><title>server/listeners/dispatchActionsToStore</title>
<ellipse fill="none" stroke="#111111" cx="287.607" cy="-306" rx="175.975" ry="18"/>
<text text-anchor="middle" x="287.607" y="-302.849" font-family="Arial" font-size="14.00" fill="#111111">server/listeners/dispatchActionsToStore</text>
</g>
<!-- server/methods/dispatchAction -->
<g id="node2" class="node"><title>server/methods/dispatchAction</title>
<ellipse fill="#E8ECF5" stroke="#000000" cx="139.607" cy="-234" rx="139.714" ry="18"/>
<text text-anchor="middle" x="139.607" y="-230.849" font-family="Arial" font-size="14.00" fill="#000000">server/methods/dispatchAction</text>
</g>
<!-- server/listeners/dispatchActionsToStore&#45;&gt;server/methods/dispatchAction -->
<g id="edge1" class="edge"><title>server/listeners/dispatchActionsToStore&#45;&gt;server/methods/dispatchAction</title>
<path fill="none" stroke="#757575" d="M252.157,-288.233C231.58,-278.501 205.485,-266.158 183.603,-255.809"/>
<polygon fill="#757575" stroke="#757575" points="185.048,-252.621 174.512,-251.509 182.055,-258.949 185.048,-252.621"/>
</g>
<!-- store -->
<g id="node3" class="node"><title>store</title>
<ellipse fill="none" stroke="#111111" cx="619.607" cy="-234" rx="31.9343" ry="18"/>
<text text-anchor="middle" x="619.607" y="-230.849" font-family="Arial" font-size="14.00" fill="#111111">store</text>
</g>
<!-- server/listeners/dispatchActionsToStore&#45;&gt;store -->
<g id="edge2" class="edge"><title>server/listeners/dispatchActionsToStore&#45;&gt;store</title>
<path fill="none" stroke="#757575" d="M364.786,-289.773C416.343,-279.461 485.628,-265.337 546.607,-252 557.8,-249.552 569.928,-246.777 581.025,-244.189"/>
<polygon fill="#757575" stroke="#757575" points="581.933,-247.572 590.87,-241.881 580.335,-240.756 581.933,-247.572"/>
</g>
<!-- store/reducers/root -->
<g id="node8" class="node"><title>store/reducers/root</title>
<ellipse fill="none" stroke="#111111" cx="591.607" cy="-162" rx="89.6971" ry="18"/>
<text text-anchor="middle" x="591.607" y="-158.849" font-family="Arial" font-size="14.00" fill="#111111">store/reducers/root</text>
</g>
<!-- store&#45;&gt;store/reducers/root -->
<g id="edge15" class="edge"><title>store&#45;&gt;store/reducers/root</title>
<path fill="none" stroke="#757575" d="M612.829,-216.055C609.677,-208.176 605.853,-198.617 602.324,-189.794"/>
<polygon fill="#757575" stroke="#757575" points="605.481,-188.26 598.517,-180.275 598.981,-190.86 605.481,-188.26"/>
</g>
<!-- store/epics/round -->
<g id="node10" class="node"><title>store/epics/round</title>
<ellipse fill="none" stroke="#111111" cx="782.607" cy="-162" rx="83.0967" ry="18"/>
<text text-anchor="middle" x="782.607" y="-158.849" font-family="Arial" font-size="14.00" fill="#111111">store/epics/round</text>
</g>
<!-- store&#45;&gt;store/epics/round -->
<g id="edge14" class="edge"><title>store&#45;&gt;store/epics/round</title>
<path fill="none" stroke="#757575" d="M644.363,-222.369C669.034,-211.773 707.478,-195.264 737.569,-182.342"/>
<polygon fill="#757575" stroke="#757575" points="739.209,-185.446 747.017,-178.284 736.447,-179.014 739.209,-185.446"/>
</g>
<!-- server/main -->
<g id="node4" class="node"><title>server/main</title>
<ellipse fill="none" stroke="#111111" cx="287.607" cy="-378" rx="59.9775" ry="18"/>
<text text-anchor="middle" x="287.607" y="-374.849" font-family="Arial" font-size="14.00" fill="#111111">server/main</text>
</g>
<!-- server/main&#45;&gt;server/listeners/dispatchActionsToStore -->
<g id="edge3" class="edge"><title>server/main&#45;&gt;server/listeners/dispatchActionsToStore</title>
<path fill="none" stroke="#757575" d="M287.607,-359.697C287.607,-351.983 287.607,-342.712 287.607,-334.112"/>
<polygon fill="#757575" stroke="#757575" points="291.107,-334.104 287.607,-324.104 284.107,-334.104 291.107,-334.104"/>
</g>
<!-- server/main&#45;&gt;server/methods/dispatchAction -->
<g id="edge4" class="edge"><title>server/main&#45;&gt;server/methods/dispatchAction</title>
<path fill="none" stroke="#757575" d="M234.939,-369.074C186.087,-360.519 118.594,-345.211 102.607,-324 88.0425,-304.677 101.737,-278.788 116.412,-259.915"/>
<polygon fill="#757575" stroke="#757575" points="119.243,-261.983 122.904,-252.041 113.842,-257.53 119.243,-261.983"/>
</g>
<!-- server/publications/processedActions -->
<g id="node5" class="node"><title>server/publications/processedActions</title>
<ellipse fill="#ee6666" stroke="#111111" cx="647.607" cy="-306" rx="166.139" ry="18"/>
<text text-anchor="middle" x="647.607" y="-302.849" font-family="Arial" font-size="14.00" fill="#111111">server/publications/processedActions</text>
</g>
<!-- server/main&#45;&gt;server/publications/processedActions -->
<g id="edge5" class="edge"><title>server/main&#45;&gt;server/publications/processedActions</title>
<path fill="none" stroke="#757575" d="M336.533,-367.487C393.885,-356.335 490.014,-337.643 560.26,-323.984"/>
<polygon fill="#757575" stroke="#757575" points="561.281,-327.351 570.429,-322.007 559.944,-320.48 561.281,-327.351"/>
</g>
<!-- server/publications/processedActions&#45;&gt;store -->
<g id="edge6" class="edge"><title>server/publications/processedActions&#45;&gt;store</title>
<path fill="none" stroke="#757575" d="M640.685,-287.697C637.485,-279.696 633.615,-270.02 630.069,-261.155"/>
<polygon fill="#757575" stroke="#757575" points="633.219,-259.607 626.256,-251.622 626.72,-262.207 633.219,-259.607"/>
</g>
<!-- store/actions -->
<g id="node6" class="node"><title>store/actions</title>
<ellipse fill="none" stroke="#111111" cx="473.607" cy="-234" rx="64.3793" ry="18"/>
<text text-anchor="middle" x="473.607" y="-230.849" font-family="Arial" font-size="14.00" fill="#111111">store/actions</text>
</g>
<!-- store/reducers/game -->
<g id="node7" class="node"><title>store/reducers/game</title>
<ellipse fill="none" stroke="#111111" cx="435.607" cy="-90" rx="97.3647" ry="18"/>
<text text-anchor="middle" x="435.607" y="-86.8493" font-family="Arial" font-size="14.00" fill="#111111">store/reducers/game</text>
</g>
<!-- store/actions&#45;&gt;store/reducers/game -->
<g id="edge7" class="edge"><title>store/actions&#45;&gt;store/reducers/game</title>
<path fill="none" stroke="#757575" d="M469.023,-215.871C462.518,-191.564 450.544,-146.819 442.836,-118.013"/>
<polygon fill="#757575" stroke="#757575" points="446.173,-116.945 440.207,-108.189 439.411,-118.754 446.173,-116.945"/>
</g>
<!-- store/actions&#45;&gt;store/reducers/root -->
<g id="edge8" class="edge"><title>store/actions&#45;&gt;store/reducers/root</title>
<path fill="none" stroke="#757575" d="M499.795,-217.465C516.1,-207.792 537.307,-195.212 555.231,-184.579"/>
<polygon fill="#757575" stroke="#757575" points="557.447,-187.334 564.262,-179.222 553.876,-181.313 557.447,-187.334"/>
</g>
<!-- store/reducers/round -->
<g id="node9" class="node"><title>store/reducers/round</title>
<ellipse fill="none" stroke="#000000" cx="648.607" cy="-90" rx="97.923" ry="18"/>
<text text-anchor="middle" x="648.607" y="-86.8493" font-family="Arial" font-size="14.00" fill="#000000">store/reducers/round</text>
</g>
<!-- store/actions&#45;&gt;store/reducers/round -->
<g id="edge9" class="edge"><title>store/actions&#45;&gt;store/reducers/round</title>
<path fill="none" stroke="#757575" d="M472.546,-215.712C472.298,-195.966 474.969,-163.836 492.607,-144 510.387,-124.003 536.005,-111.544 561.357,-103.783"/>
<polygon fill="#757575" stroke="#757575" points="562.379,-107.131 571.043,-101.033 560.467,-100.398 562.379,-107.131"/>
</g>
<!-- store/reducers/createStatefulImmutableReducer -->
<g id="node11" class="node"><title>store/reducers/createStatefulImmutableReducer</title>
<ellipse fill="none" stroke="#000000" cx="435.607" cy="-18" rx="211.215" ry="18"/>
<text text-anchor="middle" x="435.607" y="-14.8493" font-family="Arial" font-size="14.00" fill="#000000">store/reducers/createStatefulImmutableReducer</text>
</g>
<!-- store/reducers/game&#45;&gt;store/reducers/createStatefulImmutableReducer -->
<g id="edge11" class="edge"><title>store/reducers/game&#45;&gt;store/reducers/createStatefulImmutableReducer</title>
<path fill="none" stroke="#757575" d="M435.607,-71.6966C435.607,-63.9827 435.607,-54.7125 435.607,-46.1124"/>
<polygon fill="#757575" stroke="#757575" points="439.107,-46.1043 435.607,-36.1043 432.107,-46.1044 439.107,-46.1043"/>
</g>
<!-- store/reducers/root&#45;&gt;store/reducers/game -->
<g id="edge12" class="edge"><title>store/reducers/root&#45;&gt;store/reducers/game</title>
<path fill="none" stroke="#757575" d="M556.597,-145.291C534.075,-135.184 504.598,-121.957 480.378,-111.09"/>
<polygon fill="#757575" stroke="#757575" points="481.596,-107.8 471.039,-106.899 478.73,-114.186 481.596,-107.8"/>
</g>
<!-- store/reducers/root&#45;&gt;store/reducers/round -->
<g id="edge13" class="edge"><title>store/reducers/root&#45;&gt;store/reducers/round</title>
<path fill="none" stroke="#757575" d="M605.405,-144.055C612.234,-135.668 620.615,-125.376 628.171,-116.096"/>
<polygon fill="#757575" stroke="#757575" points="630.94,-118.24 634.54,-108.275 625.511,-113.82 630.94,-118.24"/>
</g>
<!-- store/epics/round&#45;&gt;store/reducers/round -->
<g id="edge10" class="edge"><title>store/epics/round&#45;&gt;store/reducers/round</title>
<path fill="none" stroke="#757575" d="M752.2,-145.116C733.451,-135.321 709.186,-122.646 688.854,-112.025"/>
<polygon fill="#757575" stroke="#757575" points="690.307,-108.835 679.823,-107.307 687.066,-115.039 690.307,-108.835"/>
</g>
</g>
</svg>
