<?xml version="1.0" encoding="UTF-8" standalone="no"?>
<!DOCTYPE svg PUBLIC "-//W3C//DTD SVG 1.1//EN"
 "http://www.w3.org/Graphics/SVG/1.1/DTD/svg11.dtd">
<!-- Generated by graphviz version 2.38.0 (20140413.2041)
 -->
<!-- Title: G Pages: 1 -->
<svg width="1846pt" height="340pt"
 viewBox="0.00 0.00 1846.27 339.98" xmlns="http://www.w3.org/2000/svg" xmlns:xlink="http://www.w3.org/1999/xlink">
<g id="graph0" class="graph" transform="scale(1 1) rotate(0) translate(7.992 331.992)">
<title>G</title>
<polygon fill="#ffffff" stroke="none" points="-7.992,7.992 -7.992,-331.992 1838.28,-331.992 1838.28,7.992 -7.992,7.992"/>
<!-- collections -->
<g id="node1" class="node"><title>collections</title>
<ellipse fill="none" stroke="#000000" cx="55.8255" cy="-234" rx="54.5254" ry="18"/>
<text text-anchor="middle" x="55.8255" y="-230.849" font-family="Arial" font-size="14.00" fill="#000000">collections</text>
</g>
<!-- methods/server/dispatchAction -->
<g id="node2" class="node"><title>methods/server/dispatchAction</title>
<ellipse fill="none" stroke="#111111" cx="995.826" cy="-162" rx="139.714" ry="18"/>
<text text-anchor="middle" x="995.826" y="-158.849" font-family="Arial" font-size="14.00" fill="#111111">methods/server/dispatchAction</text>
</g>
<!-- server/streams/incomingClientActions -->
<g id="node3" class="node"><title>server/streams/incomingClientActions</title>
<ellipse fill="none" stroke="#000000" cx="896.826" cy="-90" rx="168.28" ry="18"/>
<text text-anchor="middle" x="896.826" y="-86.8493" font-family="Arial" font-size="14.00" fill="#000000">server/streams/incomingClientActions</text>
</g>
<!-- methods/server/dispatchAction&#45;&gt;server/streams/incomingClientActions -->
<g id="edge1" class="edge"><title>methods/server/dispatchAction&#45;&gt;server/streams/incomingClientActions</title>
<path fill="none" stroke="#757575" d="M972.113,-144.233C959.227,-135.123 943.108,-123.725 929.094,-113.816"/>
<polygon fill="#757575" stroke="#757575" points="930.874,-110.788 920.688,-107.873 926.833,-116.504 930.874,-110.788"/>
</g>
<!-- server/listeners/dispatchConsequencesOfActions -->
<g id="node4" class="node"><title>server/listeners/dispatchConsequencesOfActions</title>
<ellipse fill="none" stroke="#111111" cx="660.826" cy="-234" rx="216.147" ry="18"/>
<text text-anchor="middle" x="660.826" y="-230.849" font-family="Arial" font-size="14.00" fill="#111111">server/listeners/dispatchConsequencesOfActions</text>
</g>
<!-- server/streams/consequencesOfActions -->
<g id="node5" class="node"><title>server/streams/consequencesOfActions</title>
<ellipse fill="none" stroke="#111111" cx="660.826" cy="-162" rx="177.113" ry="18"/>
<text text-anchor="middle" x="660.826" y="-158.849" font-family="Arial" font-size="14.00" fill="#111111">server/streams/consequencesOfActions</text>
</g>
<!-- server/listeners/dispatchConsequencesOfActions&#45;&gt;server/streams/consequencesOfActions -->
<g id="edge2" class="edge"><title>server/listeners/dispatchConsequencesOfActions&#45;&gt;server/streams/consequencesOfActions</title>
<path fill="none" stroke="#757575" d="M660.826,-215.697C660.826,-207.983 660.826,-198.712 660.826,-190.112"/>
<polygon fill="#757575" stroke="#757575" points="664.326,-190.104 660.826,-180.104 657.326,-190.104 664.326,-190.104"/>
</g>
<!-- store -->
<g id="node6" class="node"><title>store</title>
<ellipse fill="none" stroke="#111111" cx="355.826" cy="-162" rx="31.9343" ry="18"/>
<text text-anchor="middle" x="355.826" y="-158.849" font-family="Arial" font-size="14.00" fill="#111111">store</text>
</g>
<!-- server/listeners/dispatchConsequencesOfActions&#45;&gt;store -->
<g id="edge3" class="edge"><title>server/listeners/dispatchConsequencesOfActions&#45;&gt;store</title>
<path fill="none" stroke="#757575" d="M590.852,-216.941C529.937,-202.96 443.881,-183.21 394.577,-171.894"/>
<polygon fill="#757575" stroke="#757575" points="395.166,-168.438 384.636,-169.612 393.6,-175.261 395.166,-168.438"/>
</g>
<!-- server/streams/consequencesOfActions&#45;&gt;server/streams/incomingClientActions -->
<g id="edge9" class="edge"><title>server/streams/consequencesOfActions&#45;&gt;server/streams/incomingClientActions</title>
<path fill="none" stroke="#757575" d="M715.265,-144.853C750.379,-134.438 796.195,-120.848 833.018,-109.926"/>
<polygon fill="#757575" stroke="#757575" points="834.068,-113.265 842.66,-107.066 832.077,-106.554 834.068,-113.265"/>
</g>
<!-- store/reducers/root -->
<g id="node15" class="node"><title>store/reducers/root</title>
<ellipse fill="none" stroke="#111111" cx="355.826" cy="-90" rx="89.6971" ry="18"/>
<text text-anchor="middle" x="355.826" y="-86.8493" font-family="Arial" font-size="14.00" fill="#111111">store/reducers/root</text>
</g>
<!-- store&#45;&gt;store/reducers/root -->
<g id="edge14" class="edge"><title>store&#45;&gt;store/reducers/root</title>
<path fill="none" stroke="#757575" d="M355.826,-143.697C355.826,-135.983 355.826,-126.712 355.826,-118.112"/>
<polygon fill="#757575" stroke="#757575" points="359.326,-118.104 355.826,-108.104 352.326,-118.104 359.326,-118.104"/>
</g>
<!-- server/listeners/writeActionsToMongo -->
<g id="node7" class="node"><title>server/listeners/writeActionsToMongo</title>
<ellipse fill="none" stroke="#111111" cx="166.826" cy="-306" rx="166.651" ry="18"/>
<text text-anchor="middle" x="166.826" y="-302.849" font-family="Arial" font-size="14.00" fill="#111111">server/listeners/writeActionsToMongo</text>
</g>
<!-- server/listeners/writeActionsToMongo&#45;&gt;collections -->
<g id="edge4" class="edge"><title>server/listeners/writeActionsToMongo&#45;&gt;collections</title>
<path fill="none" stroke="#757575" d="M139.956,-288.055C124.581,-278.359 105.169,-266.118 88.8677,-255.837"/>
<polygon fill="#757575" stroke="#757575" points="90.5019,-252.73 80.1764,-250.356 86.7679,-258.651 90.5019,-252.73"/>
</g>
<!-- server/streams/storeStateStream -->
<g id="node8" class="node"><title>server/streams/storeStateStream</title>
<ellipse fill="none" stroke="#111111" cx="277.826" cy="-234" rx="149.022" ry="18"/>
<text text-anchor="middle" x="277.826" y="-230.849" font-family="Arial" font-size="14.00" fill="#111111">server/streams/storeStateStream</text>
</g>
<!-- server/listeners/writeActionsToMongo&#45;&gt;server/streams/storeStateStream -->
<g id="edge5" class="edge"><title>server/listeners/writeActionsToMongo&#45;&gt;server/streams/storeStateStream</title>
<path fill="none" stroke="#757575" d="M193.696,-288.055C208.421,-278.769 226.848,-267.148 242.701,-257.151"/>
<polygon fill="#757575" stroke="#757575" points="244.611,-260.084 251.203,-251.789 240.877,-254.163 244.611,-260.084"/>
</g>
<!-- server/streams/storeStateStream&#45;&gt;store -->
<g id="edge10" class="edge"><title>server/streams/storeStateStream&#45;&gt;store</title>
<path fill="none" stroke="#757575" d="M296.707,-216.055C307.331,-206.521 320.697,-194.526 332.031,-184.354"/>
<polygon fill="#757575" stroke="#757575" points="334.39,-186.94 339.495,-177.656 329.715,-181.73 334.39,-186.94"/>
</g>
<!-- server/main -->
<g id="node9" class="node"><title>server/main</title>
<ellipse fill="none" stroke="#111111" cx="1302.83" cy="-234" rx="59.9775" ry="18"/>
<text text-anchor="middle" x="1302.83" y="-230.849" font-family="Arial" font-size="14.00" fill="#111111">server/main</text>
</g>
<!-- server/main&#45;&gt;methods/server/dispatchAction -->
<g id="edge6" class="edge"><title>server/main&#45;&gt;methods/server/dispatchAction</title>
<path fill="none" stroke="#757575" d="M1256.53,-222.445C1207.44,-211.252 1129.14,-193.398 1071.15,-180.175"/>
<polygon fill="#757575" stroke="#757575" points="1071.83,-176.739 1061.3,-177.929 1070.27,-183.564 1071.83,-176.739"/>
</g>
<!-- server/publications/serverActions -->
<g id="node10" class="node"><title>server/publications/serverActions</title>
<ellipse fill="none" stroke="#000000" cx="1302.83" cy="-162" rx="149.05" ry="18"/>
<text text-anchor="middle" x="1302.83" y="-158.849" font-family="Arial" font-size="14.00" fill="#000000">server/publications/serverActions</text>
</g>
<!-- server/main&#45;&gt;server/publications/serverActions -->
<g id="edge7" class="edge"><title>server/main&#45;&gt;server/publications/serverActions</title>
<path fill="none" stroke="#757575" d="M1302.83,-215.697C1302.83,-207.983 1302.83,-198.712 1302.83,-190.112"/>
<polygon fill="#757575" stroke="#757575" points="1306.33,-190.104 1302.83,-180.104 1299.33,-190.104 1306.33,-190.104"/>
</g>
<!-- server/startup/populateStoreFromMongo -->
<g id="node11" class="node"><title>server/startup/populateStoreFromMongo</title>
<ellipse fill="none" stroke="#000000" cx="1649.83" cy="-162" rx="180.416" ry="18"/>
<text text-anchor="middle" x="1649.83" y="-158.849" font-family="Arial" font-size="14.00" fill="#000000">server/startup/populateStoreFromMongo</text>
</g>
<!-- server/main&#45;&gt;server/startup/populateStoreFromMongo -->
<g id="edge8" class="edge"><title>server/main&#45;&gt;server/startup/populateStoreFromMongo</title>
<path fill="none" stroke="#757575" d="M1351.07,-223.267C1405.9,-212.208 1496.44,-193.942 1563.51,-180.413"/>
<polygon fill="#757575" stroke="#757575" points="1564.53,-183.777 1573.64,-178.369 1563.15,-176.915 1564.53,-183.777"/>
</g>
<!-- store/actions -->
<g id="node12" class="node"><title>store/actions</title>
<ellipse fill="none" stroke="#111111" cx="546.826" cy="-90" rx="64.3793" ry="18"/>
<text text-anchor="middle" x="546.826" y="-86.8493" font-family="Arial" font-size="14.00" fill="#111111">store/actions</text>
</g>
<!-- store/reducers/game -->
<g id="node13" class="node"><title>store/reducers/game</title>
<ellipse fill="none" stroke="#000000" cx="355.826" cy="-18" rx="97.3647" ry="18"/>
<text text-anchor="middle" x="355.826" y="-14.8493" font-family="Arial" font-size="14.00" fill="#000000">store/reducers/game</text>
</g>
<!-- store/actions&#45;&gt;store/reducers/game -->
<g id="edge11" class="edge"><title>store/actions&#45;&gt;store/reducers/game</title>
<path fill="none" stroke="#757575" d="M509.545,-75.3371C480.423,-64.6641 439.621,-49.7104 407.372,-37.8912"/>
<polygon fill="#757575" stroke="#757575" points="408.254,-34.487 397.66,-34.332 405.845,-41.0595 408.254,-34.487"/>
</g>
<!-- store/reducers/reset -->
<g id="node14" class="node"><title>store/reducers/reset</title>
<ellipse fill="none" stroke="#000000" cx="565.826" cy="-18" rx="94.6194" ry="18"/>
<text text-anchor="middle" x="565.826" y="-14.8493" font-family="Arial" font-size="14.00" fill="#000000">store/reducers/reset</text>
</g>
<!-- store/actions&#45;&gt;store/reducers/reset -->
<g id="edge12" class="edge"><title>store/actions&#45;&gt;store/reducers/reset</title>
<path fill="none" stroke="#757575" d="M551.522,-71.6966C553.639,-63.8979 556.188,-54.5085 558.543,-45.8292"/>
<polygon fill="#757575" stroke="#757575" points="561.941,-46.672 561.183,-36.1043 555.186,-44.8383 561.941,-46.672"/>
</g>
<!-- store/reducers/root&#45;&gt;store/reducers/game -->
<g id="edge13" class="edge"><title>store/reducers/root&#45;&gt;store/reducers/game</title>
<path fill="none" stroke="#757575" d="M355.826,-71.6966C355.826,-63.9827 355.826,-54.7125 355.826,-46.1124"/>
<polygon fill="#757575" stroke="#757575" points="359.326,-46.1043 355.826,-36.1043 352.326,-46.1044 359.326,-46.1043"/>
</g>
</g>
</svg>
