<?xml version="1.0" encoding="UTF-8" standalone="no"?>
<!DOCTYPE svg PUBLIC "-//W3C//DTD SVG 1.1//EN"
 "http://www.w3.org/Graphics/SVG/1.1/DTD/svg11.dtd">
<!-- Generated by graphviz version 2.38.0 (20140413.2041)
 -->
<!-- Title: G Pages: 1 -->
<svg width="1442pt" height="412pt"
 viewBox="0.00 0.00 1441.95 411.98" xmlns="http://www.w3.org/2000/svg" xmlns:xlink="http://www.w3.org/1999/xlink">
<g id="graph0" class="graph" transform="scale(1 1) rotate(0) translate(7.992 403.992)">
<title>G</title>
<polygon fill="#ffffff" stroke="none" points="-7.992,7.992 -7.992,-403.992 1433.96,-403.992 1433.96,7.992 -7.992,7.992"/>
<!-- methods/server/dispatchAction -->
<g id="node1" class="node"><title>methods/server/dispatchAction</title>
<ellipse fill="none" stroke="#111111" cx="139.607" cy="-306" rx="139.714" ry="18"/>
<text text-anchor="middle" x="139.607" y="-302.849" font-family="Arial" font-size="14.00" fill="#111111">methods/server/dispatchAction</text>
</g>
<!-- server/streams/dispatchedActions -->
<g id="node2" class="node"><title>server/streams/dispatchedActions</title>
<ellipse fill="none" stroke="#000000" cx="305.607" cy="-234" rx="152.335" ry="18"/>
<text text-anchor="middle" x="305.607" y="-230.849" font-family="Arial" font-size="14.00" fill="#000000">server/streams/dispatchedActions</text>
</g>
<!-- methods/server/dispatchAction&#45;&gt;server/streams/dispatchedActions -->
<g id="edge1" class="edge"><title>methods/server/dispatchAction&#45;&gt;server/streams/dispatchedActions</title>
<path fill="none" stroke="#757575" d="M178.526,-288.588C202.064,-278.663 232.265,-265.927 257.318,-255.363"/>
<polygon fill="#757575" stroke="#757575" points="258.789,-258.541 266.644,-251.43 256.07,-252.091 258.789,-258.541"/>
</g>
<!-- server/listeners/dispatchActionsToStore -->
<g id="node3" class="node"><title>server/listeners/dispatchActionsToStore</title>
<ellipse fill="none" stroke="#111111" cx="472.607" cy="-306" rx="175.975" ry="18"/>
<text text-anchor="middle" x="472.607" y="-302.849" font-family="Arial" font-size="14.00" fill="#111111">server/listeners/dispatchActionsToStore</text>
</g>
<!-- server/listeners/dispatchActionsToStore&#45;&gt;server/streams/dispatchedActions -->
<g id="edge2" class="edge"><title>server/listeners/dispatchActionsToStore&#45;&gt;server/streams/dispatchedActions</title>
<path fill="none" stroke="#757575" d="M433.03,-288.411C409.425,-278.516 379.272,-265.878 354.225,-255.379"/>
<polygon fill="#757575" stroke="#757575" points="355.475,-252.108 344.899,-251.47 352.769,-258.564 355.475,-252.108"/>
</g>
<!-- store -->
<g id="node4" class="node"><title>store</title>
<ellipse fill="none" stroke="#111111" cx="772.607" cy="-234" rx="31.9343" ry="18"/>
<text text-anchor="middle" x="772.607" y="-230.849" font-family="Arial" font-size="14.00" fill="#111111">store</text>
</g>
<!-- server/listeners/dispatchActionsToStore&#45;&gt;store -->
<g id="edge3" class="edge"><title>server/listeners/dispatchActionsToStore&#45;&gt;store</title>
<path fill="none" stroke="#757575" d="M539.933,-289.291C599.607,-275.367 684.668,-255.519 733.699,-244.079"/>
<polygon fill="#757575" stroke="#757575" points="734.649,-247.451 743.592,-241.77 733.059,-240.634 734.649,-247.451"/>
</g>
<!-- server/streams/expandedActions -->
<g id="node7" class="node"><title>server/streams/expandedActions</title>
<ellipse fill="none" stroke="#000000" cx="802.607" cy="-162" rx="147.97" ry="18"/>
<text text-anchor="middle" x="802.607" y="-158.849" font-family="Arial" font-size="14.00" fill="#000000">server/streams/expandedActions</text>
</g>
<!-- store&#45;&gt;server/streams/expandedActions -->
<g id="edge18" class="edge"><title>store&#45;&gt;server/streams/expandedActions</title>
<path fill="none" stroke="#757575" d="M779.716,-216.411C783.127,-208.454 787.297,-198.722 791.14,-189.756"/>
<polygon fill="#757575" stroke="#757575" points="794.407,-191.017 795.13,-180.447 787.973,-188.259 794.407,-191.017"/>
</g>
<!-- store/reducers/root -->
<g id="node10" class="node"><title>store/reducers/root</title>
<ellipse fill="none" stroke="#111111" cx="1058.61" cy="-162" rx="89.6971" ry="18"/>
<text text-anchor="middle" x="1058.61" y="-158.849" font-family="Arial" font-size="14.00" fill="#111111">store/reducers/root</text>
</g>
<!-- store&#45;&gt;store/reducers/root -->
<g id="edge17" class="edge"><title>store&#45;&gt;store/reducers/root</title>
<path fill="none" stroke="#757575" d="M801.075,-226.032C845.777,-215.091 933.572,-193.603 994.132,-178.781"/>
<polygon fill="#757575" stroke="#757575" points="995.1,-182.147 1003.98,-176.37 993.436,-175.348 995.1,-182.147"/>
</g>
<!-- store/epics/round -->
<g id="node12" class="node"><title>store/epics/round</title>
<ellipse fill="none" stroke="#111111" cx="553.607" cy="-162" rx="83.0967" ry="18"/>
<text text-anchor="middle" x="553.607" y="-158.849" font-family="Arial" font-size="14.00" fill="#111111">store/epics/round</text>
</g>
<!-- store&#45;&gt;store/epics/round -->
<g id="edge16" class="edge"><title>store&#45;&gt;store/epics/round</title>
<path fill="none" stroke="#757575" d="M745.753,-224.417C711.561,-213.488 651.665,-194.343 607.812,-180.326"/>
<polygon fill="#757575" stroke="#757575" points="608.747,-176.95 598.156,-177.239 606.615,-183.618 608.747,-176.95"/>
</g>
<!-- server/main -->
<g id="node5" class="node"><title>server/main</title>
<ellipse fill="none" stroke="#111111" cx="472.607" cy="-378" rx="59.9775" ry="18"/>
<text text-anchor="middle" x="472.607" y="-374.849" font-family="Arial" font-size="14.00" fill="#111111">server/main</text>
</g>
<!-- server/main&#45;&gt;methods/server/dispatchAction -->
<g id="edge4" class="edge"><title>server/main&#45;&gt;methods/server/dispatchAction</title>
<path fill="none" stroke="#757575" d="M424.896,-366.971C371.294,-355.703 283.42,-337.231 219.34,-323.761"/>
<polygon fill="#757575" stroke="#757575" points="219.775,-320.276 209.269,-321.644 218.335,-327.126 219.775,-320.276"/>
</g>
<!-- server/main&#45;&gt;server/listeners/dispatchActionsToStore -->
<g id="edge5" class="edge"><title>server/main&#45;&gt;server/listeners/dispatchActionsToStore</title>
<path fill="none" stroke="#757575" d="M472.607,-359.697C472.607,-351.983 472.607,-342.712 472.607,-334.112"/>
<polygon fill="#757575" stroke="#757575" points="476.107,-334.104 472.607,-324.104 469.107,-334.104 476.107,-334.104"/>
</g>
<!-- server/publications/processedActions -->
<g id="node6" class="node"><title>server/publications/processedActions</title>
<ellipse fill="none" stroke="#111111" cx="832.607" cy="-306" rx="166.139" ry="18"/>
<text text-anchor="middle" x="832.607" y="-302.849" font-family="Arial" font-size="14.00" fill="#111111">server/publications/processedActions</text>
</g>
<!-- server/main&#45;&gt;server/publications/processedActions -->
<g id="edge6" class="edge"><title>server/main&#45;&gt;server/publications/processedActions</title>
<path fill="none" stroke="#757575" d="M521.533,-367.487C578.885,-356.335 675.014,-337.643 745.26,-323.984"/>
<polygon fill="#757575" stroke="#757575" points="746.281,-327.351 755.429,-322.007 744.944,-320.48 746.281,-327.351"/>
</g>
<!-- server/publications/processedActions&#45;&gt;store -->
<g id="edge8" class="edge"><title>server/publications/processedActions&#45;&gt;store</title>
<path fill="none" stroke="#757575" d="M818.082,-288.055C810.496,-279.204 801.091,-268.231 792.806,-258.566"/>
<polygon fill="#757575" stroke="#757575" points="795.34,-256.144 786.175,-250.829 790.025,-260.7 795.34,-256.144"/>
</g>
<!-- server/publications/processedActions&#45;&gt;server/streams/expandedActions -->
<g id="edge7" class="edge"><title>server/publications/processedActions&#45;&gt;server/streams/expandedActions</title>
<path fill="none" stroke="#757575" d="M828.988,-287.871C823.853,-263.564 814.399,-218.819 808.314,-190.013"/>
<polygon fill="#757575" stroke="#757575" points="811.73,-189.25 806.238,-180.189 804.881,-190.697 811.73,-189.25"/>
</g>
<!-- store/actions -->
<g id="node8" class="node"><title>store/actions</title>
<ellipse fill="none" stroke="#111111" cx="1176.61" cy="-234" rx="64.3793" ry="18"/>
<text text-anchor="middle" x="1176.61" y="-230.849" font-family="Arial" font-size="14.00" fill="#111111">store/actions</text>
</g>
<!-- store/reducers/game -->
<g id="node9" class="node"><title>store/reducers/game</title>
<ellipse fill="none" stroke="#111111" cx="1214.61" cy="-90" rx="97.3647" ry="18"/>
<text text-anchor="middle" x="1214.61" y="-86.8493" font-family="Arial" font-size="14.00" fill="#111111">store/reducers/game</text>
</g>
<!-- store/actions&#45;&gt;store/reducers/game -->
<g id="edge9" class="edge"><title>store/actions&#45;&gt;store/reducers/game</title>
<path fill="none" stroke="#757575" d="M1181.19,-215.871C1187.7,-191.564 1199.67,-146.819 1207.38,-118.013"/>
<polygon fill="#757575" stroke="#757575" points="1210.8,-118.754 1210.01,-108.189 1204.04,-116.945 1210.8,-118.754"/>
</g>
<!-- store/actions&#45;&gt;store/reducers/root -->
<g id="edge10" class="edge"><title>store/actions&#45;&gt;store/reducers/root</title>
<path fill="none" stroke="#757575" d="M1150.42,-217.465C1134.11,-207.792 1112.91,-195.212 1094.98,-184.579"/>
<polygon fill="#757575" stroke="#757575" points="1096.34,-181.313 1085.95,-179.222 1092.77,-187.334 1096.34,-181.313"/>
</g>
<!-- store/reducers/round -->
<g id="node11" class="node"><title>store/reducers/round</title>
<ellipse fill="none" stroke="#000000" cx="1001.61" cy="-90" rx="97.923" ry="18"/>
<text text-anchor="middle" x="1001.61" y="-86.8493" font-family="Arial" font-size="14.00" fill="#000000">store/reducers/round</text>
</g>
<!-- store/actions&#45;&gt;store/reducers/round -->
<g id="edge11" class="edge"><title>store/actions&#45;&gt;store/reducers/round</title>
<path fill="none" stroke="#757575" d="M1177.67,-215.712C1177.92,-195.966 1175.24,-163.836 1157.61,-144 1139.83,-124.003 1114.21,-111.544 1088.86,-103.783"/>
<polygon fill="#757575" stroke="#757575" points="1089.75,-100.398 1079.17,-101.033 1087.83,-107.131 1089.75,-100.398"/>
</g>
<!-- store/reducers/createStatefulImmutableReducer -->
<g id="node13" class="node"><title>store/reducers/createStatefulImmutableReducer</title>
<ellipse fill="none" stroke="#000000" cx="1214.61" cy="-18" rx="211.215" ry="18"/>
<text text-anchor="middle" x="1214.61" y="-14.8493" font-family="Arial" font-size="14.00" fill="#000000">store/reducers/createStatefulImmutableReducer</text>
</g>
<!-- store/reducers/game&#45;&gt;store/reducers/createStatefulImmutableReducer -->
<g id="edge13" class="edge"><title>store/reducers/game&#45;&gt;store/reducers/createStatefulImmutableReducer</title>
<path fill="none" stroke="#757575" d="M1214.61,-71.6966C1214.61,-63.9827 1214.61,-54.7125 1214.61,-46.1124"/>
<polygon fill="#757575" stroke="#757575" points="1218.11,-46.1043 1214.61,-36.1043 1211.11,-46.1044 1218.11,-46.1043"/>
</g>
<!-- store/reducers/root&#45;&gt;store/reducers/game -->
<g id="edge14" class="edge"><title>store/reducers/root&#45;&gt;store/reducers/game</title>
<path fill="none" stroke="#757575" d="M1093.62,-145.291C1116.14,-135.184 1145.62,-121.957 1169.84,-111.09"/>
<polygon fill="#757575" stroke="#757575" points="1171.48,-114.186 1179.17,-106.899 1168.62,-107.8 1171.48,-114.186"/>
</g>
<!-- store/reducers/root&#45;&gt;store/reducers/round -->
<g id="edge15" class="edge"><title>store/reducers/root&#45;&gt;store/reducers/round</title>
<path fill="none" stroke="#757575" d="M1044.81,-144.055C1037.98,-135.668 1029.6,-125.376 1022.04,-116.096"/>
<polygon fill="#757575" stroke="#757575" points="1024.7,-113.82 1015.67,-108.275 1019.27,-118.24 1024.7,-113.82"/>
</g>
<!-- store/epics/round&#45;&gt;store/reducers/round -->
<g id="edge12" class="edge"><title>store/epics/round&#45;&gt;store/reducers/round</title>
<path fill="none" stroke="#757575" d="M613.929,-149.542C624.476,-147.628 635.353,-145.71 645.607,-144 737.88,-128.611 843.979,-113.095 916.177,-102.864"/>
<polygon fill="#757575" stroke="#757575" points="916.723,-106.322 926.134,-101.456 915.743,-99.3909 916.723,-106.322"/>
</g>
</g>
</svg>
