<?xml version="1.0" encoding="UTF-8" standalone="no"?>
<!DOCTYPE svg PUBLIC "-//W3C//DTD SVG 1.1//EN"
 "http://www.w3.org/Graphics/SVG/1.1/DTD/svg11.dtd">
<!-- Generated by graphviz version 2.38.0 (20140413.2041)
 -->
<!-- Title: G Pages: 1 -->
<svg width="1021pt" height="556pt"
 viewBox="0.00 0.00 1020.54 555.98" xmlns="http://www.w3.org/2000/svg" xmlns:xlink="http://www.w3.org/1999/xlink">
<g id="graph0" class="graph" transform="scale(1 1) rotate(0) translate(7.992 547.992)">
<title>G</title>
<polygon fill="#ffffff" stroke="none" points="-7.992,7.992 -7.992,-547.992 1012.54,-547.992 1012.54,7.992 -7.992,7.992"/>
<!-- client/listeners/dispatchServerActions -->
<g id="node1" class="node"><title>client/listeners/dispatchServerActions</title>
<ellipse fill="none" stroke="#111111" cx="517.425" cy="-450" rx="166.67" ry="18"/>
<text text-anchor="middle" x="517.425" y="-446.849" font-family="Arial" font-size="14.00" fill="#111111">client/listeners/dispatchServerActions</text>
</g>
<!-- client/streams/serverActionsStream -->
<g id="node2" class="node"><title>client/streams/serverActionsStream</title>
<ellipse fill="none" stroke="#000000" cx="766.425" cy="-378" rx="158.916" ry="18"/>
<text text-anchor="middle" x="766.425" y="-374.849" font-family="Arial" font-size="14.00" fill="#000000">client/streams/serverActionsStream</text>
</g>
<!-- client/listeners/dispatchServerActions&#45;&gt;client/streams/serverActionsStream -->
<g id="edge1" class="edge"><title>client/listeners/dispatchServerActions&#45;&gt;client/streams/serverActionsStream</title>
<path fill="none" stroke="#757575" d="M574.238,-433.028C611.685,-422.501 660.87,-408.674 700.107,-397.643"/>
<polygon fill="#757575" stroke="#757575" points="701.176,-400.979 709.855,-394.903 699.281,-394.24 701.176,-400.979"/>
</g>
<!-- store -->
<g id="node3" class="node"><title>store</title>
<ellipse fill="none" stroke="#111111" cx="471.425" cy="-378" rx="31.9343" ry="18"/>
<text text-anchor="middle" x="471.425" y="-374.849" font-family="Arial" font-size="14.00" fill="#111111">store</text>
</g>
<!-- client/listeners/dispatchServerActions&#45;&gt;store -->
<g id="edge2" class="edge"><title>client/listeners/dispatchServerActions&#45;&gt;store</title>
<path fill="none" stroke="#757575" d="M506.054,-431.697C500.489,-423.229 493.692,-412.885 487.598,-403.612"/>
<polygon fill="#757575" stroke="#757575" points="490.451,-401.579 482.034,-395.145 484.601,-405.424 490.451,-401.579"/>
</g>
<!-- store/reducers/root -->
<g id="node13" class="node"><title>store/reducers/root</title>
<ellipse fill="none" stroke="#111111" cx="471.425" cy="-162" rx="89.6971" ry="18"/>
<text text-anchor="middle" x="471.425" y="-158.849" font-family="Arial" font-size="14.00" fill="#111111">store/reducers/root</text>
</g>
<!-- store&#45;&gt;store/reducers/root -->
<g id="edge20" class="edge"><title>store&#45;&gt;store/reducers/root</title>
<path fill="none" stroke="#757575" d="M471.425,-359.849C471.425,-322.832 471.425,-235.181 471.425,-190.386"/>
<polygon fill="#757575" stroke="#757575" points="474.925,-190.232 471.425,-180.232 467.925,-190.232 474.925,-190.232"/>
</g>
<!-- client/main -->
<g id="node4" class="node"><title>client/main</title>
<ellipse fill="none" stroke="#111111" cx="562.425" cy="-522" rx="55.6138" ry="18"/>
<text text-anchor="middle" x="562.425" y="-518.849" font-family="Arial" font-size="14.00" fill="#111111">client/main</text>
</g>
<!-- client/router -->
<g id="node5" class="node"><title>client/router</title>
<ellipse fill="none" stroke="#111111" cx="272.425" cy="-450" rx="59.9959" ry="18"/>
<text text-anchor="middle" x="272.425" y="-446.849" font-family="Arial" font-size="14.00" fill="#111111">client/router</text>
</g>
<!-- client/main&#45;&gt;client/router -->
<g id="edge3" class="edge"><title>client/main&#45;&gt;client/router</title>
<path fill="none" stroke="#757575" d="M518.795,-510.621C474.204,-499.993 402.959,-482.959 341.425,-468 336.798,-466.875 331.998,-465.703 327.182,-464.524"/>
<polygon fill="#757575" stroke="#757575" points="327.872,-461.089 317.326,-462.105 326.203,-467.888 327.872,-461.089"/>
</g>
<!-- client/subscribeProcessedActions -->
<g id="node6" class="node"><title>client/subscribeProcessedActions</title>
<ellipse fill="none" stroke="#111111" cx="853.425" cy="-450" rx="151.255" ry="18"/>
<text text-anchor="middle" x="853.425" y="-446.849" font-family="Arial" font-size="14.00" fill="#111111">client/subscribeProcessedActions</text>
</g>
<!-- client/main&#45;&gt;client/subscribeProcessedActions -->
<g id="edge4" class="edge"><title>client/main&#45;&gt;client/subscribeProcessedActions</title>
<path fill="none" stroke="#757575" d="M605.676,-510.596C651.434,-499.589 724.475,-482.019 779.417,-468.803"/>
<polygon fill="#757575" stroke="#757575" points="780.55,-472.13 789.454,-466.388 778.913,-465.324 780.55,-472.13"/>
</g>
<!-- client/router&#45;&gt;store -->
<g id="edge6" class="edge"><title>client/router&#45;&gt;store</title>
<path fill="none" stroke="#757575" d="M309.855,-435.834C345.978,-423.127 400.272,-404.028 435.78,-391.538"/>
<polygon fill="#757575" stroke="#757575" points="436.995,-394.821 445.267,-388.201 434.672,-388.218 436.995,-394.821"/>
</g>
<!-- components/TriviaApp -->
<g id="node7" class="node"><title>components/TriviaApp</title>
<ellipse fill="none" stroke="#111111" cx="272.425" cy="-378" rx="104.333" ry="18"/>
<text text-anchor="middle" x="272.425" y="-374.849" font-family="Arial" font-size="14.00" fill="#111111">components/TriviaApp</text>
</g>
<!-- client/router&#45;&gt;components/TriviaApp -->
<g id="edge5" class="edge"><title>client/router&#45;&gt;components/TriviaApp</title>
<path fill="none" stroke="#757575" d="M272.425,-431.697C272.425,-423.983 272.425,-414.712 272.425,-406.112"/>
<polygon fill="#757575" stroke="#757575" points="275.925,-406.104 272.425,-396.104 268.925,-406.104 275.925,-406.104"/>
</g>
<!-- client/subscribeProcessedActions&#45;&gt;client/streams/serverActionsStream -->
<g id="edge7" class="edge"><title>client/subscribeProcessedActions&#45;&gt;client/streams/serverActionsStream</title>
<path fill="none" stroke="#757575" d="M832.364,-432.055C821.332,-423.179 807.648,-412.169 795.611,-402.483"/>
<polygon fill="#757575" stroke="#757575" points="797.578,-399.574 787.592,-396.032 793.19,-405.027 797.578,-399.574"/>
</g>
<!-- components/Game -->
<g id="node8" class="node"><title>components/Game</title>
<ellipse fill="none" stroke="#111111" cx="344.425" cy="-306" rx="90.2552" ry="18"/>
<text text-anchor="middle" x="344.425" y="-302.849" font-family="Arial" font-size="14.00" fill="#111111">components/Game</text>
</g>
<!-- components/TriviaApp&#45;&gt;components/Game -->
<g id="edge12" class="edge"><title>components/TriviaApp&#45;&gt;components/Game</title>
<path fill="none" stroke="#757575" d="M289.854,-360.055C298.875,-351.285 310.038,-340.432 319.912,-330.831"/>
<polygon fill="#757575" stroke="#757575" points="322.426,-333.269 327.156,-323.789 317.546,-328.25 322.426,-333.269"/>
</g>
<!-- components/Round -->
<g id="node11" class="node"><title>components/Round</title>
<ellipse fill="none" stroke="#111111" cx="143.425" cy="-306" rx="92.4694" ry="18"/>
<text text-anchor="middle" x="143.425" y="-302.849" font-family="Arial" font-size="14.00" fill="#111111">components/Round</text>
</g>
<!-- components/TriviaApp&#45;&gt;components/Round -->
<g id="edge13" class="edge"><title>components/TriviaApp&#45;&gt;components/Round</title>
<path fill="none" stroke="#757575" d="M242.18,-360.588C224.179,-350.82 201.164,-338.331 181.881,-327.868"/>
<polygon fill="#757575" stroke="#757575" points="183.494,-324.761 173.035,-323.068 180.155,-330.913 183.494,-324.761"/>
</g>
<!-- methods/client/dispatchAction -->
<g id="node9" class="node"><title>methods/client/dispatchAction</title>
<ellipse fill="none" stroke="#000000" cx="135.425" cy="-234" rx="135.349" ry="18"/>
<text text-anchor="middle" x="135.425" y="-230.849" font-family="Arial" font-size="14.00" fill="#000000">methods/client/dispatchAction</text>
</g>
<!-- components/Game&#45;&gt;methods/client/dispatchAction -->
<g id="edge8" class="edge"><title>components/Game&#45;&gt;methods/client/dispatchAction</title>
<path fill="none" stroke="#757575" d="M300.356,-290.24C269.073,-279.763 226.78,-265.598 192.854,-254.235"/>
<polygon fill="#757575" stroke="#757575" points="193.665,-250.815 183.071,-250.958 191.442,-257.453 193.665,-250.815"/>
</g>
<!-- store/actions -->
<g id="node10" class="node"><title>store/actions</title>
<ellipse fill="none" stroke="#111111" cx="353.425" cy="-234" rx="64.3793" ry="18"/>
<text text-anchor="middle" x="353.425" y="-230.849" font-family="Arial" font-size="14.00" fill="#111111">store/actions</text>
</g>
<!-- components/Game&#45;&gt;store/actions -->
<g id="edge9" class="edge"><title>components/Game&#45;&gt;store/actions</title>
<path fill="none" stroke="#757575" d="M346.649,-287.697C347.641,-279.983 348.833,-270.712 349.939,-262.112"/>
<polygon fill="#757575" stroke="#757575" points="353.422,-262.469 351.225,-252.104 346.479,-261.576 353.422,-262.469"/>
</g>
<!-- store/reducers/game -->
<g id="node12" class="node"><title>store/reducers/game</title>
<ellipse fill="none" stroke="#111111" cx="486.425" cy="-90" rx="97.3647" ry="18"/>
<text text-anchor="middle" x="486.425" y="-86.8493" font-family="Arial" font-size="14.00" fill="#111111">store/reducers/game</text>
</g>
<!-- store/actions&#45;&gt;store/reducers/game -->
<g id="edge14" class="edge"><title>store/actions&#45;&gt;store/reducers/game</title>
<path fill="none" stroke="#757575" d="M352.754,-215.69C352.904,-196.22 355.978,-164.633 372.425,-144 385.11,-128.085 403.679,-116.733 422.163,-108.73"/>
<polygon fill="#757575" stroke="#757575" points="423.537,-111.95 431.495,-104.955 420.912,-105.46 423.537,-111.95"/>
</g>
<!-- store/actions&#45;&gt;store/reducers/root -->
<g id="edge15" class="edge"><title>store/actions&#45;&gt;store/reducers/root</title>
<path fill="none" stroke="#757575" d="M379.613,-217.465C395.918,-207.792 417.125,-195.212 435.049,-184.579"/>
<polygon fill="#757575" stroke="#757575" points="437.265,-187.334 444.08,-179.222 433.693,-181.313 437.265,-187.334"/>
</g>
<!-- store/reducers/round -->
<g id="node14" class="node"><title>store/reducers/round</title>
<ellipse fill="none" stroke="#000000" cx="273.425" cy="-90" rx="97.923" ry="18"/>
<text text-anchor="middle" x="273.425" y="-86.8493" font-family="Arial" font-size="14.00" fill="#000000">store/reducers/round</text>
</g>
<!-- store/actions&#45;&gt;store/reducers/round -->
<g id="edge16" class="edge"><title>store/actions&#45;&gt;store/reducers/round</title>
<path fill="none" stroke="#757575" d="M343.933,-216.153C330.115,-191.625 304.337,-145.869 288.072,-116.999"/>
<polygon fill="#757575" stroke="#757575" points="291.111,-115.262 283.153,-108.268 285.012,-118.698 291.111,-115.262"/>
</g>
<!-- components/Round&#45;&gt;methods/client/dispatchAction -->
<g id="edge10" class="edge"><title>components/Round&#45;&gt;methods/client/dispatchAction</title>
<path fill="none" stroke="#757575" d="M141.447,-287.697C140.565,-279.983 139.506,-270.712 138.523,-262.112"/>
<polygon fill="#757575" stroke="#757575" points="141.992,-261.642 137.379,-252.104 135.038,-262.437 141.992,-261.642"/>
</g>
<!-- components/Round&#45;&gt;store/actions -->
<g id="edge11" class="edge"><title>components/Round&#45;&gt;store/actions</title>
<path fill="none" stroke="#757575" d="M187.96,-290.155C221.966,-278.82 268.807,-263.206 303.974,-251.484"/>
<polygon fill="#757575" stroke="#757575" points="305.182,-254.77 313.562,-248.287 302.969,-248.129 305.182,-254.77"/>
</g>
<!-- store/reducers/createStatefulImmutableReducer -->
<g id="node15" class="node"><title>store/reducers/createStatefulImmutableReducer</title>
<ellipse fill="none" stroke="#000000" cx="486.425" cy="-18" rx="211.215" ry="18"/>
<text text-anchor="middle" x="486.425" y="-14.8493" font-family="Arial" font-size="14.00" fill="#000000">store/reducers/createStatefulImmutableReducer</text>
</g>
<!-- store/reducers/game&#45;&gt;store/reducers/createStatefulImmutableReducer -->
<g id="edge17" class="edge"><title>store/reducers/game&#45;&gt;store/reducers/createStatefulImmutableReducer</title>
<path fill="none" stroke="#757575" d="M486.425,-71.6966C486.425,-63.9827 486.425,-54.7125 486.425,-46.1124"/>
<polygon fill="#757575" stroke="#757575" points="489.925,-46.1043 486.425,-36.1043 482.925,-46.1044 489.925,-46.1043"/>
</g>
<!-- store/reducers/root&#45;&gt;store/reducers/game -->
<g id="edge18" class="edge"><title>store/reducers/root&#45;&gt;store/reducers/game</title>
<path fill="none" stroke="#757575" d="M475.132,-143.697C476.785,-135.983 478.772,-126.712 480.615,-118.112"/>
<polygon fill="#757575" stroke="#757575" points="484.086,-118.616 482.759,-108.104 477.242,-117.149 484.086,-118.616"/>
</g>
<!-- store/reducers/root&#45;&gt;store/reducers/round -->
<g id="edge19" class="edge"><title>store/reducers/root&#45;&gt;store/reducers/round</title>
<path fill="none" stroke="#757575" d="M428.949,-145.983C398.879,-135.353 358.347,-121.023 326.2,-109.658"/>
<polygon fill="#757575" stroke="#757575" points="327.108,-106.267 316.514,-106.233 324.775,-112.867 327.108,-106.267"/>
</g>
</g>
</svg>
