<?xml version="1.0" encoding="UTF-8" standalone="no"?>
<!DOCTYPE svg PUBLIC "-//W3C//DTD SVG 1.1//EN"
 "http://www.w3.org/Graphics/SVG/1.1/DTD/svg11.dtd">
<!-- Generated by graphviz version 2.38.0 (20140413.2041)
 -->
<!-- Title: G Pages: 1 -->
<svg width="1675pt" height="340pt"
 viewBox="0.00 0.00 1674.53 339.98" xmlns="http://www.w3.org/2000/svg" xmlns:xlink="http://www.w3.org/1999/xlink">
<g id="graph0" class="graph" transform="scale(1 1) rotate(0) translate(7.992 331.992)">
<title>G</title>
<polygon fill="#000000" stroke="none" points="-7.992,7.992 -7.992,-331.992 1666.54,-331.992 1666.54,7.992 -7.992,7.992"/>
<!-- client/listeners/dispatchActions -->
<g id="node1" class="node"><title>client/listeners/dispatchActions</title>
<ellipse fill="none" stroke="#c6c5fe" cx="425.362" cy="-234" rx="139.165" ry="18"/>
<text text-anchor="middle" x="425.362" y="-230.849" font-family="Arial" font-size="14.00" fill="#c6c5fe">client/listeners/dispatchActions</text>
</g>
<!-- client/streams/serverActionsStream -->
<g id="node2" class="node"><title>client/streams/serverActionsStream</title>
<ellipse fill="none" stroke="#cfffac" cx="279.362" cy="-162" rx="158.916" ry="18"/>
<text text-anchor="middle" x="279.362" y="-158.849" font-family="Arial" font-size="14.00" fill="#cfffac">client/streams/serverActionsStream</text>
</g>
<!-- client/listeners/dispatchActions&#45;&gt;client/streams/serverActionsStream -->
<g id="edge1" class="edge"><title>client/listeners/dispatchActions&#45;&gt;client/streams/serverActionsStream</title>
<path fill="none" stroke="#757575" d="M390.762,-216.411C370.562,-206.726 344.878,-194.412 323.263,-184.049"/>
<polygon fill="#757575" stroke="#757575" points="324.496,-180.758 313.966,-179.591 321.47,-187.07 324.496,-180.758"/>
</g>
<!-- client/main -->
<g id="node3" class="node"><title>client/main</title>
<ellipse fill="none" stroke="#c6c5fe" cx="779.362" cy="-306" rx="55.6138" ry="18"/>
<text text-anchor="middle" x="779.362" y="-302.849" font-family="Arial" font-size="14.00" fill="#c6c5fe">client/main</text>
</g>
<!-- client/main&#45;&gt;client/listeners/dispatchActions -->
<g id="edge2" class="edge"><title>client/main&#45;&gt;client/listeners/dispatchActions</title>
<path fill="none" stroke="#757575" d="M733.082,-295.849C676.1,-284.581 578.278,-265.238 508.215,-251.383"/>
<polygon fill="#757575" stroke="#757575" points="508.576,-247.887 498.087,-249.381 507.218,-254.754 508.576,-247.887"/>
</g>
<!-- client/redundantlySubscribeToGameUpdates -->
<g id="node4" class="node"><title>client/redundantlySubscribeToGameUpdates</title>
<ellipse fill="none" stroke="#cfffac" cx="779.362" cy="-234" rx="197.466" ry="18"/>
<text text-anchor="middle" x="779.362" y="-230.849" font-family="Arial" font-size="14.00" fill="#cfffac">client/redundantlySubscribeToGameUpdates</text>
</g>
<!-- client/main&#45;&gt;client/redundantlySubscribeToGameUpdates -->
<g id="edge3" class="edge"><title>client/main&#45;&gt;client/redundantlySubscribeToGameUpdates</title>
<path fill="none" stroke="#757575" d="M779.362,-287.697C779.362,-279.983 779.362,-270.712 779.362,-262.112"/>
<polygon fill="#757575" stroke="#757575" points="782.862,-262.104 779.362,-252.104 775.862,-262.104 782.862,-262.104"/>
</g>
<!-- client/routes -->
<g id="node5" class="node"><title>client/routes</title>
<ellipse fill="none" stroke="#c6c5fe" cx="1056.36" cy="-234" rx="61.643" ry="18"/>
<text text-anchor="middle" x="1056.36" y="-230.849" font-family="Arial" font-size="14.00" fill="#c6c5fe">client/routes</text>
</g>
<!-- client/main&#45;&gt;client/routes -->
<g id="edge4" class="edge"><title>client/main&#45;&gt;client/routes</title>
<path fill="none" stroke="#757575" d="M822.036,-294.216C870.225,-282.038 948.77,-262.189 1001.48,-248.868"/>
<polygon fill="#757575" stroke="#757575" points="1002.5,-252.221 1011.34,-246.377 1000.79,-245.434 1002.5,-252.221"/>
</g>
<!-- client/subscribeServerActions -->
<g id="node6" class="node"><title>client/subscribeServerActions</title>
<ellipse fill="none" stroke="#c6c5fe" cx="134.362" cy="-234" rx="134.224" ry="18"/>
<text text-anchor="middle" x="134.362" y="-230.849" font-family="Arial" font-size="14.00" fill="#c6c5fe">client/subscribeServerActions</text>
</g>
<!-- client/main&#45;&gt;client/subscribeServerActions -->
<g id="edge5" class="edge"><title>client/main&#45;&gt;client/subscribeServerActions</title>
<path fill="none" stroke="#757575" d="M726.941,-299.695C635.591,-290.398 441.31,-270.399 277.362,-252 265.403,-250.658 252.886,-249.22 240.444,-247.769"/>
<polygon fill="#757575" stroke="#757575" points="240.832,-244.29 230.493,-246.604 240.018,-251.243 240.832,-244.29"/>
</g>
<!-- methods/client/dispatchAction -->
<g id="node7" class="node"><title>methods/client/dispatchAction</title>
<ellipse fill="none" stroke="#cfffac" cx="1271.36" cy="-234" rx="135.349" ry="18"/>
<text text-anchor="middle" x="1271.36" y="-230.849" font-family="Arial" font-size="14.00" fill="#cfffac">methods/client/dispatchAction</text>
</g>
<!-- client/main&#45;&gt;methods/client/dispatchAction -->
<g id="edge6" class="edge"><title>client/main&#45;&gt;methods/client/dispatchAction</title>
<path fill="none" stroke="#757575" d="M829.245,-297.903C909.393,-286.5 1068.36,-263.883 1172.22,-249.105"/>
<polygon fill="#757575" stroke="#757575" points="1173,-252.53 1182.41,-247.656 1172.02,-245.599 1173,-252.53"/>
</g>
<!-- components/TriviaApp -->
<g id="node8" class="node"><title>components/TriviaApp</title>
<ellipse fill="none" stroke="#c6c5fe" cx="954.362" cy="-162" rx="104.333" ry="18"/>
<text text-anchor="middle" x="954.362" y="-158.849" font-family="Arial" font-size="14.00" fill="#c6c5fe">components/TriviaApp</text>
</g>
<!-- client/routes&#45;&gt;components/TriviaApp -->
<g id="edge7" class="edge"><title>client/routes&#45;&gt;components/TriviaApp</title>
<path fill="none" stroke="#757575" d="M1033.22,-217.116C1019.56,-207.742 1002.05,-195.729 987.007,-185.403"/>
<polygon fill="#757575" stroke="#757575" points="988.705,-182.324 978.48,-179.552 984.745,-188.096 988.705,-182.324"/>
</g>
<!-- store -->
<g id="node9" class="node"><title>store</title>
<ellipse fill="none" stroke="#c6c5fe" cx="1157.36" cy="-162" rx="31.9343" ry="18"/>
<text text-anchor="middle" x="1157.36" y="-158.849" font-family="Arial" font-size="14.00" fill="#c6c5fe">store</text>
</g>
<!-- client/routes&#45;&gt;store -->
<g id="edge8" class="edge"><title>client/routes&#45;&gt;store</title>
<path fill="none" stroke="#757575" d="M1079.28,-217.116C1094.21,-206.769 1113.78,-193.208 1129.59,-182.249"/>
<polygon fill="#757575" stroke="#757575" points="1131.71,-185.039 1137.93,-176.466 1127.72,-179.285 1131.71,-185.039"/>
</g>
<!-- client/subscribeServerActions&#45;&gt;client/streams/serverActionsStream -->
<g id="edge9" class="edge"><title>client/subscribeServerActions&#45;&gt;client/streams/serverActionsStream</title>
<path fill="none" stroke="#757575" d="M168.725,-216.411C188.786,-206.726 214.294,-194.412 235.761,-184.049"/>
<polygon fill="#757575" stroke="#757575" points="237.511,-187.091 244.995,-179.591 234.467,-180.787 237.511,-187.091"/>
</g>
<!-- components/Round -->
<g id="node10" class="node"><title>components/Round</title>
<ellipse fill="none" stroke="#cfffac" cx="906.362" cy="-90" rx="92.4694" ry="18"/>
<text text-anchor="middle" x="906.362" y="-86.8493" font-family="Arial" font-size="14.00" fill="#cfffac">components/Round</text>
</g>
<!-- components/TriviaApp&#45;&gt;components/Round -->
<g id="edge10" class="edge"><title>components/TriviaApp&#45;&gt;components/Round</title>
<path fill="none" stroke="#757575" d="M942.742,-144.055C937.107,-135.837 930.219,-125.791 923.957,-116.66"/>
<polygon fill="#757575" stroke="#757575" points="926.75,-114.543 918.208,-108.275 920.976,-118.502 926.75,-114.543"/>
</g>
<!-- store/reducers/root -->
<g id="node16" class="node"><title>store/reducers/root</title>
<ellipse fill="none" stroke="#c6c5fe" cx="1253.36" cy="-90" rx="89.6971" ry="18"/>
<text text-anchor="middle" x="1253.36" y="-86.8493" font-family="Arial" font-size="14.00" fill="#c6c5fe">store/reducers/root</text>
</g>
<!-- store&#45;&gt;store/reducers/root -->
<g id="edge19" class="edge"><title>store&#45;&gt;store/reducers/root</title>
<path fill="none" stroke="#757575" d="M1176.33,-147.17C1189.51,-137.555 1207.38,-124.526 1222.59,-113.437"/>
<polygon fill="#757575" stroke="#757575" points="1224.7,-116.23 1230.72,-107.51 1220.58,-110.574 1224.7,-116.23"/>
</g>
<!-- store/actions -->
<g id="node11" class="node"><title>store/actions</title>
<ellipse fill="none" stroke="#c6c5fe" cx="1081.36" cy="-90" rx="64.3793" ry="18"/>
<text text-anchor="middle" x="1081.36" y="-86.8493" font-family="Arial" font-size="14.00" fill="#c6c5fe">store/actions</text>
</g>
<!-- store/reducers/advanceQuestion -->
<g id="node12" class="node"><title>store/reducers/advanceQuestion</title>
<ellipse fill="none" stroke="#cfffac" cx="1299.36" cy="-18" rx="146.9" ry="18"/>
<text text-anchor="middle" x="1299.36" y="-14.8493" font-family="Arial" font-size="14.00" fill="#cfffac">store/reducers/advanceQuestion</text>
</g>
<!-- store/actions&#45;&gt;store/reducers/advanceQuestion -->
<g id="edge11" class="edge"><title>store/actions&#45;&gt;store/reducers/advanceQuestion</title>
<path fill="none" stroke="#757575" d="M1121.86,-75.9976C1154.97,-65.3632 1202.28,-50.1726 1239.73,-38.1473"/>
<polygon fill="#757575" stroke="#757575" points="1241.07,-41.3947 1249.52,-35.0049 1238.93,-34.7298 1241.07,-41.3947"/>
</g>
<!-- store/reducers/game -->
<g id="node13" class="node"><title>store/reducers/game</title>
<ellipse fill="none" stroke="#cfffac" cx="1561.36" cy="-18" rx="97.3647" ry="18"/>
<text text-anchor="middle" x="1561.36" y="-14.8493" font-family="Arial" font-size="14.00" fill="#cfffac">store/reducers/game</text>
</g>
<!-- store/actions&#45;&gt;store/reducers/game -->
<g id="edge12" class="edge"><title>store/actions&#45;&gt;store/reducers/game</title>
<path fill="none" stroke="#757575" d="M1127.55,-77.4385C1136.41,-75.4484 1145.65,-73.5312 1154.36,-72 1287.06,-48.6859 1321.93,-54.6713 1455.36,-36 1463.88,-34.8083 1472.77,-33.4941 1481.62,-32.14"/>
<polygon fill="#757575" stroke="#757575" points="1482.23,-35.5876 1491.57,-30.5988 1481.16,-28.67 1482.23,-35.5876"/>
</g>
<!-- store/reducers/reset -->
<g id="node14" class="node"><title>store/reducers/reset</title>
<ellipse fill="none" stroke="#cfffac" cx="826.362" cy="-18" rx="94.6194" ry="18"/>
<text text-anchor="middle" x="826.362" y="-14.8493" font-family="Arial" font-size="14.00" fill="#cfffac">store/reducers/reset</text>
</g>
<!-- store/actions&#45;&gt;store/reducers/reset -->
<g id="edge13" class="edge"><title>store/actions&#45;&gt;store/reducers/reset</title>
<path fill="none" stroke="#757575" d="M1037.24,-76.8868C995.934,-65.5491 933.847,-48.5056 887.726,-35.845"/>
<polygon fill="#757575" stroke="#757575" points="888.415,-32.4049 877.846,-33.1328 886.562,-39.1552 888.415,-32.4049"/>
</g>
<!-- store/reducers/round -->
<g id="node15" class="node"><title>store/reducers/round</title>
<ellipse fill="none" stroke="#cfffac" cx="1036.36" cy="-18" rx="97.923" ry="18"/>
<text text-anchor="middle" x="1036.36" y="-14.8493" font-family="Arial" font-size="14.00" fill="#cfffac">store/reducers/round</text>
</g>
<!-- store/actions&#45;&gt;store/reducers/round -->
<g id="edge14" class="edge"><title>store/actions&#45;&gt;store/reducers/round</title>
<path fill="none" stroke="#757575" d="M1070.47,-72.055C1065.24,-63.922 1058.86,-53.998 1053.04,-44.9426"/>
<polygon fill="#757575" stroke="#757575" points="1055.82,-42.7944 1047.47,-36.2753 1049.93,-46.5798 1055.82,-42.7944"/>
</g>
<!-- store/reducers/root&#45;&gt;store/reducers/advanceQuestion -->
<g id="edge15" class="edge"><title>store/reducers/root&#45;&gt;store/reducers/advanceQuestion</title>
<path fill="none" stroke="#757575" d="M1264.5,-72.055C1269.9,-63.8373 1276.5,-53.7911 1282.5,-44.6599"/>
<polygon fill="#757575" stroke="#757575" points="1285.44,-46.5545 1288.01,-36.2753 1279.59,-42.7102 1285.44,-46.5545"/>
</g>
<!-- store/reducers/root&#45;&gt;store/reducers/game -->
<g id="edge16" class="edge"><title>store/reducers/root&#45;&gt;store/reducers/game</title>
<path fill="none" stroke="#757575" d="M1310.57,-75.9976C1362.08,-64.2915 1437.88,-47.0643 1492.65,-34.6158"/>
<polygon fill="#757575" stroke="#757575" points="1493.65,-37.9787 1502.62,-32.3495 1492.1,-31.1528 1493.65,-37.9787"/>
</g>
<!-- store/reducers/root&#45;&gt;store/reducers/reset -->
<g id="edge17" class="edge"><title>store/reducers/root&#45;&gt;store/reducers/reset</title>
<path fill="none" stroke="#757575" d="M1187.88,-77.6471C1176.7,-75.74 1165.2,-73.7976 1154.36,-72 1054.45,-55.4301 1029.32,-52.2459 929.362,-36 921.477,-34.7185 913.253,-33.3743 905.042,-32.027"/>
<polygon fill="#757575" stroke="#757575" points="905.491,-28.5538 895.055,-30.386 904.355,-35.4612 905.491,-28.5538"/>
</g>
<!-- store/reducers/root&#45;&gt;store/reducers/round -->
<g id="edge18" class="edge"><title>store/reducers/root&#45;&gt;store/reducers/round</title>
<path fill="none" stroke="#757575" d="M1208.14,-74.4109C1174.53,-63.5699 1128.47,-48.713 1092.51,-37.112"/>
<polygon fill="#757575" stroke="#757575" points="1093.24,-33.6714 1082.65,-33.9322 1091.09,-40.3333 1093.24,-33.6714"/>
</g>
</g>
</svg>
