<?xml version="1.0" encoding="UTF-8" standalone="no"?>
<!DOCTYPE svg PUBLIC "-//W3C//DTD SVG 1.1//EN"
 "http://www.w3.org/Graphics/SVG/1.1/DTD/svg11.dtd">
<!-- Generated by graphviz version 2.38.0 (20140413.2041)
 -->
<!-- Title: G Pages: 1 -->
<svg width="1331pt" height="340pt"
 viewBox="0.00 0.00 1330.60 339.98" xmlns="http://www.w3.org/2000/svg" xmlns:xlink="http://www.w3.org/1999/xlink">
<g id="graph0" class="graph" transform="scale(1 1) rotate(0) translate(7.992 331.992)">
<title>G</title>
<polygon fill="#ffffff" stroke="none" points="-7.992,7.992 -7.992,-331.992 1322.61,-331.992 1322.61,7.992 -7.992,7.992"/>
<!-- methods/server/dispatchAction -->
<g id="node1" class="node"><title>methods/server/dispatchAction</title>
<ellipse fill="#E8ECF5" stroke="#111111" cx="139.607" cy="-234" rx="139.714" ry="18"/>
<text text-anchor="middle" x="139.607" y="-230.849" font-family="Arial" font-size="14.00" fill="#111111">methods/server/dispatchAction</text>
</g>
<!-- server/streams/dispatchedActions -->
<g id="node2" class="node"><title>server/streams/dispatchedActions</title>
<ellipse fill="none" stroke="#000000" cx="472.607" cy="-162" rx="152.335" ry="18"/>
<text text-anchor="middle" x="472.607" y="-158.849" font-family="Arial" font-size="14.00" fill="#000000">server/streams/dispatchedActions</text>
</g>
<!-- methods/server/dispatchAction&#45;&gt;server/streams/dispatchedActions -->
<g id="edge1" class="edge"><title>methods/server/dispatchAction&#45;&gt;server/streams/dispatchedActions</title>
<path fill="none" stroke="#757575" d="M209.415,-218.326C262.579,-207.15 335.871,-191.743 391.614,-180.026"/>
<polygon fill="#757575" stroke="#757575" points="392.39,-183.439 401.456,-177.957 390.95,-176.589 392.39,-183.439"/>
</g>
<!-- server/listeners/dispatchActionsToStore -->
<g id="node3" class="node"><title>server/listeners/dispatchActionsToStore</title>
<ellipse fill="none" stroke="#111111" cx="472.607" cy="-234" rx="175.975" ry="18"/>
<text text-anchor="middle" x="472.607" y="-230.849" font-family="Arial" font-size="14.00" fill="#111111">server/listeners/dispatchActionsToStore</text>
</g>
<!-- server/listeners/dispatchActionsToStore&#45;&gt;server/streams/dispatchedActions -->
<g id="edge2" class="edge"><title>server/listeners/dispatchActionsToStore&#45;&gt;server/streams/dispatchedActions</title>
<path fill="none" stroke="#757575" d="M472.607,-215.697C472.607,-207.983 472.607,-198.712 472.607,-190.112"/>
<polygon fill="#757575" stroke="#757575" points="476.107,-190.104 472.607,-180.104 469.107,-190.104 476.107,-190.104"/>
</g>
<!-- store -->
<g id="node4" class="node"><title>store</title>
<ellipse fill="none" stroke="#111111" cx="832.607" cy="-162" rx="31.9343" ry="18"/>
<text text-anchor="middle" x="832.607" y="-158.849" font-family="Arial" font-size="14.00" fill="#111111">store</text>
</g>
<!-- server/listeners/dispatchActionsToStore&#45;&gt;store -->
<g id="edge3" class="edge"><title>server/listeners/dispatchActionsToStore&#45;&gt;store</title>
<path fill="none" stroke="#757575" d="M584.993,-220.087C646.177,-211.593 722.809,-198.564 789.607,-180 792.604,-179.167 795.679,-178.197 798.739,-177.15"/>
<polygon fill="#757575" stroke="#757575" points="800.173,-180.352 808.354,-173.619 797.76,-173.781 800.173,-180.352"/>
</g>
<!-- store/reducers/root -->
<g id="node10" class="node"><title>store/reducers/root</title>
<ellipse fill="none" stroke="#111111" cx="832.607" cy="-90" rx="89.6971" ry="18"/>
<text text-anchor="middle" x="832.607" y="-86.8493" font-family="Arial" font-size="14.00" fill="#111111">store/reducers/root</text>
</g>
<!-- store&#45;&gt;store/reducers/root -->
<g id="edge12" class="edge"><title>store&#45;&gt;store/reducers/root</title>
<path fill="none" stroke="#757575" d="M832.607,-143.697C832.607,-135.983 832.607,-126.712 832.607,-118.112"/>
<polygon fill="#757575" stroke="#757575" points="836.107,-118.104 832.607,-108.104 829.107,-118.104 836.107,-118.104"/>
</g>
<!-- server/main -->
<g id="node5" class="node"><title>server/main</title>
<ellipse fill="none" stroke="#111111" cx="485.607" cy="-306" rx="59.9775" ry="18"/>
<text text-anchor="middle" x="485.607" y="-302.849" font-family="Arial" font-size="14.00" fill="#111111">server/main</text>
</g>
<!-- server/main&#45;&gt;methods/server/dispatchAction -->
<g id="edge4" class="edge"><title>server/main&#45;&gt;methods/server/dispatchAction</title>
<path fill="none" stroke="#757575" d="M437.133,-295.193C381.231,-283.884 288.428,-265.108 221.314,-251.53"/>
<polygon fill="#757575" stroke="#757575" points="221.685,-248.035 211.19,-249.482 220.297,-254.896 221.685,-248.035"/>
</g>
<!-- server/publications/processedActions -->
<g id="node6" class="node"><title>server/publications/processedActions</title>
<ellipse fill="#ee6666" stroke="#111111" cx="832.607" cy="-234" rx="166.139" ry="18"/>
<text text-anchor="middle" x="832.607" y="-230.849" font-family="Arial" font-size="14.00" fill="#111111">server/publications/processedActions</text>
</g>
<!-- server/main&#45;&gt;server/publications/processedActions -->
<g id="edge5" class="edge"><title>server/main&#45;&gt;server/publications/processedActions</title>
<path fill="none" stroke="#757575" d="M533.856,-295.267C589.032,-284.136 680.395,-265.706 747.585,-252.151"/>
<polygon fill="#757575" stroke="#757575" points="748.623,-255.513 757.734,-250.104 747.239,-248.651 748.623,-255.513"/>
</g>
<!-- server/publications/processedActions&#45;&gt;server/streams/dispatchedActions -->
<g id="edge6" class="edge"><title>server/publications/processedActions&#45;&gt;server/streams/dispatchedActions</title>
<path fill="none" stroke="#757575" d="M755.378,-217.983C697.351,-206.7 617.895,-191.25 557.982,-179.601"/>
<polygon fill="#757575" stroke="#757575" points="558.649,-176.165 548.165,-177.692 557.313,-183.036 558.649,-176.165"/>
</g>
<!-- server/publications/processedActions&#45;&gt;store -->
<g id="edge7" class="edge"><title>server/publications/processedActions&#45;&gt;store</title>
<path fill="none" stroke="#757575" d="M832.607,-215.697C832.607,-207.983 832.607,-198.712 832.607,-190.112"/>
<polygon fill="#757575" stroke="#757575" points="836.107,-190.104 832.607,-180.104 829.107,-190.104 836.107,-190.104"/>
</g>
<!-- server/streams/storeStateStream -->
<g id="node7" class="node"><title>server/streams/storeStateStream</title>
<ellipse fill="none" stroke="#111111" cx="1165.61" cy="-234" rx="149.022" ry="18"/>
<text text-anchor="middle" x="1165.61" y="-230.849" font-family="Arial" font-size="14.00" fill="#111111">server/streams/storeStateStream</text>
</g>
<!-- server/streams/storeStateStream&#45;&gt;store -->
<g id="edge8" class="edge"><title>server/streams/storeStateStream&#45;&gt;store</title>
<path fill="none" stroke="#757575" d="M1094.58,-218.069C1026.57,-203.773 926.458,-182.729 871.784,-171.235"/>
<polygon fill="#757575" stroke="#757575" points="872.306,-167.769 861.8,-169.137 870.866,-174.619 872.306,-167.769"/>
</g>
<!-- store/actions -->
<g id="node8" class="node"><title>store/actions</title>
<ellipse fill="none" stroke="#111111" cx="716.607" cy="-162" rx="64.3793" ry="18"/>
<text text-anchor="middle" x="716.607" y="-158.849" font-family="Arial" font-size="14.00" fill="#111111">store/actions</text>
</g>
<!-- store/reducers/game -->
<g id="node9" class="node"><title>store/reducers/game</title>
<ellipse fill="none" stroke="#000000" cx="773.607" cy="-18" rx="97.3647" ry="18"/>
<text text-anchor="middle" x="773.607" y="-14.8493" font-family="Arial" font-size="14.00" fill="#000000">store/reducers/game</text>
</g>
<!-- store/actions&#45;&gt;store/reducers/game -->
<g id="edge9" class="edge"><title>store/actions&#45;&gt;store/reducers/game</title>
<path fill="none" stroke="#757575" d="M717.561,-143.915C719.109,-125.475 723.143,-95.5812 733.607,-72 738.025,-62.0425 744.632,-52.2144 751.21,-43.777"/>
<polygon fill="#757575" stroke="#757575" points="754.072,-45.8059 757.696,-35.8499 748.654,-41.3732 754.072,-45.8059"/>
</g>
<!-- store/actions&#45;&gt;store/reducers/root -->
<g id="edge10" class="edge"><title>store/actions&#45;&gt;store/reducers/root</title>
<path fill="none" stroke="#757575" d="M742.351,-145.465C758.38,-135.792 779.228,-123.212 796.848,-112.579"/>
<polygon fill="#757575" stroke="#757575" points="798.972,-115.385 805.725,-107.222 795.355,-109.392 798.972,-115.385"/>
</g>
<!-- store/reducers/root&#45;&gt;store/reducers/game -->
<g id="edge11" class="edge"><title>store/reducers/root&#45;&gt;store/reducers/game</title>
<path fill="none" stroke="#757575" d="M818.325,-72.055C811.255,-63.6679 802.581,-53.376 794.759,-44.0963"/>
<polygon fill="#757575" stroke="#757575" points="797.288,-41.6659 788.167,-36.2753 791.936,-46.1773 797.288,-41.6659"/>
</g>
</g>
</svg>
