<?xml version="1.0" encoding="UTF-8" standalone="no"?>
<!DOCTYPE svg PUBLIC "-//W3C//DTD SVG 1.1//EN"
 "http://www.w3.org/Graphics/SVG/1.1/DTD/svg11.dtd">
<!-- Generated by graphviz version 2.38.0 (20140413.2041)
 -->
<!-- Title: G Pages: 1 -->
<svg width="1026pt" height="412pt"
 viewBox="0.00 0.00 1025.91 411.98" xmlns="http://www.w3.org/2000/svg" xmlns:xlink="http://www.w3.org/1999/xlink">
<g id="graph0" class="graph" transform="scale(1 1) rotate(0) translate(7.992 403.992)">
<title>G</title>
<polygon fill="#ffffff" stroke="none" points="-7.992,7.992 -7.992,-403.992 1017.91,-403.992 1017.91,7.992 -7.992,7.992"/>
<!-- client/listeners/dispatchServerActions -->
<g id="node1" class="node"><title>client/listeners/dispatchServerActions</title>
<ellipse fill="none" stroke="#111111" cx="556.56" cy="-306" rx="166.67" ry="18"/>
<text text-anchor="middle" x="556.56" y="-302.849" font-family="Arial" font-size="14.00" fill="#111111">client/listeners/dispatchServerActions</text>
</g>
<!-- client/streams/serverActionsStream -->
<g id="node2" class="node"><title>client/streams/serverActionsStream</title>
<ellipse fill="#E8ECF5" stroke="#000000" cx="819.56" cy="-234" rx="158.916" ry="18"/>
<text text-anchor="middle" x="819.56" y="-230.849" font-family="Arial" font-size="14.00" fill="#000000">client/streams/serverActionsStream</text>
</g>
<!-- client/listeners/dispatchServerActions&#45;&gt;client/streams/serverActionsStream -->
<g id="edge1" class="edge"><title>client/listeners/dispatchServerActions&#45;&gt;client/streams/serverActionsStream</title>
<path fill="none" stroke="#757575" d="M616.238,-289.116C656.086,-278.51 708.624,-264.527 750.312,-253.431"/>
<polygon fill="#757575" stroke="#757575" points="751.354,-256.776 760.117,-250.821 749.553,-250.011 751.354,-256.776"/>
</g>
<!-- store -->
<g id="node3" class="node"><title>store</title>
<ellipse fill="none" stroke="#111111" cx="555.56" cy="-234" rx="31.9343" ry="18"/>
<text text-anchor="middle" x="555.56" y="-230.849" font-family="Arial" font-size="14.00" fill="#111111">store</text>
</g>
<!-- client/listeners/dispatchServerActions&#45;&gt;store -->
<g id="edge2" class="edge"><title>client/listeners/dispatchServerActions&#45;&gt;store</title>
<path fill="none" stroke="#757575" d="M556.312,-287.697C556.202,-279.983 556.07,-270.712 555.947,-262.112"/>
<polygon fill="#757575" stroke="#757575" points="559.447,-262.053 555.804,-252.104 552.447,-262.153 559.447,-262.053"/>
</g>
<!-- store/reducers/root -->
<g id="node14" class="node"><title>store/reducers/root</title>
<ellipse fill="none" stroke="#111111" cx="555.56" cy="-90" rx="89.6971" ry="18"/>
<text text-anchor="middle" x="555.56" y="-86.8493" font-family="Arial" font-size="14.00" fill="#111111">store/reducers/root</text>
</g>
<!-- store&#45;&gt;store/reducers/root -->
<g id="edge17" class="edge"><title>store&#45;&gt;store/reducers/root</title>
<path fill="none" stroke="#757575" d="M555.56,-215.871C555.56,-191.67 555.56,-147.211 555.56,-118.393"/>
<polygon fill="#757575" stroke="#757575" points="559.06,-118.189 555.56,-108.189 552.06,-118.189 559.06,-118.189"/>
</g>
<!-- client/main -->
<g id="node4" class="node"><title>client/main</title>
<ellipse fill="none" stroke="#111111" cx="592.56" cy="-378" rx="55.6138" ry="18"/>
<text text-anchor="middle" x="592.56" y="-374.849" font-family="Arial" font-size="14.00" fill="#111111">client/main</text>
</g>
<!-- client/routes -->
<g id="node5" class="node"><title>client/routes</title>
<ellipse fill="none" stroke="#111111" cx="310.56" cy="-306" rx="61.643" ry="18"/>
<text text-anchor="middle" x="310.56" y="-302.849" font-family="Arial" font-size="14.00" fill="#111111">client/routes</text>
</g>
<!-- client/main&#45;&gt;client/routes -->
<g id="edge3" class="edge"><title>client/main&#45;&gt;client/routes</title>
<path fill="none" stroke="#757575" d="M549.73,-366.369C500.558,-354.163 419.762,-334.107 365.871,-320.73"/>
<polygon fill="#757575" stroke="#757575" points="366.683,-317.325 356.135,-318.313 364.997,-324.119 366.683,-317.325"/>
</g>
<!-- client/subscribeServerActions -->
<g id="node6" class="node"><title>client/subscribeServerActions</title>
<ellipse fill="none" stroke="#111111" cx="875.56" cy="-306" rx="134.224" ry="18"/>
<text text-anchor="middle" x="875.56" y="-302.849" font-family="Arial" font-size="14.00" fill="#111111">client/subscribeServerActions</text>
</g>
<!-- client/main&#45;&gt;client/subscribeServerActions -->
<g id="edge4" class="edge"><title>client/main&#45;&gt;client/subscribeServerActions</title>
<path fill="none" stroke="#757575" d="M635.541,-366.369C680.448,-355.261 751.637,-337.652 804.842,-324.492"/>
<polygon fill="#757575" stroke="#757575" points="805.69,-327.888 814.557,-322.089 804.009,-321.093 805.69,-327.888"/>
</g>
<!-- client/routes&#45;&gt;store -->
<g id="edge6" class="edge"><title>client/routes&#45;&gt;store</title>
<path fill="none" stroke="#757575" d="M352.956,-292.887C399.46,-279.6 473.39,-258.477 517.917,-245.755"/>
<polygon fill="#757575" stroke="#757575" points="519.106,-249.055 527.76,-242.943 517.183,-242.325 519.106,-249.055"/>
</g>
<!-- components/TriviaApp -->
<g id="node7" class="node"><title>components/TriviaApp</title>
<ellipse fill="none" stroke="#111111" cx="310.56" cy="-234" rx="104.333" ry="18"/>
<text text-anchor="middle" x="310.56" y="-230.849" font-family="Arial" font-size="14.00" fill="#111111">components/TriviaApp</text>
</g>
<!-- client/routes&#45;&gt;components/TriviaApp -->
<g id="edge5" class="edge"><title>client/routes&#45;&gt;components/TriviaApp</title>
<path fill="none" stroke="#757575" d="M310.56,-287.697C310.56,-279.983 310.56,-270.712 310.56,-262.112"/>
<polygon fill="#757575" stroke="#757575" points="314.06,-262.104 310.56,-252.104 307.06,-262.104 314.06,-262.104"/>
</g>
<!-- client/subscribeServerActions&#45;&gt;client/streams/serverActionsStream -->
<g id="edge7" class="edge"><title>client/subscribeServerActions&#45;&gt;client/streams/serverActionsStream</title>
<path fill="none" stroke="#757575" d="M862.004,-288.055C855.294,-279.668 847.061,-269.376 839.637,-260.096"/>
<polygon fill="#757575" stroke="#757575" points="842.36,-257.898 833.38,-252.275 836.894,-262.27 842.36,-257.898"/>
</g>
<!-- components/Game -->
<g id="node8" class="node"><title>components/Game</title>
<ellipse fill="none" stroke="#111111" cx="311.56" cy="-162" rx="90.2552" ry="18"/>
<text text-anchor="middle" x="311.56" y="-158.849" font-family="Arial" font-size="14.00" fill="#111111">components/Game</text>
</g>
<!-- components/TriviaApp&#45;&gt;components/Game -->
<g id="edge12" class="edge"><title>components/TriviaApp&#45;&gt;components/Game</title>
<path fill="none" stroke="#757575" d="M310.807,-215.697C310.917,-207.983 311.05,-198.712 311.172,-190.112"/>
<polygon fill="#757575" stroke="#757575" points="314.672,-190.153 311.315,-180.104 307.673,-190.053 314.672,-190.153"/>
</g>
<!-- components/Round -->
<g id="node11" class="node"><title>components/Round</title>
<ellipse fill="none" stroke="#111111" cx="110.56" cy="-162" rx="92.4694" ry="18"/>
<text text-anchor="middle" x="110.56" y="-158.849" font-family="Arial" font-size="14.00" fill="#111111">components/Round</text>
</g>
<!-- components/TriviaApp&#45;&gt;components/Round -->
<g id="edge13" class="edge"><title>components/TriviaApp&#45;&gt;components/Round</title>
<path fill="none" stroke="#757575" d="M266.669,-217.638C236.136,-206.952 195.286,-192.654 163.031,-181.365"/>
<polygon fill="#757575" stroke="#757575" points="163.913,-177.965 153.318,-177.965 161.6,-184.572 163.913,-177.965"/>
</g>
<!-- methods/client/dispatchAction -->
<g id="node9" class="node"><title>methods/client/dispatchAction</title>
<ellipse fill="#ee6666" stroke="#000000" cx="312.56" cy="-90" rx="135.349" ry="18"/>
<text text-anchor="middle" x="312.56" y="-86.8493" font-family="Arial" font-size="14.00" fill="#000000">methods/client/dispatchAction</text>
</g>
<!-- components/Game&#45;&gt;methods/client/dispatchAction -->
<g id="edge8" class="edge"><title>components/Game&#45;&gt;methods/client/dispatchAction</title>
<path fill="none" stroke="#757575" d="M311.807,-143.697C311.917,-135.983 312.05,-126.712 312.172,-118.112"/>
<polygon fill="#757575" stroke="#757575" points="315.672,-118.153 312.315,-108.104 308.673,-118.053 315.672,-118.153"/>
</g>
<!-- store/actions -->
<g id="node10" class="node"><title>store/actions</title>
<ellipse fill="none" stroke="#111111" cx="94.5597" cy="-90" rx="64.3793" ry="18"/>
<text text-anchor="middle" x="94.5597" y="-86.8493" font-family="Arial" font-size="14.00" fill="#111111">store/actions</text>
</g>
<!-- components/Game&#45;&gt;store/actions -->
<g id="edge9" class="edge"><title>components/Game&#45;&gt;store/actions</title>
<path fill="none" stroke="#757575" d="M266.334,-146.411C230.758,-134.935 181.233,-118.959 144.497,-107.109"/>
<polygon fill="#757575" stroke="#757575" points="145.566,-103.776 134.974,-104.037 143.417,-110.438 145.566,-103.776"/>
</g>
<!-- store/reducers/game -->
<g id="node12" class="node"><title>store/reducers/game</title>
<ellipse fill="none" stroke="#000000" cx="429.56" cy="-18" rx="97.3647" ry="18"/>
<text text-anchor="middle" x="429.56" y="-14.8493" font-family="Arial" font-size="14.00" fill="#000000">store/reducers/game</text>
</g>
<!-- store/actions&#45;&gt;store/reducers/game -->
<g id="edge14" class="edge"><title>store/actions&#45;&gt;store/reducers/game</title>
<path fill="none" stroke="#757575" d="M142.288,-77.8475C151.019,-75.8609 160.056,-73.8398 168.56,-72 231.5,-58.3822 303.207,-43.8948 355.512,-33.5145"/>
<polygon fill="#757575" stroke="#757575" points="356.247,-36.9371 365.376,-31.5601 354.886,-30.0706 356.247,-36.9371"/>
</g>
<!-- store/reducers/reset -->
<g id="node13" class="node"><title>store/reducers/reset</title>
<ellipse fill="none" stroke="#000000" cx="94.5597" cy="-18" rx="94.6194" ry="18"/>
<text text-anchor="middle" x="94.5597" y="-14.8493" font-family="Arial" font-size="14.00" fill="#000000">store/reducers/reset</text>
</g>
<!-- store/actions&#45;&gt;store/reducers/reset -->
<g id="edge15" class="edge"><title>store/actions&#45;&gt;store/reducers/reset</title>
<path fill="none" stroke="#757575" d="M94.5597,-71.6966C94.5597,-63.9827 94.5597,-54.7125 94.5597,-46.1124"/>
<polygon fill="#757575" stroke="#757575" points="98.0598,-46.1043 94.5597,-36.1043 91.0598,-46.1044 98.0598,-46.1043"/>
</g>
<!-- components/Round&#45;&gt;methods/client/dispatchAction -->
<g id="edge10" class="edge"><title>components/Round&#45;&gt;methods/client/dispatchAction</title>
<path fill="none" stroke="#757575" d="M153.894,-145.983C183.94,-135.571 224.227,-121.61 256.686,-110.362"/>
<polygon fill="#757575" stroke="#757575" points="258.185,-113.547 266.488,-106.966 255.893,-106.933 258.185,-113.547"/>
</g>
<!-- components/Round&#45;&gt;store/actions -->
<g id="edge11" class="edge"><title>components/Round&#45;&gt;store/actions</title>
<path fill="none" stroke="#757575" d="M106.605,-143.697C104.841,-135.983 102.723,-126.712 100.757,-118.112"/>
<polygon fill="#757575" stroke="#757575" points="104.11,-117.073 98.4693,-108.104 97.2856,-118.633 104.11,-117.073"/>
</g>
<!-- store/reducers/root&#45;&gt;store/reducers/game -->
<g id="edge16" class="edge"><title>store/reducers/root&#45;&gt;store/reducers/game</title>
<path fill="none" stroke="#757575" d="M526.653,-72.9406C509.17,-63.228 486.675,-50.7307 467.74,-40.2114"/>
<polygon fill="#757575" stroke="#757575" points="469.21,-37.024 458.768,-35.2271 465.81,-43.1431 469.21,-37.024"/>
</g>
</g>
</svg>
